<?xml version="1.0" encoding="UTF-8"?><svg id="_レイヤー_1" xmlns="http://www.w3.org/2000/svg" viewBox="0 0 559.71 969.52"><path d="M348.17,869.89c-.94,2.09-1.71,4.05-1.71,4.34s-.24,1.06-.53,1.06-1.06-.24-1.06-.53-.48-1.06-1.06-1.06-3.56-2.39-5.31-5.31c-1.75-2.92-6.42-10.87-6.47-11.16-.05-.3-3.09.78-3.09,1.07s-.48.82-1.06.53c-.58-.29-2.36-.34-2.66.53-.29.88-1.3,3.19-1.59,3.19s-1.06.72-1.06,1.59-.48,3.43-1.06,3.72c-.58.29-1.41,1.78-.53,2.66.88.88,1.36,2.55,1.06,3.72-.29,1.17-.82,4.25-.53,4.25s.7.72.27,1.59c-.44.88-.35,2.66.19,3.97.54,1.31.37,4,.08,4s-1.06,1.43-1.06,3.19-.24,6.38-.53,6.38-.81,3.29-.49,7.32c.31,4.02-3.76,10.45-3.76,10.75s-.72.82-1.59.53c-.88-.29-3.19-1.3-3.19-1.59s-.35-3.62-.79-6.75c-.43-3.13-4.23-16.63-4.53-16.63s-1.06-1.43-1.06-3.19-2.63-9.96-5.84-14.35c-3.22-4.38-12.17-15.94-12.75-15.94s-2.12-.24-2.12-.53-.76-1.38-1.68-1.76c-.92-.38-5.35-.79-8.09,1.28-2.74,2.08-3.46,12.4-4.05,12.7-.58.29-2.13,1.78-2.13,2.66s-.24,3.19-.53,3.19-1.06.72-1.06,1.59-.53,3.51-1.18,3.91c-.65.39-2.73,2.47-3.6,2.47s-3.19-.24-3.19-.53-.24-1.06-.53-1.06-1.06-.72-1.06-1.59-.31-3.14-.69-3.08c-.38.06-1.69-2.96-.69-4.49,1-1.53-.45-9.97-.75-9.97s-1.06-.72-1.06-1.59-.24-3.19-.53-3.19-1.06-.72-1.06-1.59-.24-3.19-.53-3.19-1.06-1.2-1.06-2.66-.24-5.31-.53-5.31-1.06-.72-1.06-1.59-.24-3.19-.53-3.19-1.06-.48-1.06-1.06-.24-2.13-.53-2.13-1.06-.48-1.06-1.06-.96-2.84-2.13-3.72c-1.17-.88-4.49-4.86-4.78-6.91-.29-2.05-1.3-7.44-1.59-7.44s-1.3-.96-1.59-2.13c-.29-1.17-1.3-4.25-1.59-4.25s-1.3-2.87-1.59-6.38c-.29-3.51-1.55-12.78-2.14-12.81-.59-.04-1.87-4.72-1.58-4.72s2.68.21,4.67.47c1.98.26,9.39,1.84,9.68,2.72.29.88,2.26,3.56,3.73,4.02,1.47.46,3.71.52,3.71.23s1.2-1.06,2.66-1.06,5.55.48,5.84,1.06c.29.58,1.54,1.89,2.12,1.59s2.76-.43,3.53.35c.77.78,5.21-.3,5.51-.89.29-.58,2.52-1.13,4.29.1,1.78,1.22,8.17.49,8.46-.1.29-.58,1.78-2.13,2.66-2.13s3.19-.24,3.19-.53.48-1.06,1.06-1.06,2.13-.24,2.13-.53,2.39-.82,5.31-.53c2.92.29,10.63.82,10.63.53s.6-1.33,1.34-1.65c.74-.32,4.8-1.97,4.51-3.14-.29-1.17-.7-4.61-.27-5.05.44-.44,2.47-.8,4.52-.8s7.44-.24,7.44-.53,1.05-.74,2.33-.34c1.28.4,5.64,4.38,5.64,6.72s.24,8.5.53,8.5.82.48.53,1.06-.82,2.13-.53,2.13,1.06,1.2,1.06,2.66.24,5.31.53,5.31,1.06,2.63,1.06,5.84.24,11.69.53,11.69,1.06,1.91,1.06,4.25.24,8.5.53,8.5,1.06.24,1.06.53-.54,1.22-1.19,1.41c-.66.19-.16,2.84.13,2.84s1.06.48,1.06,1.06.24,2.13.53,2.13,1.06.72,1.06,1.59.48,3.43,1.06,3.72c.58.29,2.12,1.54,2.12,2.13s.48,2.36,1.06,2.66c.58.29,2.13,1.54,2.13,2.13s.24,2.12.53,2.12.52,8.44-.42,10.54Z" fill="#fff" fill-rule="evenodd"/><path d="M533.72,197.13c-2.18,8.3-4.2,15.56-4.5,16.15-.29.58-1.54,2.13-2.12,2.13s-2.6-1.82-3.18-4.05c-.58-2.23-6.91-5.67-6.91-5.86,0-.19-4.15-.06-5.32,1.4-1.17,1.46-4.49,5.31-4.78,5.31s-1.06.48-1.06,1.06-.72,2.6-1.59,3.19c-.88.58-3.43,3.08-3.72,4.25-.29,1.17-1.78,4.73-2.66,5.31-.88.58-3.43,3.08-3.72,4.25-.29,1.17-1.78,4.73-2.66,5.31-.88.58-3.19,2.84-3.19,3.72s-.24,3.19-.53,3.19-1.06.48-1.06,1.06-.48,2.36-1.06,2.66c-.58.29-2.12,1.54-2.12,2.13s-.24,2.13-.53,2.13-2.74,3.83-4.78,8.5c-2.05,4.68-8.16,17.48-9.03,18.06-.88.58-2.66,3.01-2.02,4.09.64,1.08-4.03,7.05-3.64,8.33.4,1.28,4.2,5.57,6.33,5.49s9.37-8.06,9.95-8.35,2.13-1.54,2.13-2.12,1.2-3.08,2.66-4.25c1.46-1.17,5.55-6.16,5.84-8.5.29-2.34,1.3-8.5,1.59-8.5s1.06-.48,1.06-1.06.72-2.6,1.59-3.19c.88-.58,3.19-2.84,3.19-3.72s.96-3.9,2.12-4.78c1.17-.88,4.01-3.67,3.72-4.25-.29-.58-.35-2.84.53-3.72.88-.88,1.59-2.07,1.59-2.66s.24-2.12.53-2.12,1.3-.72,1.59-1.59c.29-.88,1.54-3.19,2.13-3.19s2.36-.72,2.66-1.59c.29-.88,1.78-3.67,2.66-4.25.88-.58,3.19-2.84,3.19-3.72s.18-3.07.4-2.93,2.39-1.85,3.85-1.85,5.31.24,5.31.53.24,1.06.53,1.06.11,2.87-1.06,6.38c-1.17,3.51-4.73,12.99-5.31,13.28-.58.29-2.13,1.78-2.13,2.66s-.24,3.19-.53,3.19-1.06.48-1.06,1.06-.48,2.36-1.06,2.66c-.58.29-2.13,1.54-2.13,2.13s-.48,2.36-1.06,2.66c-.58.29-2.36,2.26-2.66,3.72-.29,1.46-1.78,5.79-2.66,6.38-.88.58-3.19,2.6-3.19,3.19s-.72,2.84-1.59,3.72c-.88.88-1.59,2.07-1.59,2.66s-.24,2.12-.53,2.12-1.06.48-1.06,1.06-.24,2.12-.53,2.12-1.06.48-1.06,1.06-.48,2.36-1.06,2.66c-.58.29-2.13,1.54-2.13,2.13s-.72,2.6-1.59,3.19c-.88.58-3.19,2.6-3.19,3.19s-.24,2.13-.53,2.13-1.06.48-1.06,1.06-.48,2.36-1.06,2.66c-.58.29-2.12,1.54-2.12,2.12s-.24,2.13-.53,2.13-.38,1.02.46,2.27c.84,1.25,7.1,6.74,7.91,9.97.81,3.23,1.48,9.99,1.19,13.79-.29,3.8-1.3,13.81-1.59,13.81s-1.06.48-1.06,1.06-.24,2.13-.53,2.13-.36.96.49,2.13c.85,1.17-.44,6.08-1.02,6.37-.58.29-2.13,2.74-2.13,4.78s-.24,7.44-.53,7.44-1.06.48-1.06,1.06-.24,2.13-.53,2.13-1.06.96-1.06,2.12-.24,4.25-.53,4.25-1.54,1.43-2.13,3.19c-.58,1.75-2.36,6.38-2.66,6.38s-1.06,1.67-1.06,3.72-.48,7.68-1.06,7.97c-.58.29-1.45,4.36-.62,8.38.83,4.02-1.75,15-2.04,15s-1.3.96-1.59,2.12c-.29,1.17-1.3,4.25-1.59,4.25s-1.06.24-1.06.53.24,1.06.53,1.06.58.96,0,2.12c-.58,1.17-2.36,4.25-2.66,4.25s-1.06.72-1.06,1.59-.24,3.19-.53,3.19-.6,1.88-.03,4.18c.57,2.3-1.51,8.81-2.1,9.11-.58.29-2.12,1.78-2.12,2.66s-.24,3.19-.53,3.19-1.06.72-1.06,1.59-.24,3.19-.53,3.19-1.54,2.87-2.12,6.38c-.58,3.51-2.6,12.99-3.19,13.28-.58.29-2.13,2.5-2.13,4.25s-.48,6.61-1.06,6.91-2.12,2.26-2.12,3.72-.24,5.31-.53,5.31-1.06.48-1.06,1.06-.24,2.12-.53,2.12-1.06.72-1.06,1.59-.48,3.43-1.06,3.72c-.58.29-2.36,2.5-2.66,4.25-.29,1.75-.82,6.38-.53,6.38s1.06.24,1.06.53-.24,1.06-.53,1.06-1.3.48-1.59,1.06c-.29.58-1.54,2.13-2.12,2.13s-2.05,1.8-1.96,4c.09,2.2-2.24,7.4-2.83,7.69-.58.29-2.12,1.78-2.12,2.66s-.24,3.19-.53,3.19-1.06.48-1.06,1.06-.24,2.12-.53,2.12-.82.96-.53,2.13c.29,1.17.82,4.25.53,4.25s-1.06.48-1.06,1.06-.24,2.13-.53,2.13-1.3.72-1.59,1.59c-.29.88-.82,3.19-.53,3.19s1.06.24,1.06.53-.24,1.06-.53,1.06-1.15.82-1.25,1.81c-.1,1-4.83,4.64-5.12,6.69-.29,2.05-1.54,7.68-2.13,7.97-.58.29-2.12,1.78-2.12,2.66s-.24,3.19-.53,3.19-.86,2.58-.61,5.74c.25,3.16-3.73,11.01-3.83,12.01-.1,1-4.74,4.97-4.92,7.41-.18,2.45-3.34,8.55-3.92,8.84-.58.29-2.13,1.54-2.13,2.12s-.72,2.6-1.59,3.19c-.88.58-3.43,4.04-3.72,6.38s-1.3,8.5-1.59,8.5-1.06.48-1.06,1.06-.48,2.36-1.06,2.66c-.58.29-2.36,2.5-2.66,4.25-.29,1.75-1.3,6.38-1.59,6.38s-.82.72-.53,1.59c.29.88.82,3.19.53,3.19s-1.06.72-1.06,1.59-.48,3.43-1.06,3.72c-.58.29-1.89,1.54-1.59,2.13.29.58.82,2.13.53,2.13s-1.06.48-1.06,1.06-.24,2.12-.53,2.12-1.3.96-1.59,2.12c-.29,1.17-1.3,4.25-1.59,4.25s-1.06.72-1.06,1.59-.48,3.43-1.06,3.72-2.12,1.54-2.12,2.12-.24,2.13-.53,2.13-1.06.96-1.06,2.12-.24,4.25-.53,4.25-1.3.96-1.59,2.13c-.29,1.17-1.3,4.25-1.59,4.25s-1.06.48-1.06,1.06-.72,2.6-1.59,3.19c-.88.58-3.19,3.08-3.19,4.25s-.48,4.49-1.06,4.78c-.58.29-2.36,2.02-2.66,3.19-.29,1.17-1.54,4.49-2.12,4.78-.58.29-2.36,2.26-2.66,3.72-.29,1.46-1.54,5.55-2.12,5.84-.58.29-2.13,1.54-2.13,2.13s-.72,2.6-1.59,3.19c-.88.58-3.19,2.6-3.19,3.19s-1.67,3.56-3.72,5.31c-2.05,1.75-7.92,7.33-8.5,8.5-.58,1.17-2.6,4.25-3.19,4.25s-2.6.72-3.19,1.59c-.58.88-2.6,3.19-3.19,3.19s-2.84.96-3.72,2.13c-.88,1.17-3.91,4.25-4.78,4.25s-3.43.48-3.72,1.06c-.29.58-1.78,2.12-2.66,2.12s-3.19.24-3.19.53-.48,1.06-1.06,1.06-2.12.24-2.12.53-.48,1.06-1.06,1.06-2.36.48-2.66,1.06c-.29.58-2.02,2.13-3.19,2.13s-4.25.24-4.25.53-2.63,1.54-5.84,2.12c-3.21.58-11.69,1.89-11.69,1.59s-2.39-1.06-5.31-1.06-10.63-.24-10.63-.53-.48-1.06-1.06-1.06-2.12-.24-2.12-.53-.96-1.06-2.12-1.06-4.49-.48-4.78-1.06c-.29-.58-1.78-2.12-2.66-2.12s-3.43-.48-3.72-1.06c-.29-.58-1.54-2.13-2.13-2.13s-2.84-.96-3.72-2.13c-.88-1.17-3.67-4.25-4.25-4.25s-4.04-2.15-6.38-4.78c-2.34-2.63-9.22-10.04-10.09-10.63-.88-.58-3.43-3.08-3.72-4.25-.29-1.17-2.02-4.97-3.19-5.84-1.17-.88-4.25-3.9-4.25-4.78s-.48-3.43-1.06-3.72-2.36-1.78-2.66-2.66-1.78-3.67-2.66-4.25c-.88-.58-3.19-2.6-3.19-3.19s-.72-2.84-1.59-3.72c-.88-.88-1.59-2.07-1.59-2.66s-.24-2.13-.53-2.13-1.06-.48-1.06-1.06-.72-2.6-1.59-3.19c-.88-.58-3.19-3.08-3.19-4.25s-.72-4.73-1.59-5.31c-.88-.58-3.19-2.6-3.19-3.19s-.24-2.13-.53-2.13-1.06-.96-1.06-2.12-.48-4.49-1.06-4.78c-.58-.29-1.89-1.78-1.59-2.66s.82-3.19.53-3.19-1.3-.96-1.59-2.13c-.29-1.17-1.3-4.25-1.59-4.25s-1.06-.96-1.06-2.12-.24-4.25-.53-4.25-1.06-.48-1.06-1.06-.24-2.13-.53-2.13-1.06-.72-1.06-1.59-.48-3.43-1.06-3.72c-.58-.29-2.13-1.54-2.13-2.12s-.24-2.13-.53-2.13-1.54-2.39-2.13-5.31c-.58-2.92-2.36-10.63-2.66-10.63s-1.06-.48-1.06-1.06-.24-2.12-.53-2.12-1.54-1.44-2.13-3.19c-.58-1.75-2.36-6.38-2.66-6.38s-1.06-1.44-1.06-3.19-.24-6.38-.53-6.38-1.06-.48-1.06-1.06-.24-2.13-.53-2.13-1.06-1.2-1.06-2.66-.24-5.31-.53-5.31-1.06-2.87-1.06-6.38-.24-12.75-.53-12.75-1.06-.72-1.06-1.59-.24-3.19-.53-3.19-1.06-1.43-1.06-3.19-.24-6.38-.53-6.38-1.06-1.2-1.06-2.66-.24-5.31-.53-5.31-1.06-1.43-1.06-3.19-.24-6.38-.53-6.38-1.3-1.2-1.59-2.66c-.29-1.46-1.3-5.31-1.59-5.31s-1.3-.96-1.59-2.12c-.29-1.17-1.3-4.25-1.59-4.25s-1.3-1.91-1.59-4.25c-.29-2.34-1.54-8.74-2.12-9.03-.58-.29-2.13-1.54-2.13-2.12s-.24-2.13-.53-2.13-1.3-.96-1.59-2.12c-.29-1.17-1.3-4.25-1.59-4.25s-.7-.36-.27-.8c.44-.44.56-1.75.27-2.92-.29-1.17-1.3-4.25-1.59-4.25s-1.3-.96-1.59-2.12c-.29-1.17-1.78-4.73-2.66-5.31-.88-.58-3.19-3.08-3.19-4.25s-.24-4.25-.53-4.25-1.06-.48-1.06-1.06-.24-2.12-.53-2.12-1.06-.72-1.06-1.59-.24-3.19-.53-3.19-1.06-1.2-1.06-2.66-.24-5.31-.53-5.31-1.06-.48-1.06-1.06-.24-2.12-.53-2.12-1.3-1.2-1.59-2.66-1.3-5.31-1.59-5.31-1.06-.48-1.06-1.06-.24-2.13-.53-2.13-1.06-.72-1.06-1.59-.24-3.19-.53-3.19-1.3-2.15-1.59-4.78c-.29-2.63-1.54-9.8-2.12-10.09s-2.12-1.54-2.12-2.12-.24-2.12-.53-2.12-.82-.96-.53-2.13c.29-1.17.82-4.25.53-4.25s-1.3-1.43-1.59-3.19c-.29-1.75-1.3-6.38-1.59-6.38s-.82-.48-.53-1.06c.29-.58.82-2.12.53-2.12s-1.06-.96-1.06-2.13-.24-4.25-.53-4.25-1.06-1.2-1.06-2.66-.24-5.31-.53-5.31-1.72-1.75-2.53-3.88l-.12-4.09v-5.84c0-6.43-1.82-20.66-4.05-31.62-2.23-10.96,5.73-28.31,5.84-30.78.11-2.47-6.9-2.91-7.31-2.21-.41.7-4.04.09-4.04-.21s-.72-1.06-1.59-1.06-3.9-.96-4.78-2.12c-.88-1.17-3.67-4.25-4.25-4.25s-2.84-.96-3.72-2.13c-.88-1.17-3.91-4.49-4.78-4.78-.88-.29-3.19-1.54-3.19-2.13s-.96-2.84-2.13-3.72c-1.17-.88-4.25-3.9-4.25-4.78s-.24-3.19-.53-3.19-1.3-.48-1.59-1.06c-.29-.58-1.54-2.12-2.13-2.12s-2.36-.72-2.66-1.59c-.29-.88-1.54-3.43-2.12-3.72s-2.36-2.74-2.66-4.78c-.29-2.05-1.54-7.68-2.12-7.97-.58-.29-2.12-2.02-2.12-3.19s-.48-4.49-1.06-4.78c-.58-.29-2.13-2.02-2.13-3.19s-.24-4.25-.53-4.25-1.06-.48-1.06-1.06-.24-2.13-.53-2.13-1.3-1.43-1.59-3.19c-.29-1.75-1.3-6.38-1.59-6.38s-1.3-2.39-1.59-5.31c-.29-2.92-1.54-10.86-2.13-11.16-.58-.29-1.89-2.5-1.59-4.25.29-1.75.82-6.38.53-6.38s-.94-1.54-.78-3.41c.15-1.88,3-5.57,5.06-4.85,2.06.72,7.89,6.9,8.47,7.2.58.29,2.12,1.54,2.12,2.12s.24,2.13.53,2.13,1.06.48,1.06,1.06.48,2.36,1.06,2.66c.58.29,2.12,1.54,2.12,2.13s.96,2.84,2.13,3.72c1.17.88,4.49,4.14,4.78,5.31.29,1.17,1.3,4.25,1.59,4.25s1.06.96,1.06,2.13.72,4.73,1.59,5.31c.88.58,3.43,3.32,3.72,4.78.29,1.46,1.54,5.55,2.13,5.84s2.6,2.5,3.19,4.25c.58,1.75,2.84,6.85,3.72,7.44.88.58,3.19,2.6,3.19,3.19s.24,2.12.53,2.12,1.06.48,1.06,1.06.24,2.12.53,2.12,1.06.48,1.06,1.06.24,2.13.53,2.13,1.06.48,1.06,1.06.72,2.84,1.59,3.72c.88.88,1.59,2.07,1.59,2.66s.96,2.84,2.12,3.72c1.17.88,4.25,3.67,4.25,4.25s.48,2.36,1.06,2.66c.58.29,2.13,1.54,2.13,2.12s.48,2.38,1.06,2.69c.58.31,3.66,2.75,5.53,2.9,1.88.15,6.67.56,7.3-.37.63-.93,2.56-5.88,1.25-9.29-1.31-3.41-7.67-11.58-8.25-11.87-.58-.29-2.36-2.02-2.66-3.19-.29-1.17-1.54-4.49-2.13-4.78s-2.36-1.78-2.66-2.66c-.29-.88-1.3-3.19-1.59-3.19s-1.06-.72-1.06-1.59-.48-3.43-1.06-3.72c-.58-.29-3.17-2.59-4.45-4.45-1.28-1.86-2.94-10.96-3.52-10.96s-3.22-2.61-4.55-5.8c-1.33-3.19-4.19-8.55-4.48-8.55s-1.06-.48-1.06-1.06-.72-2.6-1.59-3.19c-.88-.58-3.43-3.08-3.72-4.25-.29-1.17-1.78-4.73-2.66-5.31-.88-.58-3.43-3.08-3.72-4.25s-1.78-4.73-2.66-5.31c-.88-.58-5.84-7.04-9.09-13.06l-.47-.23-2.81-1.34c-1.09,1.61-3.17,2.7-4.63,2.4-1.46-.29-5.26-.75-5.2-.38.06.38-1.7,2.74-1.7,3.03s-.79.68-1.75.22c-.96-.46-4.38-3.78-4.09-5.53.29-1.75,1.3-6.38,1.59-6.38s.82-.72.53-1.59c-.29-.88-.82-3.19-.53-3.19s1.06-.72,1.06-1.59.48-3.43,1.06-3.72,1.77-1.42,1.33-1.86c-.44-.44-.8-1.04-.8-1.33s.24-1.06.53-1.06,1.06-.72,1.06-1.59.24-3.19.53-3.19,1.06-.72,1.06-1.59.48-3.43,1.06-3.72,2.12-1.54,2.12-2.13.48-2.36,1.06-2.66,2.36-2.26,2.66-3.72c.29-1.46,1.3-5.31,1.59-5.31s1.54-.72,2.12-1.59c.58-.88,4.23-1.98,6.81-.51,2.58,1.47,8.31,8.48,8.6,8.48s1.06.48,1.06,1.06.24,2.13.53,2.13,1.06.48,1.06,1.06.72,2.6,1.59,3.19c.88.58,3.19,2.6,3.19,3.19s1.2,3.08,2.66,4.25c1.46,1.17,5.31,5.21,5.31,6.38s.96,4.97,2.13,5.84c1.17.88,4.49,3.91,4.78,4.78.29.88,1.78,3.67,2.66,4.25.88.58,3.19,2.6,3.19,3.19s.72,2.6,1.59,3.19c.88.58,3.19,2.84,3.19,3.72s.48,3.43,1.06,3.72c.58.29,2.12,1.54,2.12,2.12s.72,2.6,1.59,3.19c.88.58,3.67,3.56,4.25,5.31.58,1.75,2.84,6.85,3.72,7.44.88.58,3.43,3.08,3.72,4.25.29,1.17,3.39,7.51,6.23,11.49,2.84,3.98,6.3,16.62,6.68,16.56.38-.06,2.74,1.7,3.03,1.7s1.3,1.44,1.59,3.19c.29,1.75,1.78,6.85,2.66,7.44.88.58,3.43,3.08,3.72,4.25.29,1.17,1.78,4.73,2.66,5.31.88.58,3.19,2.84,3.19,3.72s.24,3.19.53,3.19,1.06.48,1.06,1.06.49,2.41,1.1,2.75c.6.34,3.52,2.56,5.27,2.56s6.38-.96,6.38-2.12.48-4.49,1.06-4.78c.58-.29,2.12-1.54,2.12-2.13s.24-2.13.53-2.13,1.06-.48,1.06-1.06.72-2.6,1.59-3.19c.88-.58,3.19-2.36,3.19-2.66s.72-1.06,1.59-1.06,3.67-.96,4.25-2.12c.58-1.17,2.84-4.25,3.72-4.25s3.43-.48,3.72-1.06c.29-.58,2.5-2.6,4.25-3.19,1.75-.58,6.61-2.6,6.91-3.19.29-.58,2.02-2.13,3.19-2.13s4.73-.72,5.31-1.59c.58-.88,3.56-3.19,5.31-3.19s6.85-.72,7.44-1.59c.58-.88,3.56-3.19,5.31-3.19s6.38-.24,6.38-.53.48-1.06,1.06-1.06,2.13-.24,2.13-.53,2.87-1.3,6.38-1.59c3.51-.29,12.75-.82,12.75-.53s.24,1.06.53,1.06,1.06-.24,1.06-.53,2.39-.82,5.31-.53c2.92.29,10.63,1.3,10.63,1.59s.48,1.06,1.06,1.06,2.13.24,2.13.53.48,1.06,1.06,1.06,2.36.48,2.66,1.06c.29.58,2.02,2.12,3.19,2.12s4.49.48,4.78,1.06c.29.58,1.78,2.13,2.66,2.13s3.43.48,3.72,1.06c.29.58,1.76,1.73,2.6,1.24.85-.49,7.29,4.2,10.29,4.35,3,.15,9.37-2.58,9.95-3.46.58-.88,2.84-3.19,3.72-3.19s3.19-.24,3.19-.53.48-1.06,1.06-1.06,2.12-.24,2.12-.53,1.44-1.06,3.19-1.06,6.61-.48,6.91-1.06c.29-.58,2.02-2.36,3.19-2.66,1.17-.29,4.73-1.78,5.31-2.66.58-.88,4.28-2.83,6.91-2.39,2.63.44,5.02.32,5.31-.27.29-.58,5.75-2.54,11.47-3.05,5.73-.51,23.3.05,23.59.93.29.88,3.93,4.14,7.44,5.31,3.51,1.17,12.99,4.73,13.28,5.31.29.58,2.5,2.36,4.25,2.66,1.75.29,7.09,2.02,7.97,3.19.88,1.17,3.9,4.25,4.78,4.25s3.43.72,3.72,1.59c.29.88,2.48,4.28,4.2,5.62,1.73,1.34,6.18,5.38,5.89,7.13-.29,1.75-.56,6.53.06,6.72.62.19.23,2.85-.06,2.85s-1.06.48-1.06,1.06-.48,2.36-1.06,2.66c-.58.29-2.13,2.98-2.13,5.31s.31,8.45.69,8.39c.38-.06,4.13,1.38,6.13.98,1.99-.4,7.77-3.18,8.06-4.06.29-.88.6-3.36.03-3.57-.57-.21-.32-2.81-.03-2.81s.33-.7-.56-1.56c-.89-.86.99-5.3,2.15-5.88,1.17-.58,4.49-4.75,4.78-7.97.29-3.21,2.26-12.64,3.72-13.81,1.46-1.17,4.65-5,3.83-5.92-.82-.92,1.96-6.54,2.55-6.83.58-.29,2.12-1.3,2.12-1.59s.48-.82,1.06-.53c.58.29,2.6-.37,3.19-2.13.58-1.75,2.84-6.85,3.72-7.44.88-.58,3.43-3.08,3.72-4.25.29-1.17,2.02-4.73,3.19-5.31,1.17-.58,4.25-2.6,4.25-3.19s.48-2.36,1.06-2.66c.58-.29,1.49-1.97.71-3.08-.78-1.11,6.2-5.07,6.2-5.95s1.2-3.91,2.66-4.78c1.46-.88,5.31-3.67,5.31-4.25s.48-2.36,1.06-2.66,2.36-1.78,2.66-2.66c.29-.88,3.45-5.1,6.38-7.44,2.92-2.34,10.86-9.46,11.16-10.63.29-1.17,2.02-4.97,3.19-5.84,1.17-.88,4.25-3.67,4.25-4.25s.88-2.33,1.96-2.57c1.08-.25,5.37-4.34,6.54-4.34s4.25-.24,4.25-.53.89-.91,1.97-.73c1.08.19,2.58,17.72.4,26.02Z" fill="#fff" fill-rule="evenodd"/><path d="M559.34,167.32c.4-.73.49-1.33.2-1.33s-1.06-.72-1.06-1.59-.24-3.19-.53-3.19-1.06-.72-1.06-1.59-.24-3.19-.53-3.19-1.3-1.2-1.59-2.66c-.29-1.46-1.3-5.31-1.59-5.31s-1.06-.48-1.06-1.06-.87-2.32-1.92-2.56c-1.06-.24-1.03-2.75-.73-2.75s1.06-.24,1.06-.53-.48-1.06-1.06-1.06-2.4-.72-2.73-1.59c-.33-.88-5.56-1.62-9.19.29l-2.95,2.9-8.14,7.97c-9.55,8.76-17.84,15.93-18.43,15.93s-3.58,1.52-5.35,3.38c-1.78,1.86-7.93,8.01-7.93,8.31s-.48,1.3-1.06,1.59c-.58.29-2.13,1.54-2.13,2.13s-.72,2.6-1.59,3.19c-.88.58-4.62,4.28-6.38,6.91-1.75,2.63-6.85,9.56-7.44,9.56s-3.34,2.58-4.81,5.73c-1.48,3.15-7.35,10.45-7.94,10.74s-2.36,2.02-2.66,3.19c-.29,1.17-2.26,5.21-3.72,6.38-1.46,1.17-5.55,5.21-5.84,6.38-.29,1.17-1.78,4.73-2.66,5.31-.88.58-3.19,2.6-3.19,3.19s-.24,2.13-.53,2.13-1.3.96-1.59,2.13c-.29,1.17-1.3,4.25-1.59,4.25s-1.06.96-1.06,2.12-.24,4.25-.53,4.25-1.3.72-1.59,1.59c-.29.88-2.36,2.55-3.94,1.76-1.58-.78-7.16-6.78-7.75-7.08s-2.36-1.54-2.66-2.13c-.29-.58-2.02-2.12-3.19-2.12s-4.25-.24-4.25-.53-.72-1.3-1.59-1.59c-.88-.29-3.43-1.54-3.72-2.13s-2.02-2.12-3.19-2.12-5.21-1.2-6.38-2.66c-1.17-1.46-4.49-5.31-4.78-5.31s-.82-.48-.53-1.06.82-2.12.53-2.12-.82-2.63-.53-5.84c.29-3.21.82-11.69.53-11.69s-.82-1.43-.53-3.19c.29-1.75.82-6.38.53-6.38s-.82-3.59-.53-7.97,1.3-15.94,1.59-15.94.82-1.91.53-4.25c-.29-2.34-.82-8.5-.53-8.5s1.06-.72,1.06-1.59.24-3.19.53-3.19,1.06-1.43,1.06-3.19.24-6.38.53-6.38,1.06-.72,1.06-1.59.24-3.19.53-3.19,1.3-1.67,1.59-3.72c.29-2.05,1.54-7.68,2.13-7.97.58-.29,2.36-3.21,2.66-5.84.29-2.63,1.3-9.56,1.59-9.56s1.06-.72,1.06-1.59.24-3.19.53-3.19,1.06-.48,1.06-1.06.24-2.12.53-2.12,1.06-.96,1.06-2.13,1.44-5.45,3.19-6.91c1.75-1.46,6.61-6.51,6.91-7.97.29-1.46,1.78-5.79,2.66-6.38.88-.58,3.19-2.6,3.19-3.19s.72-2.6,1.59-3.19c.88-.58,3.19-2.6,3.19-3.19s1.67-3.56,3.72-5.31c2.05-1.75,7.44-6.85,7.44-7.44s.72-2.6,1.59-3.19c.88-.58,3.19-2.36,3.19-2.66s.48-1.06,1.06-1.06,2.6-.72,3.19-1.59c.58-.88,2.36-3.19,2.66-3.19s1.3-.72,1.59-1.59c.29-.88,1.54-3.19,2.13-3.19s2.36-.48,2.66-1.06c.29-.58,1.54-2.12,2.13-2.12s3.32-1.43,4.78-3.19c1.46-1.75,6.27-6.38,7.44-6.38s4.49-.48,4.78-1.06c.29-.58,2.5-2.6,4.25-3.19,1.75-.58,7.67-4.03,9.25-6.36,1.58-2.33,4.22-5.33,5.09-5.33s3.43-2.15,3.72-4.78c.29-2.63-.85-9.8-3.19-10.09-2.34-.29-8.98-1.78-9.56-2.66-.58-.88-3.08-3.19-4.25-3.19s-4.25-.24-4.25-.53-1.67-1.06-3.72-1.06-7.44.24-7.44.53-1.67,1.06-3.72,1.06-7.44-.24-7.44-.53-.96-.82-2.13-.53c-1.17.29-4.31.63-4.39.1-.08-.53-3.04-.4-3.04-.1s-1.36.37-3.02-.47c-1.66-.84-6.78.42-7.07,1-.29.58-2.02,2.12-3.19,2.12s-4.49.48-4.78,1.06-4.89,2.6-9.56,3.19c-4.68.58-17.24,2.6-17.53,3.19-.29.58-1.54,2.13-2.12,2.13s-2.36.48-2.66,1.06c-.29.58-1.54,2.12-2.13,2.12s-2.36.48-2.66,1.06c-.29.58-1.78,2.13-2.66,2.13s-3.43.48-3.72,1.06c-.29.58-1.3,2.12-1.59,2.12s-1.78,1.2-2.66,2.66c-.88,1.46-3.67,5.31-4.25,5.31s-2.6.72-3.19,1.59c-.58.88-3.56,4.38-5.31,5.84-1.75,1.46-6.61,6.03-6.91,6.91-.29.88-1.54,3.19-2.12,3.19s-2.36.48-2.66,1.06c-.29.58-1.78,2.6-2.66,3.19-.88.58-3.19,2.6-3.19,3.19s-.48,2.36-1.06,2.66c-.58.29-2.36,2.02-2.66,3.19-.29,1.17-2.26,5.21-3.72,6.38-1.46,1.17-5.31,4.49-5.31,4.78s-.48,1.3-1.06,1.59c-.58.29-2.12,1.54-2.12,2.13s-.72,2.6-1.59,3.19c-.88.58-3.19,2.6-3.19,3.19s-.24,2.13-.53,2.13-1.3.96-1.59,2.13c-.29,1.17-1.3,4.25-1.59,4.25s-1.06.96-1.06,2.12-.24,4.25-.53,4.25-1.06.48-1.06,1.06-.24,2.13-.53,2.13-.82.48-.53,1.06.82,2.12.53,2.12-1.3.96-1.59,2.13c-.29,1.17-1.3,4.25-1.59,4.25s-1.06,1.43-1.06,3.19-.96,6.85-2.13,7.44c-1.17.58-3.9,2.82-3.46,3.66.43.85.57,3.57.28,5.9-.29,2.34-1.3,8.5-1.59,8.5s-1.3.96-1.59,2.13c-.29,1.17-1.3,4.25-1.59,4.25s-.82,1.2-.53,2.66.74,5.17.35,4.99c-.39-.18-.64,1.92-.35,1.92s-.26,1.72-1.87,3.83l-.26.95-.11.4c.94,8.55,1.46,15.54,1.17,15.54s-.82,1.67-.53,3.72c.29,2.05.6,7.56.04,7.71-.56.15-.04,3.19.61,3.53.65.34-.13,4.49-.79,4.89-.66.4-.16,4.06.13,4.06s.52,5.79-.15,12.86c-.67,7.07,4.45,19.33,4.51,19.7.06.38-1.7,2.74-1.7,3.03s-1.67,1.3-3.72,1.59c-2.05.29-7.92,1.78-8.5,2.66-.58.88-3.32,3.19-4.78,3.19s-5.31.24-5.31.53-1.44,1.54-3.19,2.12c-1.75.58-6.38,1.89-6.38,1.59s-1.2-1.3-2.66-1.59c-1.46-.29-5.31-1.3-5.31-1.59s-.48-1.06-1.06-1.06-2.13-.24-2.13-.53-.72-1.54-1.59-2.12c-.88-.58-3.43-3.08-3.72-4.25-.29-1.17-1.3-4.25-1.59-4.25s-.82-2.63-.53-5.84.82-11.69.53-11.69-1.06-.72-1.06-1.59-.24-3.19-.53-3.19-.43-1.24.35-2.76c.77-1.52-.05-6.8-.35-6.8s-1.3-2.39-1.59-5.31c-.29-2.92-1.3-10.63-1.59-10.63s-1.06-.96-1.06-2.12-.24-4.25-.53-4.25-1.06-.96-1.06-2.13-.24-4.25-.53-4.25-1.06-.48-1.06-1.06-.24-2.12-.53-2.12-1.06-.96-1.06-2.13-.24-4.25-.53-4.25-1.06-.24-1.06-.53.24-1.06.53-1.06,1.06-.24,1.06-.53-.48-1.3-1.06-1.59c-.58-.29-2.12-1.78-2.12-2.66s-.24-3.19-.53-3.19-1.06-1.2-1.06-2.66-.48-5.55-1.06-5.84c-.58-.29-2.12-2.5-2.12-4.25s-.24-6.38-.53-6.38-1.06-.48-1.06-1.06-.48-2.36-1.06-2.66c-.58-.29-2.13-2.26-2.13-3.72s-.48-5.55-1.06-5.84c-.58-.29-2.12-1.54-2.12-2.12s-.48-2.36-1.06-2.66c-.58-.29-2.13-1.54-2.13-2.12s-.24-2.13-.53-2.13-1.66-.71-2.39-1.58c-.73-.87-2.17-6.34-2.54-6.28-.38.06-2.74-1.7-3.03-1.7s-.82-.72-.53-1.59c.29-.88.58-3.43,0-3.72-.58-.29-2.13-1.78-2.13-2.66s-1.43-4.38-3.19-5.84c-1.75-1.46-6.38-6.03-6.38-6.91s-1.43-4.38-3.19-5.84c-1.75-1.46-6.61-6.03-6.91-6.91-.29-.88-1.54-3.19-2.12-3.19s-2.36-.72-2.66-1.59c-.29-.88-1.54-3.43-2.12-3.72-.58-.29-3.32-2.5-4.78-4.25-1.46-1.75-6.03-6.38-6.91-6.38s-3.53-.52-3.96-1.16c-.42-.64-2.42-2.51-2.42-3.09s-1.24-2.16-2.76-2.21c-1.52-.05-5.21-1.75-5.21-2.04s-.96-1.06-2.12-1.06-4.25-.24-4.25-.53-.96-1.3-2.13-1.59c-1.17-.29-4.97-2.02-5.84-3.19-.88-1.17-5.1-4.49-7.44-4.78-2.34-.29-8.5-1.3-8.5-1.59s-.48-1.06-1.06-1.06-2.36-.48-2.66-1.06c-.29-.58-2.98-2.13-5.31-2.13s-8.5-.24-8.5-.53-.72-1.06-1.59-1.06-3.19-.24-3.19-.53-3.35-1.06-7.44-1.06-14.88-.24-14.88-.53-.61-.73-1.36-.32c-.75.41-3.02.85-4.48.85s-5.31.24-5.31.53-.68.32-1.51-.58c-.83-.9-5.34,1-5.93,2.17-.58,1.17-2.84,3.89-3.72,3.45-.88-.44-1.83-.8-2.12-.8s-1.06.24-1.06.53-.96,1.06-2.12,1.06-5.69,1.67-7.44,3.72c-1.75,2.05-7.57,7.68-9.03,7.97-1.46.29-5.55,1.54-5.84,2.13-.29.58-1.54,2.12-2.13,2.12s-2.13.24-2.13.53-.48,1.06-1.06,1.06-2.12.24-2.12.53-.72,1.06-1.59,1.06-3.19.24-3.19.53-.72,1.3-1.59,1.59c-.88.29-3.63,2.71-4.17,4.72-.54,2.01,1.21,6.92,1.49,8.17.28,1.24,6.29,6.12,10.71,8.56l4.72-1.26.13-.03c2.56-.86,4.65-1.32,4.65-1.03s.72.7,1.59.27,3.98-.56,6.91-.27c2.92.29,10.63,1.3,10.63,1.59s.24,1.06.53,1.06,1.06-.24,1.06-.53,1.91-.82,4.25-.53c2.34.29,8.5,1.3,8.5,1.59s.72,1.06,1.59,1.06,3.43.48,3.72,1.06c.29.58,1.78,2.12,2.66,2.12s3.43.48,3.72,1.06,1.54,2.12,2.13,2.12,2.36.48,2.66,1.06c.29.58,1.78,2.12,2.66,2.12s3.9.96,4.78,2.13c.88,1.17,3.91,4.25,4.78,4.25s3.67.72,4.25,1.59c.58.88,2.6,2.95,3.19,2.66s2.6-.34,3.19.53c.58.88,2.84,3.19,3.72,3.19s3.67.72,4.25,1.59c.58.88,2.36,3.19,2.66,3.19s1.06.48,1.06,1.06.48,2.36,1.06,2.66c.58.29,2.36,1.78,2.66,2.66.29.88,2.02,3.19,3.19,3.19s4.25.24,4.25.53.24,1.06.53,1.06,1.06,1.2,1.06,2.66.24,5.31.53,5.31,1.35.61,1.7,1.35c.35.74,1.41,5.15,1.96,5.29.55.15,4.02,4.51,4.31,4.51s1.06.48,1.06,1.06.96,2.6,2.13,3.19c1.17.58,4.25,2.6,4.25,3.19s.24,2.12.53,2.12,1.3,1.91,1.59,4.25c.29,2.34,1.3,8.5,1.59,8.5s1.06.48,1.06,1.06.24,2.13.53,2.13,1.06.72,1.06,1.59.48,3.43,1.06,3.72c.58.29,2.12,2.26,2.12,3.72s.72,5.79,1.59,6.38c.88.58,2.95,2.84,2.66,3.72-.29.88.77,11.3,3.02,21.22l2.3,7.47,1.47,4.77c-1.68,14.91-3.23,28.58-3.43,30.37-.2,1.79-3.06,6.31-3.35,6.31s-1.3.72-1.59,1.59c-.29.88-2.02,3.43-3.19,3.72-1.17.29-4.25,1.3-4.25,1.59s-.72,1.06-1.59,1.06-3.43.48-3.72,1.06c-.29.58-1.54,2.13-2.13,2.13s-2.36.48-2.66,1.06-1.54,2.12-2.12,2.12-2.84.96-3.72,2.13c-.88,1.17-3.67,4.25-4.25,4.25s-2.84.96-3.72,2.12c-.88,1.17-5.36,3.59-8,2.79-2.65-.8-7.94-6.98-7.94-7.57s-.96-2.6-2.12-3.19c-1.17-.58-4.25-4.04-4.25-6.38s-.24-8.5-.53-8.5-1.3-.96-1.59-2.12c-.29-1.17-1.78-4.73-2.66-5.31-.88-.58-3.43-3.08-3.72-4.25-.29-1.17-1.3-4.25-1.59-4.25s-.82-.72-.53-1.59c.29-.88.58-3.19,0-3.19s-2.36-.72-2.66-1.59c-.29-.88-2.62-4.16-4.52-5.35-1.9-1.19-2.68-4.21-2.38-4.21s1.06-.72,1.06-1.59-.48-3.19-1.06-3.19-2.84-1.43-3.72-3.19c-.88-1.75-3.91-6.61-4.78-6.91-.88-.29-3.43-2.02-3.72-3.19-.29-1.17-1.78-4.73-2.66-5.31-.88-.58-3.19-2.6-3.19-3.19s-.72-2.6-1.59-3.19c-.88-.58-3.19-2.36-3.19-2.66s-.72-1.3-1.59-1.59c-.88-.29-3.19-1.78-3.19-2.66s-.24-3.19-.53-3.19-1.06-.48-1.06-1.06-.96-2.84-2.13-3.72c-1.17-.88-4.49-4.38-4.78-5.84-.29-1.46-1.54-5.55-2.13-5.84-.58-.29-2.12-1.54-2.12-2.13s-.24-2.12-.53-2.12-1.58-.63-2.22-1.4c-.64-.77-2.51-4.98-3.09-4.98s-2.36-.72-2.66-1.59c-.29-.88-2.02-3.91-3.19-4.78-1.17-.88-4.25-3.43-4.25-3.72s-1.2-1.06-2.66-1.06-5.31-.24-5.31-.53-.87-.93-1.94-.77c-1.06.16-4.68,2.9-4.97,2.9s-1.06.48-1.06,1.06-.96,2.6-2.12,3.19c-1.17.58-4.73,3.56-5.31,5.31-.58,1.75-2.84,6.85-3.72,7.44-.88.58-3.43,3.08-3.72,4.25-.29,1.17-1.78,4.73-2.66,5.31-.88.58-3.43,3.32-3.72,4.78-.29,1.46-1.3,5.31-1.59,5.31s-1.3,3.11-1.59,6.91c-.29,3.8-1.3,13.81-1.59,13.81s-.66.48-.17,1.07c.49.59-1.13,5.31-1.42,5.31s-1.06,1.2-1.06,2.66.24,5.31.53,5.31.82.48.53,1.06c-.29.58-.82,2.12-.53,2.12s1.06.24,1.06.53-.36,1.42-.8,1.86c-.44.44-1.35.84-2.02.89-.68.05-.13,4.69.16,4.69s.22,1.75-.82,3.88c-1.03,2.13.76,9.11,1.35,9.4.58.29,2.13,1.78,2.13,2.66s.24,3.19.53,3.19,1.3,2.39,1.59,5.31c.29,2.92.54,10.77-.11,10.95-.64.18-.18,2.86.11,2.86s1.54,1.43,2.12,3.19c.58,1.75,2.6,6.61,3.19,6.91.58.29,2.36,2.26,2.66,3.72.29,1.46,1.3,5.31,1.59,5.31s1.06.48,1.06,1.06.24,2.13.53,2.13,1.3.96,1.59,2.12c.29,1.17,1.3,4.25,1.59,4.25s3.38,5.96,6.21,13.25c2.83,7.29,17.17,20.7,17.17,21.29s1.74,3.61,3.86,5.43c2.12,1.82,8.89,6.74,8.89,7.32s2.43,3.47,5.4,5.12c2.97,1.65,15.27,3.44,15.21,3.5-.06.07,1.46,3.38,1.17,5.72-.29,2.34-.08,8.75,1.11,9.05l-.58,2.64-.48,2.2c-.61-.33-.87-.61-.58-.61s1.06,5.02,1.06,11.16.24,22.31.53,22.31,1.06,1.67,1.06,3.72.24,7.44.53,7.44,1.06,2.63,1.06,5.84.24,11.69.53,11.69,1.06.72,1.06,1.59.24,3.19.53,3.19,1.06,1.43,1.06,3.19.24,6.38.53,6.38.62,1.01.07,2.25c-.55,1.24-.36,4.13-.07,4.13s1.06.72,1.06,1.59.24,3.19.53,3.19,1.06.96,1.06,2.12.72,4.73,1.59,5.31c.88.58,2.95,2.6,2.66,3.19-.29.58-.82,2.13-.53,2.13s1.06.72,1.06,1.59.24,3.19.53,3.19,1.06,1.2,1.06,2.66.48,5.55,1.06,5.84,2.13,1.78,2.13,2.66.24,3.19.53,3.19,1.06.48,1.06,1.06.24,2.12.53,2.12,1.78,3.83,2.66,8.5c.88,4.67,3.43,17,3.72,17s1.54,1.44,2.12,3.19c.58,1.75,2.36,6.38,2.66,6.38s1.06.48,1.06,1.06.24,2.13.53,2.13,1.06.48,1.06,1.06.24,2.12.53,2.12,1.06.48,1.06,1.06.24,2.12.53,2.12,1.3,1.44,1.59,3.19c.29,1.75,1.3,6.38,1.59,6.38s1.06.48,1.06,1.06.24,2.13.53,2.13,1.3.96,1.59,2.12c.29,1.17,1.3,4.25,1.59,4.25s1.06.96,1.06,2.13.24,4.25.53,4.25,1.06.48,1.06,1.06.24,2.13.53,2.13,1.06.72,1.06,1.59.24,3.19.53,3.19,1.06,1.67,1.06,3.72.24,7.44.53,7.44,1.06.72,1.06,1.59.24,3.19.53,3.19,1.06,1.2,1.06,2.66.24,5.31.53,5.31,1.06,1.43,1.06,3.19-.24,6.38-.53,6.38-.81-.14-.49-.31c.31-.17,1.03,3.57,1.03,5.62s.24,7.44.53,7.44.68,2.03.21,4.51c-.47,2.48-.5,5.05-.21,5.05s1.06.96,1.06,2.12.72,4.73,1.59,5.31c.88.58,3.43,4.28,3.72,6.91.29,2.63,1.3,9.56,1.59,9.56s1.06.72,1.06,1.59.24,3.19.53,3.19,1.54,1.43,2.12,3.19c.58,1.75,2.36,6.38,2.66,6.38s1.06,1.2,1.06,2.66.24,5.31.53,5.31,1.3.96,1.59,2.12c.29,1.17,1.3,4.25,1.59,4.25s1.3,1.67,1.59,3.72,1.3,7.44,1.59,7.44,1.3.96,1.59,2.12c.29,1.17,1.3,4.25,1.59,4.25s1.06.96,1.06,2.12.48,4.49,1.06,4.78c.58.29,2.13,1.78,2.13,2.66s.24,3.19.53,3.19,1.3,1.2,1.59,2.66c.29,1.46,1.54,5.55,2.13,5.84.58.29,2.12,1.54,2.12,2.13s.24,2.12.53,2.12,1.54,1.43,2.13,3.19c.58,1.75,2.84,6.85,3.72,7.44.88.58,3.43,3.08,3.72,4.25.29,1.17,1.3,4.25,1.59,4.25s.82,1.2.53,2.66c-.29,1.46.03,5.45,1.37,5.61,1.34.17,3.94,1.53,3.94,1.82s.48,1.3,1.06,1.59,2.12,2.02,2.12,3.19.72,4.49,1.59,4.78c.88.29,4.52,2.69,6.14,4.67,1.63,1.99,4.14,9.38,5.01,9.67.88.29,3.43,2.5,3.72,4.25.29,1.75,1.54,6.61,2.12,6.91.58.29,2.13,2.26,2.13,3.72s.24,5.31.53,5.31,1.54,2.87,2.12,6.38c.58,3.51,1.77,13.11,1.33,13.55-.44.44-.32,1.04.27,1.33.58.29,2.36,2.02,2.66,3.19.29,1.17,1.3,4.25,1.59,4.25s1.06,1.2,1.06,2.66.48,5.55,1.06,5.84c.58.29,2.12,2.02,2.12,3.19s.48,4.49,1.06,4.78c.58.29,2.13,1.78,2.13,2.66s.72,3.67,1.59,4.25c.88.58,3.23,3.94,3.28,6.16.05,2.22,1.74,8.72,2.03,8.72s1.78,8.61,2.66,19.13c.88,10.52,2.95,38.25,2.66,38.25s-1.06.48-1.06,1.06-.24,2.12-.53,2.12-1.06,2.63-1.06,5.84-.24,11.69-.53,11.69-1.06,1.2-1.06,2.66-.24,5.31-.53,5.31-.82.72-.53,1.59c.29.88,1.01,3.14.94,3.08-.07-.06.46,1.73,2.82,1.77,2.36.04,8.85,2.74,11.27,2.29,2.42-.46,6.76-6.27,6.76-7.14s1.67-4.38,3.72-5.84c2.05-1.46,7.44-5.79,7.44-6.38s.24-2.12.53-2.12,1.06-.48,1.06-1.06.24-2.13.53-2.13,1.06-.72,1.06-1.59.96-3.91,2.13-4.78c1.17-.88,4.49-4.14,4.78-5.31.29-1.17,1.54-4.49,2.12-4.78.58-.29,1.29-3.48.28-6.42-1.02-2.95,5.04-10.82,5.04-11.11s.24-1.06.53-1.06,1.89.78,2.9,1.73c1.01.95,3.19,6.24,3.48,6.24s1.06,1.67,1.06,3.72-.43,7.29-.96,7.12c-.53-.18-.4,1.91-.11,1.91s1.06,1.91,1.06,4.25.24,8.5.53,8.5,1.06,3.11,1.06,6.91-.24,13.81-.53,13.81-.82,1.2-.53,2.66c.29,1.46,2.76,6.01,4.83,6.87,2.07.85,7.1,4.67,8.7,4.49,1.6-.18,5.63-2.75,6.32-2.63s.1-1.83-.19-1.83-1.06-.24-1.06-.53.61-1.64,1.36-2.34c.75-.7,2.07-1.91,2.36-1.91s1.3-1.2,1.59-2.66c.29-1.46,2.26-6.03,3.72-6.91,1.46-.88,5.31-3.67,5.31-4.25s.48-2.36,1.06-2.66c.58-.29,2.13-2.02,2.13-3.19s.48-4.49,1.06-4.78c.58-.29,1.89-1.78,1.59-2.66-.29-.88-.82-3.19-.53-3.19s1.06-.48,1.06-1.06.24-2.13.53-2.13.41-.67-.4-1.49c-.8-.82.34-5.13.93-5.42.58-.29,1.89-1.54,1.59-2.12-.29-.58-1.01-2.08-.94-2.02.07.06,2.43-1.7,3.59-1.7s4.25.24,4.25.53.67,1.64,1.49,2.34c.82.7,6.48,1.19,6.48.32s.48-3.43,1.06-3.72c.58-.29,1.89-2.26,1.59-3.72-.29-1.46-.58-5.55,0-5.84s2.12-2.26,2.12-3.72.24-5.31.53-5.31,1.06-.48,1.06-1.06.24-2.12.53-2.12.82-.96.53-2.13c-.29-1.17-.56-4.39.05-4.56.61-.17.24-2.87-.05-2.87s-1.06-.48-1.06-1.06-.24-2.12-.53-2.12-.44-.6.31-1.33c.76-.73-.02-5.05-.31-5.05s-1.3-.72-1.59-1.59c-.29-.88-.82-3.19-.53-3.19s1.06-.72,1.06-1.59.24-3.19.53-3.19.38-1.27-.45-2.81l-.08-.38-1.11-5.27c1.49-4.11,2.47-7.48,2.18-7.48s-1.06-.96-1.06-2.12-.24-4.25-.53-4.25-.82-1.2-.53-2.66c.29-1.46.38-7.38-.45-9.9-.83-2.52.16-9.76.45-9.76s1.06-.96,1.06-2.12-.24-4.25-.53-4.25-1.06-.96-1.06-2.13-.24-4.25-.53-4.25-1.06-1.43-1.06-3.19.24-6.38.53-6.38.39-.63-.43-1.41c-.82-.77.38-5.21.96-5.5.58-.29,1.67-2.54,1.12-4.34-.55-1.81-.11-4.93.47-5.22s1.9-2.08,1.63-3.33c-.27-1.24,0-5.61,1.36-7.44,1.35-1.83,5.99-5.99,6.58-5.7.58.29,2.12.35,2.12-.53s.17-3.08.37-2.94c.21.14,1.7-1.84,2.28-1.84s2.7-.48,3.4-1.07c.7-.59,3.51-3.95,3.51-4.24s-.46-2.48-1.02-4.2c-.56-1.73,4.44-12.8,4.74-12.8s1.06-.48,1.06-1.06.48-2.36,1.06-2.66c.58-.29,2.12-1.78,2.12-2.66s.24-3.19.53-3.19,1.06-.48,1.06-1.06.24-2.12.53-2.12,1.06-.48,1.06-1.06.72-2.6,1.59-3.19c.88-.58,3.19-2.6,3.19-3.19s.24-2.13.53-2.13.82-.48.53-1.06c-.29-.58-.34-2.36.53-2.66.88-.29,2.66-1.91,2.02-2.95-.64-1.04-.19-4.49.11-4.49s.82-.48.53-1.06-.7-2.48-.27-2.92c.44-.44,1.04-.8,1.33-.8s.82-.72.53-1.59c-.29-.88-.34-3.43.53-3.72.88-.29,3.19-1.54,3.19-2.13s.48-2.36,1.06-2.66c.58-.29,1.77-1.76,1.33-2.62-.44-.86-.56-2.11-.27-2.69.29-.58.82-2.12.53-2.12s-1.06-.24-1.06-.53.24-1.06.53-1.06,1.54-1.43,2.13-3.19c.58-1.75,2.6-6.61,3.19-6.91s2.13-2.98,2.13-5.31.24-8.5.53-8.5,1.06-.48,1.06-1.06.72-2.6,1.59-3.19c.88-.58,3.91-4.28,4.78-6.91.88-2.63,3.9-10.04,4.78-10.63.88-.58,3.43-3.08,3.72-4.25.29-1.17,1.3-4.25,1.59-4.25s1.54-.72,2.12-1.59c.58-.88,2.36-3.19,2.66-3.19s.58-1.2,0-2.66c-.58-1.46-1.41-5.55-.53-5.84.88-.29,3.96-2.46,4.9-4.17.94-1.71,4.42-8.53,4.13-9.11-.29-.58-.58-2.36,0-2.66.58-.29,2.12-2.26,2.12-3.72s.48-5.55,1.06-5.84,2.13-1.78,2.13-2.66.24-3.19.53-3.19,1.06-.96,1.06-2.13.48-4.49,1.06-4.78c.58-.29,2.13-2.26,2.13-3.72s.24-5.31.53-5.31,1.3-.96,1.59-2.12c.29-1.17,1.78-4.73,2.66-5.31.88-.58,2.83-2.48,2.39-2.92-.44-.44-.8-1.04-.8-1.33s.24-1.06.53-1.06,1.06-.96,1.06-2.12.24-4.25.53-4.25,1.3-.72,1.59-1.59c.29-.88,1.54-3.43,2.13-3.72.58-.29,1.75-3.5,1.29-6.48-.46-2.98-.52-5.74-.23-5.74s1.3-1.43,1.59-3.19c.29-1.75,1.54-6.61,2.13-6.91.58-.29,2.36-2.5,2.66-4.25s1.78-6.85,2.66-7.44c.88-.58,3.19-3.32,3.19-4.78s.72-5.79,1.59-6.38c.88-.58,3.19-2.6,3.19-3.19s.24-2.13.53-2.13,1.3-1.67,1.59-3.72c.29-2.05,1.3-7.44,1.59-7.44s1.06-1.67,1.06-3.72.24-7.44.53-7.44,1.3-.96,1.59-2.13,1.54-4.49,2.13-4.78,1.89-1.54,1.59-2.12-.82-2.13-.53-2.13,1.3-1.43,1.59-3.19c.29-1.75.34-7.39-.54-8.62-.88-1.23.97-6.44,2.14-7.32,1.17-.88,3.39-3.93,2.33-4.84-1.06-.91-1.03-4.72-.73-4.72s1.3-1.2,1.59-2.66c.29-1.46,1.54-5.55,2.13-5.84.58-.29,2.12-2.02,2.12-3.19s.24-4.25.53-4.25,1.06-.48,1.06-1.06.24-2.12.53-2.12,1.06-.96,1.06-2.13.24-4.25.53-4.25,1.06-.24,1.06-.53-.55-1.21-1.22-1.4c-.67-.18-.13-2.86.16-2.86s1.3-.96,1.59-2.13c.29-1.17,1.3-4.25,1.59-4.25s1.06-1.67,1.06-3.72.24-7.44.53-7.44,1.3-1.43,1.59-3.19c.29-1.75,1.3-6.38,1.59-6.38s1.06-.48,1.06-1.06.24-2.13.53-2.13.68-1.99.2-4.43c-.47-2.44-.5-5.13-.2-5.13s1.06-1.44,1.06-3.19-.52-6.47-1.16-6.59c-.64-.12-.2-2.98.09-2.98s1.06-.48,1.06-1.06.24-2.12.53-2.12.58-1.91,0-4.25c-.58-2.34-1.89-8.5-1.59-8.5s1.06-.48,1.06-1.06.24-2.13.53-2.13.7-.72.27-1.59c-.44-.88-.44-2.31,0-3.19.44-.88.44-2.31,0-3.19-.44-.88-.56-2.31-.27-3.19.29-.88.61-3.05.05-2.88-.55.17-.35-1.9-.05-1.9s1.06-1.91,1.06-4.25.24-8.5.53-8.5,1.06-.48,1.06-1.06.96-2.6,2.12-3.19c1.17-.58,4.49-3.08,4.78-4.25.29-1.17,1.54-4.49,2.12-4.78.58-.29,2.13-2.26,2.13-3.72s.24-5.31.53-5.31,1.06-.48,1.06-1.06.48-2.37,1.06-2.66c.58-.29,2.13-1.54,2.13-2.12s.24-2.13.53-2.13,1.3-.72,1.59-1.59c.29-.88,1.54-3.19,2.13-3.19s2.93-2.19,3.91-4.86,1.16-7.89.87-7.89-.58-1.43,0-3.19c.58-1.75,2.36-6.38,2.66-6.38s-.36-1.39-2.1-3.08c0,0,3.17-5.61,3.17-6.48s.24-3.19.53-3.19,1.06-1.2,1.06-2.66.48-5.55,1.06-5.84c.58-.29,2.36-4.89,2.66-9.56.29-4.68,1.3-17,1.59-17s1.06-1.2,1.06-2.66.46-6.43.86-7.17ZM430.43,24.13c.29,0,1.29-.2,2.21-.43.93-.24,7.88-2.99,7.88-3.28s.72-1.06,1.59-1.06,3.43-.48,3.72-1.06c.29-.58,4.61-2.18,8.95-2.26,4.34-.07,12.53,2.93,12.16,4.4-.37,1.47-4.11,5.53-4.11,5.82s-.96,1.06-2.13,1.06-4.49.48-4.78,1.06c-.29.58-2.22,1.52-3.63.78-1.41-.74-8.27,4.5-9.81,4.45-1.55-.04-5.15-1.75-5.15-2.05s-.72-1.06-1.59-1.06-4.03-1.01-5.06-2.24c-1.03-1.23-.55-4.13-.26-4.13ZM386.42,51.97c1.71-2.17,4.01-5.51,5.12-7.43,1.11-1.92,7.5-4.79,7.44-5.16-.06-.38,1.7-2.74,1.7-3.03s.96-1.06,2.13-1.06,4.25-.24,4.25-.53,1.16-1.06,2.57-1.06,6.76,7.19,10.37,10.14c3.61,2.95,9.28,10.5,9.17,10.41s-1.39,1.99-1.39,2.28-.48,1.3-1.06,1.59-2.12,2.02-2.12,3.19-.72,4.49-1.59,4.78c-.88.29-3.43,1.78-3.72,2.66-.29.88-1.3,3.19-1.59,3.19s-2.26,1.43-3.72,3.19c-1.46,1.75-7.78,5.77-10.81,5.02-3.02-.75-8.61-5.5-8.32-6.08.29-.58.11-2.36-1.06-2.66-1.17-.29-4.49-1.54-4.78-2.13-.29-.58-2.4-2.83-4.03-3.68-1.63-.86-5.06-4.77-5.13-4.71-.07.06,4.88-6.76,6.59-8.92ZM353.19,92.61c.69-.85,1.5-1.54,1.8-1.54s1.06-.72,1.06-1.59.48-3.43,1.06-3.72c.58-.29,2.13-1.54,2.13-2.12s.24-2.13.53-2.13,2.02-1.2,3.19-2.66c1.17-1.46,5.47-5.17,6.96-5,1.49.17,5.26,1.76,5.26,2.34s1.13,2.7,2.52,3.4c1.38.7,5.45,3.75,5.45,4.04s.72,1.06,1.59,1.06,3.43.72,3.72,1.59c.29.88,2.89,4.44,5.12,5.96,2.23,1.53,4.88,5.46,4.13,7.72-.76,2.27-3.64,8.63-3.93,8.63s-1.06.24-1.06.53-.72,1.06-1.59,1.06-3.19.24-3.19.53-1.25,1.04-2.78,1.01c-1.53-.03-5.19-1.78-5.19-2.07s-.72-1.06-1.59-1.06-3.67-.72-4.25-1.59c-.58-.88-3.8-3.19-5.84-3.19s-7.44-.24-7.44-.53-.72-1.06-1.59-1.06-3.19-.24-3.19-.53-.72-1.3-1.59-1.59c-.88-.29-1.96-6.65-1.26-7.49ZM334.79,139.42c.29-2.05,1.01-3.96,1.59-4.25s2.36-3.22,2.66-5.84c.29-2.63,2.14-11.04,3.46-12.85,1.32-1.81,5.41-6.04,7.17-5.75,1.75.29,6.61,1.54,6.91,2.12.29.58,2.02,2.13,3.19,2.13s4.49.48,4.78,1.06c.29.58,2.02,2.12,3.19,2.12s4.25.24,4.25.53.48,1.06,1.06,1.06,2.13.24,2.13.53.48,1.06,1.06,1.06,2.36.48,2.66,1.06c.29.58,1.78,2.13,2.66,2.13s3.19.24,3.19.53.72,1.54,1.59,2.13c.88.58,1.41,6.33-.75,11.47-2.17,5.14-2.67,16.16-2.97,16.16s-1.06.24-1.06.53-1.23,1-2.74.93c-1.51-.07-5.23-1.7-5.23-2s-.24-1.06-.53-1.06-1.06.24-1.06.53-.72.82-1.59.53c-.88-.29-3.04-.74-2.86-.36.18.39-1.92.65-1.92.36s-.48-1.06-1.06-1.06-2.13-.24-2.13-.53-4.06-1.54-9.03-2.13c-4.97-.58-18.06-2.36-18.06-2.66s-.24-1.06-.53-1.06-.29-5.39,0-7.44ZM335.54,162.31c.76-.61,5.92-.38,11.47.49,5.55.88,20.67,3.9,21.25,4.78.58.88,2.6,3.19,3.19,3.19s2.39.48,2.72,1.06c.33.58,2.53,3.36,2.45,4.87-.08,1.51-1.69,5.23-1.99,5.23s-.82,1.2-.53,2.66c.29,1.46.82,5.31.53,5.31s-1.3.72-1.59,1.59c-.29.88-2.26,2.95-3.72,2.66-1.46-.29-5.31-1.3-5.31-1.59s-3.59-1.3-7.97-1.59c-4.38-.29-16.18-1.78-16.47-2.66-.29-.88-1.54-3.43-2.12-3.72-.58-.29-2.12-1.54-2.12-2.13s-.24-2.13-.53-2.13-1.13-2.75-1.22-6.12c-.09-3.37,1.22-11.3,1.97-11.91ZM333.67,204.16c.91-2.59,3.33-4.71,5.38-4.71s7.44.24,7.44.53,4.62,1.46,10.28,1.94c5.65.48,14.35-3.82,15.23-3.53.88.29,3.19,2.02,3.19,3.19s-.48,4.49-1.06,4.78c-.58.29-1.78,1.47-1.35,1.97.43.5,2.2,4.55,1.94,7.33-.26,2.78-5.11,9.53-8.03,9.83-2.92.29-11.82.82-13.28.53-1.46-.29-5.55-.58-5.84,0-.29.58-2.82,2.22-4.97,2.34-2.15.12-5.66-2.28-5.66-2.87s-.24-2.13-.53-2.13-1.3-.72-1.59-1.59c-.29-.88-1.3-3.19-1.59-3.19s-.44-11.83.47-14.42ZM248.58,227.6c.37,1.18-8.25,3.14-19.15,4.36-10.9,1.22-22.33.74-23.21.44-.88-.29-2.95-2.98-2.66-5.31.29-2.34,3.21-9.22,5.84-10.09,2.63-.88,10.28-2.95,11.16-2.66.88.29,3.55.7,3.98.27.44-.44.8-.56.8-.27s1.43,1.06,3.19,1.06,6.38-.24,6.38-.53,1.82-.6,4.03-.03c2.22.57,9.26,11.59,9.63,12.76ZM239.98,177.57c.72,1.52,1.3,3.24,1.3,3.83s.31,2.08.69,2.01c.38-.06,3.14,4.36,3.91,7.6.77,3.24,1.27,9.07.65,9.82-.62.75-4.93,3.41-8.44,3.41s-12.75.24-12.75.53-1.67.82-3.72.53c-2.05-.29-7.44-.82-7.44-.53s-1.74.3-3.87-.63c-2.13-.93-8.33-7.53-7.65-11.01.68-3.48,5.14-9.85,5.14-10.14s.96-1.06,2.12-1.06,4.49-.48,4.78-1.06c.29-.58,2.26-2.13,3.72-2.13s5.31-.24,5.31-.53,1.2-1.3,2.66-1.59c1.46-.29,5.31-1.3,5.31-1.59s7.54,1.03,8.26,2.55ZM215.78,138.89l2.43-2.34c4.8.41,8.96,1.23,9.26,1.81.29.58,1.3,2.12,1.59,2.12s1.3.96,1.59,2.12c.29,1.17,1.3,4.25,1.59,4.25s1.06.48,1.06,1.06.24,2.13.53,2.13.82.96.53,2.12c-.29,1.17-.82,4.25-.53,4.25s.82.72.53,1.59c-.29.88-2.98,3.43-5.31,3.72-2.34.29-8.74,1.54-9.03,2.12-.29.58-2.26,2.13-3.72,2.13s-5.31.24-5.31.53-1.13,1.77-2.52,2.64c-1.39.86-5.45-.22-5.45-.51s-1.21-1.28-2.7-1.55c-1.49-.27-6.86-4.13-6.86-5.88s.24-6.38.53-6.38,1.54-.72,2.12-1.59c.58-.88,2.6-3.19,3.19-3.19s2.12-.24,2.12-.53.48-1.06,1.06-1.06,2.6-.72,3.19-1.59c.58-.88,3.08-3.43,4.25-3.72,1.17-.29,4.15-1.68,4.03-2.43l1.82-1.82ZM123.33,46.44l-2.26,1.39c.37,2.74.19,5.22-.4,5.51s-2.13,1.54-2.13,2.13-.48,2.41-1.07,2.75c-.59.34-4.21,1.8-6.78.87-2.56-.93-8.34-5.17-8.63-5.75-.29-.58-2.02-2.12-3.19-2.12s-4.25-.24-4.25-.53-1.59-.76-3.53-.4c-1.94.37-7.79-3.85-7.97-3.85-.19,0-.08-3.42,1.35-3.7,1.43-.28,4.01-1.57,4.3-2.15.29-.58,4.34-1.95,8.34-1.74,4,.21,14.48-3.57,17.7-3.57s11.93.48,12.22,1.06,2.17,2.35,3.52,2.62c1.35.27,1.59,2.31-1.25,3.78l-5.99,3.69ZM171.15,80.98c0,.29-.62.83-1.38,1.2-.76.37-5,1.64-5,2.52s-.24,3.19-.53,3.19-1.3.72-1.59,1.59c-.29.88-6.65.06-13.49-3.76-6.83-3.82-16.5-13.77-16.79-13.77s-.5-1.55.18-3.44c.68-1.89,2.18-4.53,2.47-4.53s1.3-1.2,1.59-2.66c.29-1.46,1.3-5.31,1.59-5.31s1.06-1.67,1.06-3.72.59-7.92,1.31-8.5c.72-.58,3.07-1.89,4.53-1.6,1.46.29,5.55,1.54,5.84,2.13s2.5,2.36,4.25,2.66c1.75.29,6.85,1.78,7.44,2.66.58.88,3.08,3.43,4.25,3.72,1.17.29,4.73,1.78,5.31,2.66.58.88,2.36,3.19,2.66,3.19s1.3.72,1.59,1.59c.29.88,1.78,3.19,2.66,3.19s3.19.24,3.19.53.24,1.06.53,1.06,1.06.72,1.06,1.59-.24,3.19-.53,3.19-1.06.24-1.06.53-.72,1.06-1.59,1.06-3.11,1.47-3.02,3.26c.09,1.79-2.47,4.71-3.35,4.71s-3.19.77-3.19,1.06ZM185.79,133.22c-1.04-.39-1.89-1.66-1.89-2.83s-1.37-4.95-3.05-5.8l-.14-.05-2.13-.73c.3,1.28.09,1.94-.45,1.47-.55-.47-2.43-2.34-2.72-2.34s-1.06-1.43-1.06-3.19-.24-6.38-.53-6.38-.9-1.48-.69-3.29c.2-1.81,3.06-6.27,3.35-6.27s1.06-.48,1.06-1.06.24-2.12.53-2.12,1.06-.24,1.06-.53.72-1.06,1.59-1.06,4.43-2.58,5.95-5.73c1.52-3.15,8.39-7.17,8.39-7.36,0-.19,3.76-.76,4.45-.16.69.6,1.93,2.57,1.93,3.16s.72,2.6,1.59,3.19c.88.58,3.43,3.08,3.72,4.25.29,1.17,1.54,4.49,2.12,4.78.58.29,1.94,2.04,1.71,3.23-.23,1.19,2.86,7.89,1.96,10.45-.9,2.56-8.4,8.1-8.98,8.1s-2.13.24-2.13.53-.48,1.3-1.06,1.59c-.58.29-2.12,1.54-2.12,2.13s-.87,2.36-1.94,2.65c-1.07.29-9.47,3.75-10.51,3.37ZM348.19,869.88c-.94,2.09-1.71,4.05-1.71,4.34s-.24,1.06-.53,1.06-1.06-.24-1.06-.53-.48-1.06-1.06-1.06-3.56-2.39-5.31-5.31c-1.75-2.92-6.42-10.87-6.47-11.16-.05-.3-3.09.78-3.09,1.07s-.48.82-1.06.53c-.58-.29-2.36-.34-2.66.53-.29.88-1.3,3.19-1.59,3.19s-1.06.72-1.06,1.59-.48,3.43-1.06,3.72c-.58.29-1.41,1.78-.53,2.66.88.88,1.35,2.55,1.06,3.72-.29,1.17-.82,4.25-.53,4.25s.7.72.27,1.59c-.44.88-.35,2.66.19,3.97.54,1.31.37,4,.08,4s-1.06,1.43-1.06,3.19-.24,6.38-.53,6.38-.81,3.29-.49,7.32c.31,4.03-3.76,10.45-3.76,10.75s-.72.82-1.59.53c-.88-.29-3.19-1.3-3.19-1.59s-.35-3.62-.79-6.75c-.43-3.13-4.23-16.63-4.53-16.63s-1.06-1.43-1.06-3.19-2.63-9.96-5.84-14.35c-3.21-4.38-12.17-15.94-12.75-15.94s-2.13-.24-2.13-.53-.75-1.38-1.68-1.76c-.92-.38-5.35-.79-8.09,1.28-2.74,2.08-3.47,12.4-4.05,12.7-.58.29-2.13,1.78-2.13,2.66s-.24,3.19-.53,3.19-1.06.72-1.06,1.59-.53,3.51-1.18,3.91c-.65.39-2.73,2.47-3.6,2.47s-3.19-.24-3.19-.53-.24-1.06-.53-1.06-1.06-.72-1.06-1.59-.31-3.14-.69-3.08c-.38.06-1.69-2.96-.69-4.49,1-1.53-.46-9.97-.75-9.97s-1.06-.72-1.06-1.59-.24-3.19-.53-3.19-1.06-.72-1.06-1.59-.24-3.19-.53-3.19-1.06-1.2-1.06-2.66-.24-5.31-.53-5.31-1.06-.72-1.06-1.59-.24-3.19-.53-3.19-1.06-.48-1.06-1.06-.24-2.13-.53-2.13-1.06-.48-1.06-1.06-.96-2.84-2.12-3.72c-1.17-.88-4.49-4.86-4.78-6.91-.29-2.05-1.3-7.44-1.59-7.44s-1.3-.96-1.59-2.13c-.29-1.17-1.3-4.25-1.59-4.25s-1.3-2.87-1.59-6.38c-.29-3.51-1.55-12.78-2.14-12.81-.59-.04-1.87-4.72-1.58-4.72s2.68.21,4.66.47c1.98.26,9.39,1.84,9.68,2.72.29.88,2.26,3.56,3.73,4.02,1.47.46,3.71.52,3.71.23s1.2-1.06,2.66-1.06,5.55.48,5.84,1.06c.29.58,1.54,1.89,2.12,1.59.58-.29,2.76-.43,3.53.35.77.78,5.21-.3,5.51-.89.29-.58,2.52-1.13,4.29.1,1.78,1.22,8.17.49,8.46-.1.29-.58,1.78-2.13,2.66-2.13s3.19-.24,3.19-.53.48-1.06,1.06-1.06,2.12-.24,2.12-.53,2.39-.82,5.31-.53c2.92.29,10.63.82,10.63.53s.6-1.33,1.34-1.65c.74-.32,4.8-1.97,4.51-3.14-.29-1.17-.7-4.61-.27-5.05.44-.44,2.47-.8,4.52-.8s7.44-.24,7.44-.53,1.05-.74,2.33-.34c1.28.4,5.64,4.38,5.64,6.72s.24,8.5.53,8.5.82.48.53,1.06c-.29.58-.82,2.13-.53,2.13s1.06,1.2,1.06,2.66.24,5.31.53,5.31,1.06,2.63,1.06,5.84.24,11.69.53,11.69,1.06,1.91,1.06,4.25.24,8.5.53,8.5,1.06.24,1.06.53-.54,1.22-1.19,1.41c-.66.19-.16,2.84.13,2.84s1.06.48,1.06,1.06.24,2.13.53,2.13,1.06.72,1.06,1.59.48,3.43,1.06,3.72c.58.29,2.13,1.54,2.13,2.13s.48,2.36,1.06,2.66c.58.29,2.13,1.54,2.13,2.13s.24,2.12.53,2.12.52,8.44-.42,10.54ZM533.75,197.13c-2.18,8.3-4.2,15.56-4.5,16.15-.29.58-1.54,2.12-2.13,2.12s-2.6-1.82-3.18-4.05c-.58-2.23-6.91-5.67-6.91-5.86,0-.19-4.15-.06-5.32,1.4-1.17,1.46-4.49,5.31-4.78,5.31s-1.06.48-1.06,1.06-.72,2.6-1.59,3.19c-.88.58-3.43,3.08-3.72,4.25-.29,1.17-1.78,4.73-2.66,5.31-.88.58-3.43,3.08-3.72,4.25-.29,1.17-1.78,4.73-2.66,5.31-.88.58-3.19,2.84-3.19,3.72s-.24,3.19-.53,3.19-1.06.48-1.06,1.06-.48,2.36-1.06,2.66c-.58.29-2.12,1.54-2.12,2.13s-.24,2.13-.53,2.13-2.74,3.83-4.78,8.5-8.16,17.48-9.03,18.06c-.88.58-2.66,3.01-2.02,4.09.64,1.08-4.03,7.05-3.64,8.33.4,1.28,4.2,5.57,6.33,5.49,2.12-.08,9.37-8.06,9.95-8.35.58-.29,2.13-1.54,2.13-2.12s1.2-3.08,2.66-4.25c1.46-1.17,5.55-6.16,5.84-8.5s1.3-8.5,1.59-8.5,1.06-.48,1.06-1.06.72-2.6,1.59-3.19c.88-.58,3.19-2.84,3.19-3.72s.96-3.9,2.13-4.78c1.17-.88,4.01-3.67,3.72-4.25s-.35-2.84.53-3.72c.88-.88,1.59-2.07,1.59-2.66s.24-2.12.53-2.12,1.3-.72,1.59-1.59c.29-.88,1.54-3.19,2.12-3.19s2.36-.72,2.66-1.59,1.78-3.67,2.66-4.25c.88-.58,3.19-2.84,3.19-3.72s.18-3.07.4-2.93c.22.14,2.39-1.85,3.85-1.85s5.31.24,5.31.53.24,1.06.53,1.06.11,2.87-1.06,6.38c-1.17,3.51-4.73,12.99-5.31,13.28-.58.29-2.13,1.78-2.13,2.66s-.24,3.19-.53,3.19-1.06.48-1.06,1.06-.48,2.36-1.06,2.66-2.13,1.54-2.13,2.13-.48,2.36-1.06,2.66c-.58.29-2.36,2.26-2.66,3.72-.29,1.46-1.78,5.79-2.66,6.38-.88.58-3.19,2.6-3.19,3.19s-.72,2.84-1.59,3.72c-.88.88-1.59,2.07-1.59,2.66s-.24,2.12-.53,2.12-1.06.48-1.06,1.06-.24,2.13-.53,2.13-1.06.48-1.06,1.06-.48,2.36-1.06,2.66c-.58.29-2.13,1.54-2.13,2.13s-.72,2.6-1.59,3.19c-.88.58-3.19,2.6-3.19,3.19s-.24,2.13-.53,2.13-1.06.48-1.06,1.06-.48,2.36-1.06,2.66c-.58.29-2.12,1.54-2.12,2.12s-.24,2.13-.53,2.13-.38,1.02.46,2.27c.84,1.25,7.1,6.74,7.91,9.97.8,3.23,1.48,9.99,1.19,13.79-.29,3.8-1.3,13.81-1.59,13.81s-1.06.48-1.06,1.06-.24,2.13-.53,2.13-.37.96.49,2.13c.85,1.17-.43,6.08-1.02,6.37-.58.29-2.13,2.74-2.13,4.78s-.24,7.44-.53,7.44-1.06.48-1.06,1.06-.24,2.13-.53,2.13-1.06.96-1.06,2.12-.24,4.25-.53,4.25-1.54,1.43-2.13,3.19c-.58,1.75-2.36,6.38-2.66,6.38s-1.06,1.67-1.06,3.72-.48,7.68-1.06,7.97c-.58.29-1.45,4.36-.62,8.38.83,4.02-1.75,15-2.04,15s-1.3.96-1.59,2.12c-.29,1.17-1.3,4.25-1.59,4.25s-1.06.24-1.06.53.24,1.06.53,1.06.58.96,0,2.12c-.58,1.17-2.36,4.25-2.66,4.25s-1.06.72-1.06,1.59-.24,3.19-.53,3.19-.6,1.88-.03,4.18c.57,2.3-1.51,8.81-2.1,9.11-.58.29-2.13,1.78-2.13,2.66s-.24,3.19-.53,3.19-1.06.72-1.06,1.59-.24,3.19-.53,3.19-1.54,2.87-2.13,6.38c-.58,3.51-2.6,12.99-3.19,13.28-.58.29-2.13,2.5-2.13,4.25s-.48,6.61-1.06,6.91c-.58.29-2.12,2.26-2.12,3.72s-.24,5.31-.53,5.31-1.06.48-1.06,1.06-.24,2.12-.53,2.12-1.06.72-1.06,1.59-.48,3.43-1.06,3.72c-.58.29-2.36,2.5-2.66,4.25-.29,1.75-.82,6.38-.53,6.38s1.06.24,1.06.53-.24,1.06-.53,1.06-1.3.48-1.59,1.06c-.29.58-1.54,2.13-2.12,2.13s-2.05,1.8-1.96,4c.09,2.2-2.24,7.4-2.83,7.69-.58.29-2.12,1.78-2.12,2.66s-.24,3.19-.53,3.19-1.06.48-1.06,1.06-.24,2.12-.53,2.12-.82.96-.53,2.13c.29,1.17.82,4.25.53,4.25s-1.06.48-1.06,1.06-.24,2.13-.53,2.13-1.3.72-1.59,1.59-.82,3.19-.53,3.19,1.06.24,1.06.53-.24,1.06-.53,1.06-1.15.82-1.25,1.81c-.1,1-4.83,4.64-5.12,6.69-.29,2.05-1.54,7.68-2.12,7.97-.58.29-2.13,1.78-2.13,2.66s-.24,3.19-.53,3.19-.86,2.58-.61,5.74c.25,3.16-3.73,11.01-3.83,12.01-.1,1-4.74,4.97-4.92,7.41-.18,2.45-3.34,8.55-3.93,8.84-.58.29-2.13,1.54-2.13,2.12s-.72,2.6-1.59,3.19c-.88.58-3.43,4.04-3.72,6.38-.29,2.34-1.3,8.5-1.59,8.5s-1.06.48-1.06,1.06-.48,2.36-1.06,2.66c-.58.29-2.36,2.5-2.66,4.25-.29,1.75-1.3,6.38-1.59,6.38s-.82.72-.53,1.59c.29.88.82,3.19.53,3.19s-1.06.72-1.06,1.59-.48,3.43-1.06,3.72c-.58.29-1.89,1.54-1.59,2.12s.82,2.13.53,2.13-1.06.48-1.06,1.06-.24,2.12-.53,2.12-1.3.96-1.59,2.13c-.29,1.17-1.3,4.25-1.59,4.25s-1.06.72-1.06,1.59-.48,3.43-1.06,3.72-2.12,1.54-2.12,2.12-.24,2.13-.53,2.13-1.06.96-1.06,2.12-.24,4.25-.53,4.25-1.3.96-1.59,2.13c-.29,1.17-1.3,4.25-1.59,4.25s-1.06.48-1.06,1.06-.72,2.6-1.59,3.19c-.88.58-3.19,3.08-3.19,4.25s-.48,4.49-1.06,4.78c-.58.29-2.36,2.02-2.66,3.19s-1.54,4.49-2.13,4.78c-.58.29-2.36,2.26-2.66,3.72-.29,1.46-1.54,5.55-2.12,5.84-.58.29-2.12,1.54-2.12,2.13s-.72,2.6-1.59,3.19c-.88.58-3.19,2.6-3.19,3.19s-1.67,3.56-3.72,5.31c-2.05,1.75-7.92,7.33-8.5,8.5-.58,1.17-2.6,4.25-3.19,4.25s-2.6.72-3.19,1.59c-.58.88-2.6,3.19-3.19,3.19s-2.84.96-3.72,2.13c-.88,1.17-3.9,4.25-4.78,4.25s-3.43.48-3.72,1.06c-.29.58-1.78,2.12-2.66,2.12s-3.19.24-3.19.53-.48,1.06-1.06,1.06-2.12.24-2.12.53-.48,1.06-1.06,1.06-2.36.48-2.66,1.06c-.29.58-2.02,2.13-3.19,2.13s-4.25.24-4.25.53-2.63,1.54-5.84,2.12c-3.22.58-11.69,1.89-11.69,1.59s-2.39-1.06-5.31-1.06-10.63-.24-10.63-.53-.48-1.06-1.06-1.06-2.12-.24-2.12-.53-.96-1.06-2.13-1.06-4.49-.48-4.78-1.06c-.29-.58-1.78-2.12-2.66-2.12s-3.43-.48-3.72-1.06c-.29-.58-1.54-2.13-2.13-2.13s-2.84-.96-3.72-2.12c-.88-1.17-3.67-4.25-4.25-4.25s-4.04-2.15-6.38-4.78c-2.34-2.63-9.22-10.04-10.09-10.63-.88-.58-3.43-3.08-3.72-4.25-.29-1.17-2.02-4.97-3.19-5.84-1.17-.88-4.25-3.9-4.25-4.78s-.48-3.43-1.06-3.72c-.58-.29-2.36-1.78-2.66-2.66s-1.78-3.67-2.66-4.25c-.88-.58-3.19-2.6-3.19-3.19s-.72-2.84-1.59-3.72c-.88-.88-1.59-2.07-1.59-2.66s-.24-2.13-.53-2.13-1.06-.48-1.06-1.06-.72-2.6-1.59-3.19c-.88-.58-3.19-3.08-3.19-4.25s-.72-4.73-1.59-5.31c-.88-.58-3.19-2.6-3.19-3.19s-.24-2.13-.53-2.13-1.06-.96-1.06-2.12-.48-4.49-1.06-4.78c-.58-.29-1.89-1.78-1.59-2.66.29-.88.82-3.19.53-3.19s-1.3-.96-1.59-2.13c-.29-1.17-1.3-4.25-1.59-4.25s-1.06-.96-1.06-2.12-.24-4.25-.53-4.25-1.06-.48-1.06-1.06-.24-2.13-.53-2.13-1.06-.72-1.06-1.59-.48-3.43-1.06-3.72c-.58-.29-2.13-1.54-2.13-2.12s-.24-2.13-.53-2.13-1.54-2.39-2.13-5.31c-.58-2.92-2.36-10.63-2.66-10.63s-1.06-.48-1.06-1.06-.24-2.13-.53-2.13-1.54-1.44-2.13-3.19c-.58-1.75-2.36-6.38-2.66-6.38s-1.06-1.44-1.06-3.19-.24-6.38-.53-6.38-1.06-.48-1.06-1.06-.24-2.13-.53-2.13-1.06-1.2-1.06-2.66-.24-5.31-.53-5.31-1.06-2.87-1.06-6.38-.24-12.75-.53-12.75-1.06-.72-1.06-1.59-.24-3.19-.53-3.19-1.06-1.44-1.06-3.19-.24-6.38-.53-6.38-1.06-1.2-1.06-2.66-.24-5.31-.53-5.31-1.06-1.43-1.06-3.19-.24-6.38-.53-6.38-1.3-1.2-1.59-2.66c-.29-1.46-1.3-5.31-1.59-5.31s-1.3-.96-1.59-2.12c-.29-1.17-1.3-4.25-1.59-4.25s-1.3-1.91-1.59-4.25c-.29-2.34-1.54-8.74-2.12-9.03-.58-.29-2.13-1.54-2.13-2.12s-.24-2.13-.53-2.13-1.3-.96-1.59-2.12c-.29-1.17-1.3-4.25-1.59-4.25s-.7-.36-.27-.8c.44-.44.56-1.75.27-2.92-.29-1.17-1.3-4.25-1.59-4.25s-1.3-.96-1.59-2.12-1.78-4.73-2.66-5.31c-.88-.58-3.19-3.08-3.19-4.25s-.24-4.25-.53-4.25-1.06-.48-1.06-1.06-.24-2.12-.53-2.12-1.06-.72-1.06-1.59-.24-3.19-.53-3.19-1.06-1.2-1.06-2.66-.24-5.31-.53-5.31-1.06-.48-1.06-1.06-.24-2.12-.53-2.12-1.3-1.2-1.59-2.66c-.29-1.46-1.3-5.31-1.59-5.31s-1.06-.48-1.06-1.06-.24-2.13-.53-2.13-1.06-.72-1.06-1.59-.24-3.19-.53-3.19-1.3-2.15-1.59-4.78c-.29-2.63-1.54-9.8-2.13-10.09-.58-.29-2.12-1.54-2.12-2.12s-.24-2.12-.53-2.12-.82-.96-.53-2.13c.29-1.17.82-4.25.53-4.25s-1.3-1.43-1.59-3.19c-.29-1.75-1.3-6.38-1.59-6.38s-.82-.48-.53-1.06c.29-.58.82-2.12.53-2.12s-1.06-.96-1.06-2.13-.24-4.25-.53-4.25-1.06-1.2-1.06-2.66-.24-5.31-.53-5.31-1.72-1.75-2.53-3.88l-.12-4.09v-5.84c0-6.43-1.82-20.66-4.05-31.62-2.23-10.96,5.73-28.31,5.84-30.78.11-2.47-6.9-2.91-7.31-2.21-.41.7-4.04.09-4.04-.21s-.72-1.06-1.59-1.06-3.9-.96-4.78-2.12c-.88-1.17-3.67-4.25-4.25-4.25s-2.84-.96-3.72-2.13c-.88-1.17-3.9-4.49-4.78-4.78-.88-.29-3.19-1.54-3.19-2.13s-.96-2.84-2.12-3.72c-1.17-.88-4.25-3.9-4.25-4.78s-.24-3.19-.53-3.19-1.3-.48-1.59-1.06-1.54-2.12-2.13-2.12-2.36-.72-2.66-1.59-1.54-3.43-2.13-3.72c-.58-.29-2.36-2.74-2.66-4.78-.29-2.05-1.54-7.68-2.13-7.97-.58-.29-2.12-2.02-2.12-3.19s-.48-4.49-1.06-4.78c-.58-.29-2.13-2.02-2.13-3.19s-.24-4.25-.53-4.25-1.06-.48-1.06-1.06-.24-2.13-.53-2.13-1.3-1.43-1.59-3.19c-.29-1.75-1.3-6.38-1.59-6.38s-1.3-2.39-1.59-5.31c-.29-2.92-1.54-10.87-2.13-11.16-.58-.29-1.89-2.5-1.59-4.25.29-1.75.82-6.38.53-6.38s-.94-1.54-.78-3.41c.15-1.88,3-5.57,5.06-4.85,2.06.72,7.89,6.9,8.47,7.2.58.29,2.12,1.54,2.12,2.13s.24,2.12.53,2.12,1.06.48,1.06,1.06.48,2.36,1.06,2.66,2.12,1.54,2.12,2.13.96,2.84,2.12,3.72c1.17.88,4.49,4.14,4.78,5.31.29,1.17,1.3,4.25,1.59,4.25s1.06.96,1.06,2.13.72,4.73,1.59,5.31c.88.58,3.43,3.32,3.72,4.78.29,1.46,1.54,5.55,2.12,5.84.58.29,2.6,2.5,3.19,4.25.58,1.75,2.84,6.85,3.72,7.44.88.58,3.19,2.6,3.19,3.19s.24,2.13.53,2.13,1.06.48,1.06,1.06.24,2.12.53,2.12,1.06.48,1.06,1.06.24,2.13.53,2.13,1.06.48,1.06,1.06.72,2.84,1.59,3.72,1.59,2.07,1.59,2.66.96,2.84,2.13,3.72c1.17.88,4.25,3.67,4.25,4.25s.48,2.36,1.06,2.66,2.13,1.54,2.13,2.12.48,2.38,1.06,2.69c.59.31,3.66,2.75,5.53,2.9,1.88.15,6.67.56,7.31-.37.63-.93,2.56-5.88,1.25-9.29-1.31-3.41-7.67-11.58-8.25-11.87s-2.36-2.02-2.66-3.19-1.54-4.49-2.13-4.78c-.58-.29-2.36-1.78-2.66-2.66-.29-.88-1.3-3.19-1.59-3.19s-1.06-.72-1.06-1.59-.48-3.43-1.06-3.72c-.58-.29-3.17-2.59-4.45-4.45-1.28-1.86-2.94-10.96-3.52-10.96s-3.22-2.61-4.55-5.8c-1.33-3.19-4.19-8.55-4.48-8.55s-1.06-.48-1.06-1.06-.72-2.6-1.59-3.19c-.88-.58-3.43-3.08-3.72-4.25-.29-1.17-1.78-4.73-2.66-5.31-.88-.58-3.43-3.08-3.72-4.25-.29-1.17-1.78-4.73-2.66-5.31-.88-.58-5.84-7.04-9.09-13.06l-.47-.23-2.81-1.34c-1.09,1.61-3.17,2.7-4.63,2.4-1.46-.29-5.26-.75-5.2-.38.06.38-1.7,2.74-1.7,3.03s-.79.68-1.75.22c-.96-.46-4.38-3.78-4.09-5.53.29-1.75,1.3-6.38,1.59-6.38s.82-.72.53-1.59c-.29-.88-.82-3.19-.53-3.19s1.06-.72,1.06-1.59.48-3.43,1.06-3.72c.58-.29,1.77-1.42,1.33-1.86-.44-.44-.8-1.04-.8-1.33s.24-1.06.53-1.06,1.06-.72,1.06-1.59.24-3.19.53-3.19,1.06-.72,1.06-1.59.48-3.43,1.06-3.72c.58-.29,2.12-1.54,2.12-2.13s.48-2.36,1.06-2.66c.58-.29,2.36-2.26,2.66-3.72.29-1.46,1.3-5.31,1.59-5.31s1.54-.72,2.12-1.59,4.23-1.98,6.81-.51c2.58,1.47,8.31,8.48,8.6,8.48s1.06.48,1.06,1.06.24,2.13.53,2.13,1.06.48,1.06,1.06.72,2.6,1.59,3.19c.88.58,3.19,2.6,3.19,3.19s1.2,3.08,2.66,4.25c1.46,1.17,5.31,5.21,5.31,6.38s.96,4.97,2.12,5.84c1.17.88,4.49,3.91,4.78,4.78.29.88,1.78,3.67,2.66,4.25.88.58,3.19,2.6,3.19,3.19s.72,2.6,1.59,3.19c.88.58,3.19,2.84,3.19,3.72s.48,3.43,1.06,3.72c.58.29,2.12,1.54,2.12,2.12s.72,2.6,1.59,3.19c.88.58,3.67,3.56,4.25,5.31.58,1.75,2.84,6.85,3.72,7.44.88.58,3.43,3.08,3.72,4.25s3.39,7.51,6.23,11.49c2.84,3.98,6.3,16.62,6.68,16.56.38-.06,2.74,1.7,3.03,1.7s1.3,1.44,1.59,3.19c.29,1.75,1.78,6.85,2.66,7.44.88.58,3.43,3.08,3.72,4.25.29,1.17,1.78,4.73,2.66,5.31.88.58,3.19,2.84,3.19,3.72s.24,3.19.53,3.19,1.06.48,1.06,1.06.49,2.41,1.1,2.75c.6.34,3.52,2.56,5.28,2.56s6.38-.96,6.38-2.12.48-4.49,1.06-4.78c.58-.29,2.12-1.54,2.12-2.13s.24-2.12.53-2.12,1.06-.48,1.06-1.06.72-2.6,1.59-3.19c.88-.58,3.19-2.36,3.19-2.66s.72-1.06,1.59-1.06,3.67-.96,4.25-2.12c.58-1.17,2.84-4.25,3.72-4.25s3.43-.48,3.72-1.06,2.5-2.6,4.25-3.19c1.75-.58,6.61-2.6,6.91-3.19.29-.58,2.02-2.13,3.19-2.13s4.73-.72,5.31-1.59c.58-.88,3.56-3.19,5.31-3.19s6.85-.72,7.44-1.59,3.56-3.19,5.31-3.19,6.38-.24,6.38-.53.48-1.06,1.06-1.06,2.13-.24,2.13-.53,2.87-1.3,6.38-1.59c3.51-.29,12.75-.82,12.75-.53s.24,1.06.53,1.06,1.06-.24,1.06-.53,2.39-.82,5.31-.53c2.92.29,10.63,1.3,10.63,1.59s.48,1.06,1.06,1.06,2.13.24,2.13.53.48,1.06,1.06,1.06,2.36.48,2.66,1.06c.29.58,2.02,2.12,3.19,2.12s4.49.48,4.78,1.06c.29.58,1.78,2.13,2.66,2.13s3.43.48,3.72,1.06c.29.58,1.76,1.73,2.6,1.24.85-.49,7.29,4.2,10.29,4.35,3,.15,9.37-2.58,9.95-3.46.58-.88,2.84-3.19,3.72-3.19s3.19-.24,3.19-.53.48-1.06,1.06-1.06,2.12-.24,2.12-.53,1.43-1.06,3.19-1.06,6.62-.48,6.91-1.06c.29-.58,2.02-2.36,3.19-2.66,1.17-.29,4.73-1.78,5.31-2.66.58-.88,4.28-2.83,6.91-2.39s5.02.32,5.31-.27c.29-.58,5.75-2.54,11.47-3.05,5.73-.51,23.3.05,23.59.93.29.88,3.93,4.14,7.44,5.31,3.51,1.17,12.99,4.73,13.28,5.31.29.58,2.5,2.36,4.25,2.66,1.75.29,7.09,2.02,7.97,3.19.88,1.17,3.9,4.25,4.78,4.25s3.43.72,3.72,1.59c.29.88,2.48,4.28,4.2,5.62,1.73,1.34,6.18,5.38,5.89,7.13-.29,1.75-.56,6.53.06,6.72.62.19.23,2.85-.06,2.85s-1.06.48-1.06,1.06-.48,2.36-1.06,2.66c-.58.29-2.13,2.98-2.13,5.31s.31,8.45.69,8.39c.38-.06,4.13,1.38,6.13.98,2-.4,7.77-3.18,8.06-4.06.29-.88.6-3.36.03-3.57-.57-.21-.32-2.81-.03-2.81s.33-.7-.56-1.56c-.89-.86.99-5.3,2.15-5.88,1.17-.58,4.49-4.75,4.78-7.97.29-3.21,2.26-12.64,3.72-13.81,1.46-1.17,4.65-5,3.83-5.92-.82-.92,1.96-6.54,2.55-6.83.58-.29,2.12-1.3,2.12-1.59s.48-.82,1.06-.53,2.6-.37,3.19-2.13c.58-1.75,2.84-6.85,3.72-7.44.88-.58,3.43-3.08,3.72-4.25.29-1.17,2.02-4.73,3.19-5.31,1.17-.58,4.25-2.6,4.25-3.19s.48-2.36,1.06-2.66c.58-.29,1.49-1.97.71-3.08-.78-1.11,6.2-5.07,6.2-5.95s1.2-3.91,2.66-4.78c1.46-.88,5.31-3.67,5.31-4.25s.48-2.36,1.06-2.66,2.36-1.78,2.66-2.66,3.45-5.1,6.38-7.44c2.92-2.34,10.87-9.46,11.16-10.63.29-1.17,2.02-4.97,3.19-5.84,1.17-.88,4.25-3.67,4.25-4.25s.88-2.33,1.96-2.57c1.08-.25,5.37-4.34,6.54-4.34s4.25-.24,4.25-.53.89-.91,1.97-.73c1.08.19,2.58,17.72.4,26.02ZM421.98,431.23c-4.71-.36-8.97-.43-9.47-.17-.5.27-5.07,4.14-6.53,5.89-1.46,1.75-5.55,6.38-5.84,6.38s-.9.52-.71,1.15c.2.63-3.3,5.07-3.01,6.82.29,1.75.82,6.38.53,6.38s-1.06,2.39-1.06,5.31.89,11.38,1.98,12.3c1.09.92,4.48,3.1,6.52,3.1s7.44-.24,7.44-.53.48-1.06,1.06-1.06h1.06c.58,0,1.54-.72,2.13-1.59.58-.88,2.6-3.19,3.19-3.19s2.6-.72,3.19-1.59c.58-.88,2.36-3.19,2.66-3.19s.16-1.04-.94-2.32c-1.1-1.28,9.2-10.31,10.2-14.06,1-3.75-7.69-19.27-12.39-19.63ZM177.53,445.99c0-.58-.24-1.06-.53-1.06s-2.02-1.2-3.19-2.66c-1.17-1.46-15.55-6.16-29.37-7.2l-3.58,1.88-.38.2c-2.42,2.52-4.41,5.78-4.41,7.24s.24,5.31.53,5.31,1.06.24,1.06.53-.24,1.06-.53,1.06-1.06.24-1.06.53.48,1.3,1.06,1.59c.58.29,2.6,2.5,3.19,4.25.58,1.75,2.6,6.61,3.19,6.91.58.29,3.08,2.26,4.25,3.72,1.17,1.46,5.16,5.59,6.28,5.94,1.11.34,6.38,4.63,8.87,5.2,2.49.57,8.23-1.28,8.23-1.57s.22-1.77.48-2.64c.27-.87,6.04-4.52,6.22-6.11.18-1.6,2.86-7.22,2.86-9.85s-.48-9.8-1.06-10.09c-.58-.29-2.13-2.6-2.13-3.19ZM333.95,612.47c-.12-.98-1.18-1.78-2.35-1.78s-4.1.41-3.93.91c.18.5-2.28.33-2.72-.11-.44-.44-1.04-.08-1.33.8-.29.88-1.3,3.19-1.59,3.19s-1.06.72-1.06,1.59-.96,3.91-2.13,4.78c-1.17.88-4.25,3.67-4.25,4.25s-.48,2.36-1.06,2.66-2.39,2.55-2.72,4.37c-.33,1.82-3.31,4.66-4.18,4.66s-4.38,1.43-5.84,3.19c-1.46,1.75-5.99,5.99-6.82,5.52-.83-.47-7.33,3.22-10.33,2.21-3-1.01-10.48-6.37-10.48-6.67s-.72-1.3-1.59-1.59c-.88-.29-3.43-2.26-3.72-3.72-.29-1.46-1.54-5.55-2.13-5.84-.58-.29-2.12-1.54-2.12-2.12s-.48-2.38-1.07-2.69c-.59-.31-4.39-2.93-7.18-3.3-2.78-.38-12.24,2.6-11.94,4.93.29,2.34,1.78,8.98,2.66,9.56.88.58,3.19,2.6,3.19,3.19s.24,2.12.53,2.12,1.3,1.2,1.59,2.66c.29,1.46,1.78,5.55,2.66,5.84.88.29,3.67,1.78,4.25,2.66.58.88,2.6,3.19,3.19,3.19s2.42.74,2.77,1.65c.35.91,2.55,3.61,2.55,4.2s1.33,3.03,2.96,4.14c1.63,1.11,2.54,7.55,3.42,7.55s3.19.24,3.19.53.24,1.06.53,1.06.61,2.62.06,5.82c-.55,3.2-5.36,11.62-7.28,11.5-1.93-.12-7.65-3.22-7.65-3.51s-1.2-1.06-2.66-1.06-5.55-.48-5.84-1.06c-.29-.58-1.99-1.58-3.11-.92-1.13.66-7.76-4.29-10.01-4.16-2.25.13-6.81,1.74-6.51,2.19.31.46,4.22,4.19,4.22,4.48s.24,1.06.53,1.06,1.06.48,1.06,1.06.24,2.12.53,2.12,1.54.72,2.12,1.59c.58.88,2.6,3.19,3.19,3.19s2.36.48,2.66,1.06c.29.58,1.54,2.12,2.12,2.12s2.13.24,2.13.53.48,1.06,1.06,1.06,2.12.24,2.12.53.72,1.06,1.59,1.06,3.43.48,3.72,1.06c.29.58,1.54,2.13,2.13,2.13s2.84.96,3.72,2.12c.88,1.17,4.74,4.8,6.64,5.47,1.9.67,8.26,4.92,10.89,4.62,2.63-.29,10.28-2.02,11.16-3.19.88-1.17,4.38-4.49,5.84-4.78,1.46-.29,5.79-1.78,6.38-2.66s4.3-4.18,6.96-5.39c2.66-1.21,8.15-5.77,8.44-5.77s1.06-.72,1.06-1.59.92-2.91,2.04-2.57l-.45-2.21-.45-2.21c-.63.34-.91.62-.62.62s1.06-.72,1.06-1.59-.96-3.43-2.13-3.72c-1.17-.29-4.25-1.3-4.25-1.59s-.24-1.06-.53-1.06-1.06.24-1.06.53-1.2,1.06-2.66,1.06-5.31.24-5.31.53-.61,1.31-1.36,1.62c-.75.31-5.34,2.08-5.74,3.37-.4,1.28-3.18,5.64-4.06,5.64s-3.19-.24-3.19-.53-.17-3.31-.37-6.06c-.21-2.75-3.05-9.35-3.35-9.35s-1.21-1.84-1.38-4.08c-.17-2.24,5.1-6.2,5.1-7.08s.72-3.43,1.59-3.72c.88-.29,3.19-1.3,3.19-1.59s1.2-1.06,2.66-1.06,5.55-.72,5.84-1.59c.29-.88,1.3-3.19,1.59-3.19s1.54-.72,2.12-1.59c.58-.88,2.6-3.19,3.19-3.19s2.12-.24,2.12-.53.72-1.54,1.59-2.12c.88-.58,3.19-2.84,3.19-3.72s.24-3.19.53-3.19,1.06-.24,1.06-.53.72-1.06,1.59-1.06,3.52-1.98,3.93-4.41c.41-2.42,4.28-8.35,4.57-8.35s.89-.53.68-1.18,3.57-4.8,3.57-6.26-4.44-7.33-4.56-8.31Z" fill="#1a98a4" fill-rule="evenodd"/><polygon points="554.35 966.69 397.55 963.02 241.85 967.02 87.23 963.34 80.32 863.18 80.48 761.11 73.54 657.59 234.19 659.83 393.69 654.41 552.16 656.67 555.24 758.32 551.24 861.68 554.35 966.69" fill="#fff"/><polygon points="554.35 966.69 397.55 963.02 241.85 967.02 87.23 963.34 80.32 863.18 80.48 761.11 73.54 657.59 234.19 659.83 393.69 654.41 552.16 656.67 555.24 758.32 551.24 861.68 554.35 966.69" fill="none" stroke="#1a98a4" stroke-miterlimit="10" stroke-width="5"/><polyline points="81.47 663.73 137.72 703.84 198.23 737.17 254.49 777.28 313.94 810.31 373.39 777.28 429.65 737.18 490.16 703.84 546.42 663.73" fill="#fff"/><polyline points="81.47 663.73 137.72 703.84 198.23 737.17 254.49 777.28 313.94 810.31 373.39 777.28 429.65 737.18 490.16 703.84 546.42 663.73" fill="none" stroke="#1a98a4" stroke-miterlimit="10" stroke-width="4"/></svg>