<?xml version="1.0" encoding="UTF-8"?><svg id="_レイヤー_1" xmlns="http://www.w3.org/2000/svg" viewBox="0 0 294.28 294.28"><circle cx="147.14" cy="147.14" r="147.14" fill="#3e3a39"/><path d="M106.2,48.96c-10.52.5-17.7,2.18-23.98,4.64-6.5,2.53-12.01,5.93-17.49,11.43-5.48,5.5-8.86,11.01-11.37,17.52-2.43,6.29-4.08,13.48-4.55,24.01-.46,10.53-.57,13.91-.52,40.76s.17,30.22.68,40.76c.5,10.52,2.18,17.7,4.64,23.98,2.54,6.5,5.93,12.01,11.44,17.49,5.5,5.48,11.01,8.85,17.54,11.37,6.29,2.43,13.48,4.09,24,4.55s13.91.57,40.75.52,30.22-.17,40.77-.67,17.69-2.19,23.97-4.64c6.5-2.54,12.01-5.93,17.49-11.44,5.48-5.51,8.85-11.02,11.37-17.54,2.44-6.29,4.09-13.48,4.55-24,.46-10.55.57-13.92.52-40.77-.05-26.85-.17-30.21-.67-40.76-.5-10.54-2.18-17.7-4.64-23.99-2.54-6.5-5.93-12-11.43-17.49s-11.02-8.86-17.53-11.37c-6.29-2.43-13.48-4.09-24-4.55-10.52-.45-13.91-.57-40.76-.52-26.85.05-30.21.17-40.76.68M107.35,227.7c-9.64-.42-14.87-2.02-18.36-3.36-4.62-1.78-7.91-3.93-11.39-7.37s-5.61-6.75-7.42-11.35c-1.35-3.49-2.99-8.72-3.44-18.36-.49-10.42-.59-13.55-.65-39.94-.06-26.4.04-29.52.5-39.94.41-9.63,2.02-14.87,3.36-18.36,1.78-4.63,3.92-7.91,7.37-11.38,3.45-3.47,6.74-5.61,11.36-7.42,3.48-1.36,8.71-2.98,18.35-3.44,10.43-.49,13.55-.59,39.94-.65,26.39-.06,29.53.04,39.96.5,9.63.42,14.87,2.02,18.36,3.36,4.62,1.78,7.91,3.92,11.38,7.37,3.47,3.46,5.62,6.74,7.42,11.36,1.36,3.47,2.98,8.7,3.43,18.34.5,10.43.61,13.55.66,39.94.05,26.39-.05,29.53-.5,39.94-.42,9.64-2.02,14.88-3.36,18.37-1.78,4.62-3.93,7.91-7.38,11.38s-6.74,5.61-11.36,7.42c-3.48,1.36-8.71,2.98-18.34,3.44-10.43.49-13.55.59-39.95.65s-29.52-.05-39.94-.5M187.95,94.3c.01,6.55,5.33,11.86,11.88,11.84,6.55-.01,11.86-5.33,11.84-11.88-.01-6.55-5.33-11.86-11.88-11.84h0c-6.55.01-11.85,5.33-11.84,11.88M96.38,147.24c.06,28.04,22.83,50.72,50.86,50.67s50.73-22.82,50.68-50.86c-.05-28.04-22.83-50.73-50.87-50.67s-50.72,22.83-50.67,50.87M114.19,147.2c-.04-18.2,14.69-32.99,32.89-33.02,18.2-.04,32.99,14.69,33.02,32.89.04,18.2-14.69,32.99-32.89,33.02-18.2.04-32.99-14.68-33.02-32.88h0" fill="#fff"/></svg>