<?xml version="1.0" encoding="UTF-8"?><svg id="_レイヤー_1" xmlns="http://www.w3.org/2000/svg" viewBox="0 0 248.96 248.96"><circle cx="124.48" cy="124.48" r="124.48" fill="#fff67f"/><path d="M77.24,200.83c-.15-.39-1.78-2.74-1.73-2.86.04-.1.19-.12.31-.1,2.67,1.57,5.44,2.88,8.52,3.78,4.24,1.24,8.34,2.38,12.69,3.24l14.98,2.97,8.54,1.42,5.55,1.31c2.35-1.62,4.7-2.98,7.31-4.15l9.4-4.24c2.49-1.12,4.91-2.02,7.3-3.37,6.96-3.92,10.81-7.36,16.29-13.03,3.55-3.67,2.01-4.72,3.48-6.14.39-.37,1.12-.62,1.01-1.3-.15-.07-.47-.04-.59-.14-.51-.41.44-6.15.67-7.1l3.84-15.81c.66-2.73-.67-2.38,1.05-3.21-2.69-2-5.17-4.07-7.37-6.61l-5.18-5.99c-2.66-3.08-4.79-6.42-6.62-10.07l-3.68-7.31c-1.35-2.69-2.31-5.44-3.02-8.29-.39-1.58-.53-3.17-.75-4.99-2.47,3.44-4.97,5.61-7.72,8.53-.25,0-.44.18-.52.41l-.17.16c-6.17,6.11-24.14,16.55-32.84,19.74,0,.22.22.19.34.17,1.18.73,2.49,1.37,3.73,1.97.5.34,1.05.88,1.41,1.37v.72c-.23.01-.45-.04-.67-.04.08-.11,0-.23-.14-.31-.09-.05-.18.12-.26.15-.34-.04-.8-.12-1.08-.34.44-.17.93-.24,1.52-.05-.26-.5-.73-.2-.97-.46-.46-.62-4.04-2.35-4.96-2.58-.66.03-1.39.48-1.94.76-.3.15-.35.39-.75.39-.61,0-6.38,2.69-7.26,3.17-.35-.04-.8.26-1.15.42-.88.39-3.26.75-4.91,1.64l4.64,1.31,4.7,1.58c1.31.44,5.43,2.03,5.8,3.73-.81-.11-1.24-.76-1.88-1.13-1.93-1.11-3.92-1.82-6.04-2.51-2.8-.91-5.47-1.96-8.41-2.42-.69-.11-1.44.39-1.96.68,4.01.93,7.93,1.82,11.48,3.73l4.63,2.49c.75.4,1.26,1.48,1.27,2.22-.21-.04-.55-.38-.57-.11-.01.16.05.31.05.44-.2-.03-.37-.18-.55-.26l-4.75-2.56c.3.58.96.67,1.27,1.03l-.03.35c-.13,0-.28-.05-.41-.01-.07-.16-.24-.24-.37-.34-.19-.15-.41.09-.63.15-.4-.43-.88-.81-1.52-.63-.4.11-1.14.38-1.11,1.03.05,1.08,1.61,1.62,1.32,2.04-.65.04-1.24-.31-1.91-.65-.02,1.35-1.99,2.66-3.08,2.05-.24-.14-.29-.52-.53-.68-.43,0-.86.04-1.27.24.51,1.83,3.06.42,5.28.9.82.18,1.32.08,1.72-.73.15-.3.49-.64.17-.94l.22-.25c.19-.03.4-.19.59-.18.26.01.26.34.25.52-.2.45-.36.92-.41,1.4l-.02.25c-.31.41-.69.81-.84,1.32-.8.14-2.18,1.48-3.62,1.55-1.03.05-2.44-.1-3.23-.82-1.61-1.47-2.5-1.85-3.29-4.23-.51-1.53-1.05-4.88-.1-6.59-1.31-.47-2.66-.54-4.02-.81-2.48-.48-4.91-.95-7.35-.94-.18,0-.38-.11-.51-.15-.22-.06-.31-.38-.18-.62.16-.29,1.72-.19.32-.54.15-.2.4,0,.72-.16-.31.03-.25-.39-.37-.47.74-.71,1.58-.2,2.64-.39-.41-.62-.89-1.2-1.36-1.76-.79.25-1.2.95-1.78,1.3-2.07,1.26-4.03,2.72-6.04,4.21-2.27,1.68-3.98,4.46-6.09,6.51,1.16.77,1.84,1.82,2.32,3.11,2.1,5.61,3.49,11.41,4.42,17.36.16,1.01.55,6.22-1.33,6.37-.41-1.49-.85-2.84-1.14-4.33-.81-4.06-1.57-8.04-2.65-11.95-.32-1.16-.59-2.29-1.05-3.39s-.33-2.63-1.2-3.63c-1.55-.17-1.35-1.15-1.72-1.09-.08.01-.36.08-.4.2-.24.81-1.39.65-1.94,1.06-1.4,1.04-1.87,3.1-1.92,4.91-.2,6.25,1.75,12.46,5.4,17.49,1.43,1.96,3.2,3.37,5.47,4.09.17-.62.24-1.24.83-1.6.24,1.44-.01,2.85.13,4.28.07.7.94.98,1.14,1.49.39.98.64,2.03.77,3.01-.52-.06-1.13-.06-1.65-.31-.3-.22-.32-.7-.54-.91,0-.12-.07-.24-.09-.36.09-.07.16-.19.13-.27-.05-.14-.18-.24-.29-.15-.08-.9-.22-1.78-.43-2.84-2.63-.54-4.83-1.79-6.64-3.78-4.94-5.45-7.45-13.88-7.02-21.06.09-1.49.6-3.01,1.36-4.34,1.27-2.2,3.3-2.77,3.46-3.26.3-.93.14-2.02.17-3.03.07-2.64.62-5.05,1.07-7.65.86-4.98,2.15-9.7,3.55-14.54l1.59-5.51c.18-.63.74-1.18.69-2-.65.53-.61,1.37-.91,2-3.42,7.14-6.26,14.58-8.67,22.2-.8,2.53-1.22,5-1.84,7.45-.75,2.97-1.05,6.04-1.7,9.02l-.61,2.81c-.04.19-.27.31-.38.32-.66.06-.75-2.37-.85-2.86-.12-.58-.77-.81-1.17-1.17-2.19-2-4.07-4.2-5.65-6.71-5.16-8.17-6.16-16.35-5.74-25.92.24-5.38,1.55-10.47,3.32-15.53,4.09-11.7,13.11-24.25,22.15-32.65l3.15-2.92c5.3-4.93,15.37-12.07,22.86-11.91-1.22-4.82-1.06-10.13,2.53-13.46,1.38-1.28,2.47.35,3.18-.4,3.34-3.54,7.35-6.37,11.95-8.05,2.34-.85,4.63-1.44,7.05-1.99,3.13-.71,6.18-.86,9.41-.99,5.78-.23,11.43-.37,17.17.32.79.1,1.42.37,2.25.39,5.33.18,10.58.83,15.67,2.42,3.31,1.04,6.4,2.14,9.65,3.34.21.08.52-.1.7.01.12.07.15.4.2.54.34.92,1.26.48,1.9.73,3.59,1.38,6.85,3.15,10.21,5.04,4.71,2.66,9.07,5.65,13.18,9.17,4.84,4.14,8.78,9.03,11.68,14.69,3.95,7.71,3.93,17.57-2.04,24.31.49,1.24.76,2.41,1.09,3.67l1.7,6.46c.81,3.1,1.13,6.3,1.13,9.53v4.99c0,3.66-.47,7.17-.58,10.83-.27,8.99-.74,15.26-4.46,23.56-1.59,3.54-3.28,6.84-5.26,10.18-2.42,4.09-5.22,7.74-8.53,11.15-3.18,3.28-6.41,6.3-9.87,9.28-3.69,3.19-7.14,5.37-10.72,8.44-.64.55-2.38,1.67-3.23,1.63-.17,0-.24-.27-.28-.52-.44-2.58.03-5.04.43-7.6.37-2.39,1.14-4.53,1.38-7.14-1.45,1.23-2.52,2.5-3.76,3.76-2.5,2.56-5.12,4.78-8.09,6.78-2.26,1.53-4.43,2.93-6.93,4.07l-11.32,5.17c-3.67,1.68-7.26,3.15-10.51,5.54-.54.04-1.14-.4-1.51-.26-.66.27-.73-.3-1.11-.35l-8.13-1.18c-9.37-1.35-20.17-3.34-29.25-5.88-3.44-.96-6.83-1.91-9.83-3.68ZM120.91,44.29c-.24-.31-.61-.15-.99-.1-2.34.31-4.53.87-6.82,1.48-1.86.49-3.83.77-5.65,1.65-.13.06-.24.34-.36.45-.15.13-.32-.32-.49-.3-2.44,1.19-4.8,2.48-6.69,4.38l-3.03,3.03c-1.23,1.23-2.67,2.14-4.13,3.1-.22.14-.83.07-.89.43-.45,2.64-.07,5.25.7,7.83,1.24,4.13,3.48,7.71,6.17,11.04,2.93,3.64,6.38,6.38,10.53,8.53,5,2.58,9.98,4.85,15.19,6.98l10.73,4.38c5.35,2.18,10.57,4.33,16.12,6.07.41-.25.46-.75.89-1.07.46.27.13.77.05,1.34,10.16,3.2,19.01,5.7,29.78,5.5,2.43-.05,4.73-.27,7.1-.81l1.72-.39c3.21-.73,6.31-2.06,9.12-4,3.41-2.35,5.97-5.86,6.95-9.92,2.89-11.97-6.04-22.85-14.8-29.93l-3.46-2.8c-4.69-3.79-10.21-6.53-15.88-8.91-.83-.35-1.58-.98-2.61-1.2-4.61,6.05-7.51,14.01-9.47,21.33,1.46.48,2.82.58,4.25.73l4.79.5c.41.04.63.3.67.59.05.36-.17.57-.54.72-3.1,1.3-6.42,1.01-9.62.24-.17-.04-.47.55-.69.4-1.09-.76-.29-.74-1.35-1.15-2.2-.84-4.2-2-5.88-3.64-.54-.52-1.02-1.09-1.13-1.83-.1-.69.26-1.28.76-1.47.8-.3,1.23.17,1.69.74,1.26,1.56,3.03,2.61,4.92,3.36.21-1.87.53-3.37,1.05-5,1.85-5.82,4.43-11.62,8.07-16.57-3.81-1.54-7.51-2.64-11.14-3.48.44-.45-.25-.41-.63-.5-3.66-.95-7.46-1.42-11.31-1.81-1.21-.12-2.32-.07-3.6-.12-1.85-.07-3.73-.28-5.68-.11-.65.06-1.18-.26-1.8-.29-4.08-.17-8.53.08-12.59.58ZM44.18,150.11c1.38,2.81,2.88,5.57,4.85,8.23.04-7.84.9-15.2,2.21-22.73,1.95-11.23,6.04-20.84,12.34-30.28l7.45-11.16c.95-1.43,1.96-2.84,3.44-3.62l2.91-1.54c.15-.08.31-.2.46-.13.65.31-1.26,1.62-1.52,1.88-1.47,1.51-2.69,3.13-3.78,4.95-2.04,3.43-4.06,6.69-6.35,9.97-2.79,3.99-5.05,8.06-7.07,12.5-2.56,5.64-4.31,11.36-5.39,17.48-1.16,6.59-2.07,13.05-2.28,19.74-.05,1.63-.41,3.07-.7,4.64-.07.37-.08.82.48.96.9-9.83,8.31-31.32,12.85-39.54l6.35-11.52,2.78-5.93c.76-1.62,2.11-2.33,3.38-3.42,1.65-1.42,2.8-3.42,4.38-4.98,2.51-2.48,4.34-6.4,7.43-6.78.15.12.13.45.17.58-.4,1.71-1.56,2.14-3.11,3.96l-5.38,6.35c-2.85,3.36-5.3,7-7.33,10.92-1.11,2.15-1.53,4.47-2.33,6.74-1.92,5.4-3.51,10.71-5.08,16.24-1.55,5.46-2.77,10.83-3.61,16.42-.22,1.47-.6,2.75-.67,4.34,1.16-.88,1.94-1.9,2.8-2.96l4.33-5.39c.11.07.18-.09.21-.18.02-.04,0-.12,0-.17.34-.14.54-.48.81-.8l5.82-6.96c4.09-4.89,15.07-16.43,19.79-21.01l5.67-5.49,4.19-4.01,5.46-5.19c1.48-1.41,2.98-2.69,4.31-4.23.52-.61,2.7-2.92,3.34-2.4.3.24-.13.36-.24.57-1.07,1.98-2.23,3.78-3.85,5.4l-10,9.97-5.43,5.25c-1.48,1.44-2.82,2.79-4.29,4.3-6.77,6.93-13.4,13.8-19.77,21.43,1.06.08,1.77-.87,2.53-1.45,2.56-1.96,4.98-3.84,7.68-5.63,3.81-2.53,7.25-5.29,10.75-8.24l9.36-7.87c2.06-1.73,3.77-3.67,5.6-5.61l2.59-2.76,7.88-8.05c.54-.55,4.46-5.34,4.58-4.28l-4.77,6.03c-.76.97-1.33,1.88-1.84,3.02-2.07,4.61-4.43,9-7.57,12.95l-4.88,6.15c-2.4,3.02-4.83,5.82-7.72,8.4l-9.21,8.22c4.28-1.5,8.19-2.95,12.06-4.83,2.87-1.39,5.24-3.35,8.03-4.91,4.98-2.77,9.46-5.97,13.9-9.53,2.94-2.36,5.91-4.4,8.56-7.08l8.21-8.29c1.59-1.61,2.95-3.29,3.94-5.37l-7.57-2.96-12.61-5.14c-5.5-2.24-10.78-4.6-15.99-7.42-7.31-3.96-10.97-8.6-15.37-15.61-5.76,2.29-13.8,9.92-18.07,12.86l-1.27.87-.24.19c-.05.04-.15-.31-.11-.35.34-.85.68-1.6,1.49-2.25,4.41-3.57,8.9-6.94,13.64-10.08,1.34-.89,2.57-1.62,4.08-2.22-.15-.68-.34-1.41-.92-1.67.02-.37.14-.6-.19-1.26-.62.89-1.38.18-1.97.29-3.35.62-6.38,2.08-9.33,3.77-4.23,2.41-7.82,5.4-11.42,8.65-8.76,7.92-14.99,15.56-20.68,25.96-1.74,3.18-2.92,6.42-4.07,9.87-1.77,5.33-2.6,10.72-2.49,16.35.08,3.88.46,7.58,1.32,11.32.47,2.06,1.23,3.8,2.1,5.57ZM119.4,129.92c5.22-2.55,9.67-5.42,14.16-8.52,2.25-1.61,4.4-3.09,6.44-4.91l3.47-3.11c2.54-2.27,4.76-4.75,6.62-7.79-1.51-.66-3.03-1.08-4.74-1.62-1.45,2.96-3.47,5.26-5.64,7.58l-2.76,2.96c-1.83,1.96-3.69,3.82-5.64,5.65-1.33,1.25-2.69,2.26-4.08,3.43-2.61,2.19-5.41,4.1-7.83,6.34ZM201.28,105.86c-2.88,1.63-5.77,3.16-9.06,4.03-3.69.98-2.15,2.97-3.68.94l-3.47.44c-3.42.44-6.82.15-10.19-.09-.08,0-.11-.07-.19,0-.06.05-.25.01-.33.03-1.14-.24-2.42-.33-3.64-.47-.8-.09-1.53-.27-2.26-.4-5.63-1.03-11.08-2.69-16.69-4.3-.47-.14-.81,1.06-.77,1.46.57,4.85,1.85,9.47,3.99,13.82l2.63,5.37c2.22,4.52,4.86,8.64,8.15,12.47,2.47,2.87,4.73,5.74,7.75,8.32l-4.4-11.47c-2.56-6.66-4.68-13.32-6.13-20.29-.23-1.1-.71-3.59.32-4.07.22-.1.91-.08.93.25.05,1.17.15,2.24.46,3.46,2.25,8.73,4.96,17.22,8.65,25.64l-4.73-20.63c-.5-2.19-.69-4.27-.63-6.49-.02-.54.13-1,.53-1.25.41-.02.77.23.81.72.26,3.76,1.92,11.27,2.9,15.05l2.15,8.32c1.87,7.21,3.31,9.22,5.78,15.58.07.19.22.3.36.28.06.94.22,1.82,1.17,2.45-.34.45-.43.87-.92,1.13-.72-1.08-1.51-1.88-2.67-2.3-.11.41.09.72.06,1.11l-.76.22c.88,6.25.53,12.32-.42,18.83,4.56-7.36,9.13-17.13,10.88-25.38,1.43-6.77,1.9-13.6,1.53-20.49-.23-4.18-.91-8.11-1.97-12.12-.1-.37.19-.87.38-1.03.21-.18.58-.31.92-.15.32.14.36.59.46,1l.93,3.91c2.45,10.29,1.19,25.91-2.29,36.21-1.77,5.24-3.97,10.14-6.67,14.95l-3.97,7.1c2.78-2.76,4.95-5.79,7.12-8.96,2.37-3.46,4.44-6.97,6-10.88,2.06-5.17,3.53-10.42,4.47-15.92,1.49-8.68.2-18.28-2.15-26.67-.06-.22-.26-.43-.08-.59.71-.61.37.62,2.34.93,2.36,8.29,3.36,17.53,2.09,26.1s-4.1,17.31-8.4,24.44c-2.06,3.42-4.21,6.65-6.78,9.71-2.21,2.64-4.89,4.64-7.29,7.07-.39.39-1.6,3.27-2.18,3.01-.36-.16-.12-.83-.37-1.01-.28-.21-.64.4-.96.23-.1-.05-.14-.21-.06-.36l1.95-3.81c1.07-2.08,3.25-15.44,2.67-18.49-1.24,4.37-1.88,8.37-3.46,12.71.69.51-.33,4.15-.59,4.78-.45,1.1-.92,2.12-1.14,3.31l-1.9,9.07c-.53,2.51-.86,4.88-1.23,7.56,2.13-2.42,4.15-4.43,6.66-6.22,3.61-2.56,6.87-5.35,10.04-8.4l3.17-3.05c.37-.35.88-.55.96-1.05.02-.12.17-.23.12-.37.05-.03.13-.12.16-.17.15-.01.4,0,.57-.18,2.37-2.57,4.57-5.14,6.46-8.12,2.68-4.21,4.95-8.52,6.94-13.09.52-1.18,1.03-2.29,1.27-3.57,1-5.26,1.53-10.47,2.11-15.77.04-.34.26-4.1.26-4.22-.23-5.3-1.46-10.49-3.59-15.24-.14-.32-.2-.58-.19-.91.52.52,1.28.33,2.04-.02,1.03,2.06,1.65,4.19,2.37,6.46.31-1.48.1-2.99-.02-4.55-.16-2.04-.1-4.05-.52-6.07-.54-2.61-1.39-5.07-2.09-7.63-.16-.59-.49-1.08-.7-1.66l-.73.25c-.18-.58-.03-1.08-.12-1.69-.59.06-.79.63-1.13.86ZM95.37,133.41c.28.14.83.46,1.22.38,1.73-1.35,3.1-3.01,4.64-4.64,1.86-1.97,3.5-4.09,5.3-6.24,3.06-3.66,5.92-7.34,8.23-11.74l-4.37,4.45c-2.17,2.45-4.45,4.59-6.94,6.72l-8.12,6.98-4.31,3.63c1.5.16,2.84.17,4.35.46ZM66.41,121.96s-.04-.09-.09-.09-.09.04-.09.09.04.09.09.09.09-.04.09-.09ZM94.2,136.06c.63-.62,1.26-1.03,1.77-1.76-1.95-.53-3.82-.71-5.76-.7-.52.22-1.02.67-1.5,1.08,1.98.26,3.66.65,5.49,1.38ZM80.09,144.24c-.09.76,2.44.63,3.37.88,3.55-2.65,6.88-5.41,10.1-8.47-.71-.38-1.43-.56-2.13-.58-1.18-.49-2.51-.53-3.8-.68-3.2,2.26-6.29,4.3-9.32,6.81.46.74,1.09,1.36,1.77,2.04ZM174.13,143.17c.14-.48-.11-.59-.22-.89-.18.31-.15.74.22.89ZM73.9,142.86c-.14.18.04.38.13.25.04-.06.19-.14.18-.2-.02-.08-.22-.16-.31-.05ZM174.37,143.53c0-.06-.05-.11-.11-.11s-.11.05-.11.11.05.11.11.11.11-.05.11-.11ZM174.41,143.97c-.17.35-.04.5.2.46.12-.02.15-.24.03-.35-.05-.04-.16-.24-.22-.11ZM175.08,145.31c0-.06-.05-.11-.11-.11s-.11.05-.11.11.05.11.11.11.11-.05.11-.11ZM83.15,146.22c-.64-.56-1.23-.42-1.84-.41.53.46,1.2.63,1.84.41ZM175.26,145.84c0-.06-.05-.11-.11-.11s-.11.05-.11.11.05.11.11.11.11-.05.11-.11ZM175.72,147.26c.11-.63-.16-.85-.45-1.08-.1.5.12.86.45,1.08ZM89.66,147.36c-.42-.16-.62-.17-.72.03.32.07.53.11.72-.03ZM91.13,147.88c-.38-.49-.83-.46-1.3-.38.45.13.81.56,1.3.38ZM177.59,151.08l-1.78-3.67c.06,1.07.59,1.89.84,2.88.26.34.4.78.93.79ZM94.28,148.79c-.26-.16-2.98-1.3-2.48-.55-.05-.08,2.23.91,2.48.55ZM92.71,150.39c-.93-.36-1.86-.47-2.84-.1,1.04.34,1.92.15,2.84.1ZM96.96,150.96c-.17-.39-.61-.43-.91-.24.35.16.52.37.91.24ZM98,151.28c-.37-.24-.67-.41-.84-.23.09.36.58.38.84.23ZM92.36,152.02c.19.01.19-.31.17-.42-.02-.11-.15-.29-.38-.3l-2.15-.1c-.19,0-.22.64,0,.65l2.37.16ZM92.59,152.44c-.89-.52-1.6-.02-2.4-.26-.16.14-.29.18-.34.42.97-.13,1.82.18,2.74-.16ZM91.96,154.38c.32-.32.32-.97.38-1.43-.82-.12-1.5-.06-2.38,0-.07.53,0,1.06.25,1.56.59-.09,1.29.15,1.74-.13ZM177.9,153.56s-.04-.09-.09-.09-.09.04-.09.09.04.09.09.09.09-.04.09-.09ZM91.74,154.82c-.51.04-.95-.05-1.3.14-.25.14,0,.67.14.85.16.21,1.58.07,1.62-.29.03-.26.02-.74-.46-.7ZM97.13,157.59c-1.7-.06-3.32.34-5.19.49,1.77,1.47,3.42.8,5.19-.49Z" fill="#070505"/><path d="M65.53,124.18l-1.59,5.51c-1.4,4.83-2.69,9.56-3.55,14.54-.45,2.6-1,5.01-1.07,7.65-.03,1.02.13,2.1-.17,3.03-.16.49-2.19,1.05-3.46,3.26-.76,1.33-1.28,2.85-1.36,4.34-.12-.02-.25-.03-.37-.04-.05-.27-.47-.62-.32-.98,1.02-2.4.81-3.54,1.13-6.2.07-.53.21-1,.04-1.46.62-2.45,1.04-4.91,1.84-7.45,2.4-7.62,5.25-15.06,8.67-22.2h.22Z" fill="#3e2b16"/><path d="M71.69,193.78c.71,1.11,1.61,2.06,2.5,3.03.02.15.02.37.15.55.66.91,1.2,1.82,1.67,2.76-.85-.27-1.52-.99-2.16-1.72-1.22-1.4-2.33-2.82-3.75-4.04-.55-.47-.77-1.05-.95-1.64.96.04,1.87,1.16,2.54,1.06Z" fill="#766548"/><path d="M53.95,162.46c-.26.17-.53.35-.85.39.65-2.99.95-6.06,1.7-9.02.17.46.02.93-.04,1.46-.32,2.66-.11,3.8-1.13,6.2-.15.36.27.7.32.98Z" fill="#766548"/><path d="M75.82,197.86c-.12-.02-.27,0-.31.1-.05.12,1.58,2.47,1.73,2.86-.36-.21-1-.27-1.23-.71-.47-.94-1.01-1.85-1.67-2.76-.13-.18-.13-.39-.15-.55.6.2,1.09.75,1.62,1.06Z" fill="#3e2b16"/><path d="M70.84,192.19c.51.38.53,1.08.85,1.59-.67.09-1.57-1.02-2.54-1.06-.17-.58-.46-1.13-.5-1.74.23.21.24.7.54.91.51.25,1.13.25,1.65.31Z" fill="#3c2215"/><path d="M68.56,190.6c-.2,0-.14-.28-.16-.42.11-.09.24,0,.29.15.03.08-.04.2-.13.27Z" fill="#3c2215"/><path d="M149.97,113.85c.71,2.84,1.67,5.59,3.02,8.29l3.68,7.31c1.83,3.64,3.96,6.99,6.62,10.07l5.18,5.99c2.2,2.54,4.68,4.61,7.37,6.61-1.72.83-.39.48-1.05,3.21l-3.84,15.81c-.23.94-1.18,6.68-.67,7.1.12.1.44.07.59.14.11.69-.62.93-1.01,1.3-1.47,1.42.07,2.46-3.48,6.14-5.48,5.67-9.32,9.11-16.29,13.03-2.39,1.34-4.81,2.25-7.3,3.37l-9.4,4.24c-2.6,1.17-4.96,2.52-7.31,4.15l-5.55-1.31-8.54-1.42-14.98-2.97c-4.35-.86-8.46-2-12.69-3.24-3.08-.9-5.85-2.21-8.52-3.78-.53-.31-1.03-.86-1.62-1.06-.89-.97-1.79-1.92-2.5-3.03-.32-.5-.34-1.2-.85-1.59-.13-.98-.37-2.03-.77-3.01-.2-.5-1.07-.79-1.14-1.49-.14-1.43.11-2.85-.13-4.28-.59.36-.66.98-.83,1.6-2.27-.71-4.05-2.12-5.47-4.09-3.65-5.03-5.6-11.24-5.4-17.49.06-1.81.52-3.86,1.92-4.91.55-.41,1.71-.26,1.94-1.06.04-.12.31-.19.4-.2.38-.07.17.92,1.72,1.09.87,1,.76,2.57,1.2,3.63-3.65.03-3.4,1.09-3.98,1.36-2.13.98-.47,3.61.27,5.52.38.98.43,5.2,1.45,8.5.62,2.02,3.09,5.45,4.54,4.07.3-.29.47-.81.18-1.29-.4-.64.13-.89.25-1.37.76-3.09-.88-7.88-1.56-11.02-.18-.82-.45-1.7-.1-2.37,1.08,3.91,1.84,7.89,2.65,11.95.3,1.49.73,2.84,1.14,4.33,1.88-.14,1.49-5.36,1.33-6.37-.93-5.95-2.32-11.75-4.42-17.36-.48-1.29-1.16-2.34-2.32-3.11,2.11-2.05,3.82-4.82,6.09-6.51,2.01-1.49,3.96-2.95,6.04-4.21.15.27.23.69.5.84.12.09.06.5.37.47-.32.16-.57-.04-.72.16,1.4.35-.15.25-.32.54-.13.24-.05.56.18.62.13.04.33.15.51.15-.37,1.41-.78,2.39.56,3.72-.22.99.23,1.84.2,2.7-.13,3.02.65,5.29,1.35,8.15-.28,0-.38.37-.65.47-.22.08-.53-.09-.7.06-.16.14-.21.52-.05.78,2.09,3.28,2.51,3.64,5.78,5.93-.29.57-.81.8-1.05,1.2-.63-.14-.91-.86-1.34-1.34l-4.44-4.95c-.49-.55-2.7-2.4-3.64-1.31-.66.77-.25,1.68.35,2.27,1.19,1.2,1.97,2.64,3.02,3.94.83,1.04,1.62,2.03,2.37,3.13.42.61,1.78,1.94,2.3,2.31,3.55,2.55,7.25,3.1,11.37,1.57.38-.14.68-.57.93-.84.3-.33.1-.87-.21-1.1-.73-.54-1.57-.64-2.46-.76l-2.36-.31c.26-.63.76-1.9,1.33-2.41,1.25-.42,1.27.32,3.11-.19.12,1.48.43.99.65,2.6.27-1.98.37-.68.83-2.51,1.94-.24,4.13-1.02,5.65-2.49.35-.34.9-.56.87-1.08.07-.16.22-.25.37-.32.18.04.26-.1.34-.22.61-.87,1.25-.61,1.11-1.57-.07-.48.48-.69.73-1.02.95-1.3,1.62-2.77,2.27-4.26.55-1.27.61-2.59.39-3.92-.03-.15.16-.31.08-.44-.06-.1-.18-.2-.31-.28,0-.74-.52-1.81-1.27-2.22l-4.63-2.49c-3.55-1.91-7.47-2.8-11.48-3.73.52-.29,1.27-.79,1.96-.68,2.94.46,5.61,1.51,8.41,2.42,2.12.69,4.11,1.4,6.04,2.51.64.37,1.06,1.02,1.88,1.13-.37-1.7-4.49-3.29-5.8-3.73l-4.7-1.58,4.52-1.16,1.67-.5c1.61-.48,3.8-1.43,5.69-1.39l.28-1.13c.35-.4.95-.54,1.36-.81.7.2,1.54.33,2.27.39.28.22.75.3,1.08.34-.02.19.27.16.4.16.22,0,.44.05.66.04.17,0,.43-.22.37-.43-.03-.13-.24-.22-.36-.29-.36-.49-.91-1.03-1.41-1.37,1.38-.7,2.82-1.29,4.32-1.93.45-.19.99.22,1.47.06,7.37-2.47,17.59-9.68,23.9-14.44,1.78-1.34,3.26-2.71,4.66-4.43.64-.79,1.19-1.55.99-2.7,1.04-.71,1.89-2.2,2.59-2.56ZM135.16,140.05l16.92-2.51c2.76-.41,4.5-.94,6.53-2.61.3-.24.07-1.5-.38-1.45-7.98.8-19.85,2.37-27.17,5.14l-3.8,1.43c.67,1.86,5.95.3,7.9,0ZM160.18,143.35c-.19.05-.34.2-.39.39-.74.8-1.5,1.17-2.67,1.1-3.27-.2-6.47-.2-9.72.22-6.7.88-11.07,2.35-17.13,5.13-.39.95-1.35.93-.87,2.28.37-.03.34-.4.61-.56,1.86-1.1,3.81-1.83,5.83-2.26l.03.23-4.12,1.78c-.08.04-.18.08-.2.18-.05,0-.13.04-.17.06-.28.13-.64.22-.89.5-.17.19-.09.49.09.63.16-.59.68-.79,1.19-.79.48.61.96,1.59,1.94,1.43l1.97-.32c1.47-.24,2.81-.53,3.88-1.47-.06.35-.03.87,0,1.23-.38-.07-.47.46-.82.6-2.33.92-3.67.63-6.23.63-.23,0-.43-.23-.65-.13s-.18.45-.29.64c-.46.87-.26,1.54-.12,2.41.27,1.65.56,3.3,1.61,4.67.39.51.95.87,1.12,1.47-.12-.05-.29-.2-.4-.17-.2.06-.26.27-.23.44.02.15.15.31.33.4-.14-.07-.43.13-.51-.11-.05-.13.05-.43-.16-.56-.33.02-.15.72-.01.94s.52.56.74.42c.03-.37-.11-.55-.06-.69.5.25.97.55,1.42.86v.28c-.36-.19-.74-.61-1.15-.07,1.05.51,1.88,1.08,2.74,1.59,1.8,2.3,5.16,2.91,7.93,2.35.03.24-.01.49,0,.73-.38.17-1.44-.04-1.68.82-.13.45-.09,1,.25,1.29.88.73,1.95.81,3.04.93,1.93.21,3.78.26,5.64-.31,6.37-1.95,10-5.4,12.24-11.69.26-.74-.23-1.58-.8-1.81-2.03-.82-2.28,2.34-4.13,4.54-.44-.82-1.02-1.49-2.09-1.85.37-.4,4-4.76,1.75-4.38-.06,1.07-.78,1.77-1.37,2.45.06-1.19.65-2.3,1.05-3.49.58-1.7,1.24-4.21,1.01-5.85-.32-2.34.2-.92.22-3.07.29.11.67.02,1.06.22-.04-.37-.28-.43-.43-.78.26-.33.64-.38.98-.28.29.08.29.43.42.68.38-.32-.02-.91.16-1.14.74-.62,1.69-.8,2.44-1.28-2.81-.34-2.39,1.58-4.9,0,1.4-1.88,1.08-.67,1.65-2.88-.34.49-.87.85-1.18,1.38ZM136.9,146.24c5.43-1.51,9.64-2.42,15.18-2.46.14,0,.27-.17.33-.21s.04-.31-.11-.31c-4.57-.08-8.98.55-13.35,1.85l-8.45,2.52c-.14.04-.25.17-.26.24,0,.05-.02.23.09.2l6.57-1.83ZM134.74,165.18c0-.24-.19-.43-.43-.43s-.43.19-.43.43.19.43.43.43.43-.19.43-.43ZM115.76,172.31c-.21,0-.46.02-.61.16-.37.33-.16,3.9-.04,4.7.17,1.07.7.68,1.38.94,1,.37,1.84.97,3.03.42.62-.29,1.47-.51,2.04-.89.79-.53.18-1.09.12-1.67-.11-1.11.87-3.74-1.45-5.05-.9-.5-1.52,0-2.35.11-.9.11-1.9.11-2.12,1.3ZM106.19,187.54c.22-.05.4.12.72.18-.21.36,1.8,1.17,2.27,1.42l3.7,2c1.99,1.07,3.88,2.05,6.21,2.08,4.29-1.45,7.88-2.85,11.17-6.06.55-.54.79-.92,1.63-1.06,1.91-.33,3.23-2.23,2.54-4.09-.55-1.47-3.7-2.44-5.23-1.01-.8.74-1.38,1.74-1.14,3.06-1.52,1.39-3.13,2.67-5.05,3.47l-4.59,1.9c-2.73-1.19-5.25-2.4-7.81-3.82-.83-.46-2.06-.55-2.72-1.16-1-1.18-2.12-1.77-3.56-2.24-.8-.26-1.42-1.04-2.37-.5-.71.4-1.21,1.16-1.17,2.13.06,1.46.49,2.97,1.86,3.68,1.08.56,2.51.57,3.52.02ZM114.12,197.55c-.12.55-.42.86-.22,1.34.31.71,1.91,2.11,3.48,2.16,3.02.09,6-.61,8.67-1.94.91-.46.96-1.2,1.23-2.04.11-.34,2.03-2.02,1.09-3.02-.18-.19-.67-.39-1.04-.23l-2.98,1.29c-.94.41-1.54.68-2.59.52l-2.16-.34-5.1-.95c-.56-.1-1.01.29-1.23.62-.76,1.16.69,2,.85,2.59Z" fill="#f7e5da"/><path d="M140.97,44.1c-.03.11.18.24.34.21,1.12-.19,5.84.66,5.87.66h2.16c1.46-.01,2.89.64,4.4.73.72.36,1.44.44,2.15.32.39.09,1.08.05.63.5,3.64.84,7.33,1.94,11.14,3.48-3.64,4.95-6.23,10.75-8.07,16.57-.52,1.63-.83,3.13-1.05,5-1.89-.75-3.66-1.8-4.92-3.36-.46-.57-.89-1.04-1.69-.74-.5.18-.86.78-.76,1.47.11.74.6,1.31,1.13,1.83,1.68,1.64,3.68,2.8,5.88,3.64,1.05.4.26.39,1.35,1.15.22.15.52-.44.69-.4,3.2.77,6.53,1.06,9.62-.24.37-.15.59-.36.54-.72-.04-.29-.26-.54-.67-.59l-4.79-.5c-1.43-.15-2.78-.24-4.25-.73,1.96-7.32,4.87-15.29,9.47-21.33,1.03.21,1.78.85,2.61,1.2.12.39.41.69.82.93,1.5.85,2.84,1.85,3.99,3.13.44.49,1.04.89,1.4,1.41.59.85,1.31,1.39,2.05,2.06l1.85,1.68c1.06.97,2.11,1.9,3.25,2.75.85.64,1.4,1.44,2.14,2.19l6.23,6.32c1.07,1.38,2.23,2.54,3.03,4.11,2.61,5.08,5.34,13.52,2.22,18.82-2.05,3.47-7,8.89-10.12,11.52-.34.29-.59.65-.54,1.03-2.37.54-4.68.76-7.1.81-10.77.2-19.62-2.3-29.78-5.5.08-.57.42-1.06-.05-1.34-.42.32-.47.82-.89,1.07-5.55-1.74-10.77-3.89-16.12-6.07l-10.73-4.38c-5.21-2.13-10.2-4.4-15.19-6.98-4.16-2.15-7.6-4.89-10.53-8.53-2.68-3.34-4.93-6.91-6.17-11.04-.77-2.58-1.15-5.19-.7-7.83.06-.36.67-.29.89-.43,1.46-.96,2.9-1.87,4.13-3.1l3.03-3.03c1.9-1.9,4.26-3.19,6.69-4.38.16-.02.34.43.49.3.12-.11.23-.39.36-.45,1.82-.88,3.79-1.16,5.65-1.65,2.32.02,3.74-.79,6.5-1.11.47-.05.87-.4,1.31-.28,4.06-.5,8.51-.75,12.59-.58.62.03,1.14.35,1.8.29,1.95-.17,3.82.04,5.68.11Z" fill="#1a98a4"/><path d="M90.92,69.6c.57.26.77.99.92,1.67-1.5.6-2.73,1.33-4.08,2.22-4.74,3.14-9.23,6.52-13.64,10.08-.81.66-1.15,1.4-1.49,2.25-.26.66-.71,1.25-1.04,1.93.05.02,1.46-1.82,1.39-1.78l1.27-.87c4.27-2.95,12.31-10.57,18.07-12.86,4.4,7.01,8.06,11.65,15.37,15.61,5.2,2.82,10.49,5.17,15.99,7.42l12.61,5.14,7.57,2.96c-.99,2.08-2.34,3.76-3.94,5.37l-8.21,8.29c-2.65,2.68-5.62,4.72-8.56,7.08-4.44,3.56-8.92,6.76-13.9,9.53-2.79,1.55-5.16,3.51-8.03,4.91-3.87,1.88-7.79,3.33-12.06,4.83l9.21-8.22c2.88-2.58,5.32-5.38,7.72-8.4l4.88-6.15c3.14-3.96,5.5-8.35,7.57-12.95.51-1.13,1.07-2.05,1.84-3.02l4.77-6.03c-.12-1.05-4.04,3.73-4.58,4.28l-7.88,8.05-2.59,2.76c-1.82,1.94-3.54,3.88-5.6,5.61l-9.36,7.87c-3.5,2.94-6.94,5.71-10.75,8.24-2.7,1.79-5.12,3.68-7.68,5.63-.76.58-1.46,1.53-2.53,1.45,6.37-7.64,13.01-14.5,19.77-21.43,1.47-1.51,2.81-2.86,4.29-4.3l5.43-5.25,10-9.97c1.63-1.62,2.78-3.42,3.85-5.4.11-.21.54-.32.24-.57-.64-.52-2.81,1.79-3.34,2.4-1.33,1.55-2.83,2.82-4.31,4.23l-5.46,5.19-4.19,4.01-5.67,5.49c-4.73,4.58-15.71,16.12-19.79,21.01l-5.82,6.96c-.27.32-.47.66-.81.8-.09-.84.44-1.59.69-2.44l.58-1.93c.78-2.62,1.52-5.14,2.39-7.72l1.48-4.43,3.74-9.91c.98-2.59,1.95-4.68,3.08-7.2.24-.53.32-1.07.59-1.57.9-1.63,1.69-3.27,2.47-4.98.19-.41.24-.69.58-1.03.55-.55.59-1.49,1.05-2.13.68-.96,1.06-2.01,1.67-2.98l2.59-4.15c.84-1.34,1.71-2.78,2.78-3.89.66-.69.83-.95.83-1.99.37-2.06,2.12-2.61,1.92-3.94-.08-.52-.62-1-1.29-1.1-1.7-.26-2.82,1.98-3.55,3.1-.31.47-.98.66-.92,1.43.02.32-.28.54-.49.59-.04-.12-.02-.46-.17-.58-3.09.39-4.91,4.3-7.43,6.78-1.58,1.56-2.73,3.56-4.38,4.98-1.27,1.09-2.63,1.8-3.38,3.42l-2.78,5.93-6.35,11.52c-4.54,8.23-11.94,29.71-12.85,39.54-.56-.15-.55-.6-.48-.96.29-1.56.65-3,.7-4.64.21-6.69,1.11-13.15,2.28-19.74,1.08-6.12,2.83-11.84,5.39-17.48,2.01-4.43,4.28-8.51,7.07-12.5,2.29-3.28,4.31-6.55,6.35-9.97,1.09-1.83,2.31-3.45,3.78-4.95.26-.27,2.17-1.57,1.52-1.88-.15-.07-.31.04-.46.13l-2.91,1.54c-1.47.78-2.49,2.19-3.44,3.62l-7.45,11.16c-6.3,9.44-10.39,19.05-12.34,30.28-1.31,7.53-2.17,14.89-2.21,22.73-1.97-2.66-3.47-5.42-4.85-8.23.14-.19-.16-5.16-.16-5.12-.35-1.82-.1-3.51-.02-5.38.37-8.36,1.81-16.51,4.3-24.5,1-3.2,2.31-6.08,4.17-8.82l4.44-6.53c1.71-2.52,3.23-5.04,5.38-7.24l6.82-6.99c3.62-3.7,3.76-4.25,8.46-7.04,3.1-1.84,5.93-3.89,8.84-6.04,1.49-1.1,2.88-2.12,4.5-2.86ZM71.56,88.05s-.04-.09-.09-.09-.09.04-.09.09.04.09.09.09.09-.04.09-.09Z" fill="#754e42"/><path d="M201.28,105.86l.1,1.76c.1,1.81.49,3.54.64,5.36l.15,1.8c.14,1.75.06,3.45.02,5.12,0,.33.05.59.19.91-.15-.07-.12.04-.13.18l-.07,3.01c-.03,1.08-.08,2.11-.17,3.2l-.2,2.61-1.45,13.78c-.57,5.46-1.32,10.72-2.58,16.08-.92,3.9-2.17,7.51-3.8,11.16s-3.76,6.79-5.62,10.16c-.03.05-.11.14-.16.17-.14.08-.18.22-.12.37-.08.5-.59.7-.96,1.05l-3.17,3.05c-3.17,3.05-6.43,5.85-10.04,8.4-2.51,1.78-4.54,3.79-6.66,6.22.37-2.68.7-5.06,1.23-7.56l1.9-9.07c.22-1.19.69-2.21,1.14-3.31.25-.62,1.28-4.27.59-4.78,1.57-4.34,2.22-8.34,3.46-12.71.58,3.05-1.6,16.41-2.67,18.49l-1.95,3.81c-.08.15-.04.31.06.36.32.16.68-.44.96-.23.25.19,0,.85.37,1.01.57.26,1.79-2.61,2.18-3.01,2.4-2.44,5.08-4.43,7.29-7.07,2.57-3.06,4.72-6.29,6.78-9.71,4.3-7.12,7.18-16.24,8.4-24.44s.27-17.81-2.09-26.1c-1.97-.31-1.63-1.54-2.34-.93-.18.16.02.37.08.59,2.36,8.39,3.64,17.99,2.15,26.67-.94,5.5-2.41,10.75-4.47,15.92-1.56,3.91-3.63,7.42-6,10.88-2.18,3.17-4.34,6.2-7.12,8.96l3.97-7.1c2.7-4.82,4.9-9.71,6.67-14.95,3.48-10.3,4.74-25.92,2.29-36.21l-.93-3.91c-.1-.4-.14-.85-.46-1-.34-.16-.71-.03-.92.15-.18.16-.47.66-.38,1.03,1.07,4.01,1.74,7.94,1.97,12.12.37,6.89-.09,13.72-1.53,20.49-1.75,8.25-6.32,18.02-10.88,25.38.96-6.5,1.31-12.58.42-18.83l.76-.22c.03-.4-.17-.71-.06-1.11,1.16.42,1.96,1.22,2.67,2.3.49-.25.58-.67.92-1.13-.95-.62-1.12-1.51-1.17-2.45-.3-4.91-2.34-10.23-2.95-15.87l-1.52-13.93-1.11-8.81c-.12-.99-.38-1.88-.58-2.78.08-.02.26.02.33-.03h.19c3.37.24,6.77.53,10.19.1l3.47-.44c1.53,2.02,0,.04,3.68-.94,3.29-.87,6.18-2.4,9.06-4.03Z" fill="#754e42"/><path d="M68.4,145.68s.02.12,0,.17c-.08.05-.15.1-.21.18l-4.33,5.39c-.85,1.06-1.64,2.09-2.8,2.96.07-1.58.45-2.86.67-4.34.84-5.59,2.06-10.96,3.61-16.42,1.57-5.53,3.16-10.84,5.08-16.24.81-2.27,1.22-4.59,2.33-6.74,2.03-3.92,4.48-7.57,7.33-10.92l5.38-6.35c1.54-1.82,2.71-2.26,3.11-3.96.21-.05.51-.27.49-.59-.06-.77.61-.96.92-1.43.73-1.13,1.85-3.36,3.55-3.1.67.1,1.21.58,1.29,1.1.2,1.34-1.55,1.89-1.92,3.94,0,1.03-.16,1.3-.83,1.99-1.07,1.11-1.95,2.56-2.78,3.89l-2.59,4.15c-.61.97-.99,2.03-1.67,2.98-.46.65-.5,1.58-1.05,2.13-.34.34-.39.62-.58,1.03-.78,1.71-1.57,3.34-2.47,4.98-.28.5-.35,1.03-.59,1.57-1.13,2.52-2.1,4.61-3.08,7.2l-3.74,9.91-1.48,4.43c-.86,2.58-1.61,5.1-2.39,7.72l-.58,1.93c-.25.85-.78,1.6-.69,2.44Z" fill="#76493b"/><path d="M90.92,69.6c-1.62.74-3.01,1.76-4.5,2.86-2.91,2.15-5.73,4.2-8.84,6.04-4.7,2.79-4.84,3.33-8.46,7.04l-6.82,6.99c-2.15,2.2-3.67,4.72-5.38,7.24l-4.44,6.53c-1.86,2.74-3.17,5.62-4.17,8.82-2.49,7.99-3.93,16.13-4.3,24.5-.08,1.87-.33,3.57.02,5.38,0-.04.29,4.93.16,5.12-.87-1.77-1.63-3.51-2.1-5.57-.85-3.74-1.24-7.43-1.32-11.32-.11-5.63.72-11.02,2.49-16.35,1.14-3.45,2.33-6.69,4.07-9.87,5.69-10.4,11.93-18.04,20.68-25.96,3.6-3.26,7.2-6.24,11.42-8.65,2.95-1.69,5.98-3.15,9.33-3.77.59-.11,1.35.6,1.97-.29.33.67.21.89.19,1.26Z" fill="#fcfcfc"/><path d="M168.46,110.34l.06,2.28c-.4.25-.54.71-.53,1.25-.06,2.22.13,4.3.63,6.49l4.73,20.63c-3.69-8.42-6.41-16.91-8.65-25.64-.31-1.22-.41-2.3-.46-3.46-.02-.33-.71-.35-.93-.25-1.04.48-.55,2.97-.32,4.07,1.45,6.97,3.57,13.64,6.13,20.29l4.4,11.47c-3.02-2.58-5.28-5.45-7.75-8.32-3.29-3.83-5.93-7.95-8.15-12.47l-2.63-5.37c-2.14-4.36-3.42-8.97-3.99-13.82-.05-.4.29-1.59.77-1.46,5.61,1.61,11.06,3.28,16.69,4.3Z" fill="#754e42"/><path d="M87.84,155.23c.79,2.38,1.68,2.76,3.29,4.23.79.72,2.2.87,3.23.82,1.43-.07,2.81-1.4,3.62-1.55.3-.05.57-.25.77-.49s.29-.55.06-.83l.02-.25c1.39-.14,3.15,1.46,4.29-.15.22.09.82-.03,1-.26.26-.34.14-.98.11-1.33.31.02.65.19.88-.1-.36-.17-.56-.35-.55-.64,0-.12-.07-.27-.05-.44.02-.27.36.07.57.11.13.08.25.18.31.28.09.14-.1.29-.08.44.22,1.33.16,2.65-.39,3.92-.64,1.5-1.31,2.96-2.27,4.26-.25.34-.8.54-.73,1.02-2.82,2.63-1.78.5-4.12,2.46-.19-.02-.35.17-.49.24l-3.48,1.71c-.26.13-.69-.2-.96-.07-.49.43-1.01.62-1.69.63-3.33.06-6.4-1.31-8.82-3.53-2.18-2-.96-2.3-2.84-4.59-.5.06-.73.32-1.08.32-.7-2.85-1.48-5.13-1.35-8.15,2.77,2.27,7.29,3.21,10.72,1.92Z" fill="#fcfcfc"/><path d="M192.11,63.96l1.24,1.44c.73.85,1.5,1.54,2.29,2.35,2.12,2.19,4.17,4.39,5.67,7.09,1.25,2.25,1.92,4.64,2.65,7.1,1.66,5.54,1.9,12.34-2.19,16.93-.33.37-.57.67-.98.97-.85.62-1.48,1.46-2.29,2.16-2.37,2.04-4.72,3.98-7.47,5.49-.14.08-.16.26-.19.32l-1.72.39c-.06-.39.19-.74.54-1.03,3.13-2.63,8.07-8.04,10.12-11.52,3.12-5.29.38-13.73-2.22-18.82-.8-1.56-1.96-2.73-3.03-4.11l-6.23-6.32c-.74-.75-1.28-1.55-2.14-2.19-1.14-.85-2.19-1.79-3.25-2.75l-1.85-1.68c-.74-.67-1.46-1.21-2.05-2.06-.37-.53-.96-.92-1.4-1.41-1.15-1.28-2.5-2.28-3.99-3.13-.41-.23-.69-.54-.82-.93,5.67,2.37,11.19,5.11,15.88,8.91l3.46,2.8Z" fill="#fcfcfc"/><path d="M188.35,181c1.86-3.37,4-6.55,5.62-10.16s2.89-7.26,3.8-11.16c1.26-5.36,2.01-10.62,2.58-16.08l1.45-13.78.2-2.61c.08-1.09.14-2.12.17-3.2l.07-3.01c.01-.14-.02-.25.13-.18,2.13,4.75,3.37,9.95,3.59,15.24,0,.11-.22,3.87-.26,4.22-.58,5.3-1.11,10.51-2.11,15.77-.24,1.28-.76,2.39-1.27,3.57-1.99,4.56-4.26,8.88-6.94,13.09-1.89,2.97-4.1,5.55-6.46,8.12-.17.18-.41.17-.57.18Z" fill="#fcfcfc"/><path d="M149.97,113.85c-.71.37-1.55,1.85-2.59,2.56.21,1.15-.34,1.91-.99,2.7-1.4,1.72-2.88,3.09-4.66,4.43-6.31,4.76-16.53,11.97-23.9,14.44-.47.16-1.02-.25-1.47-.06-1.5.64-2.95,1.23-4.32,1.93-1.24-.61-2.56-1.24-3.73-1.97,1.06-.56,2.33-.77,3.44-1.43.4-.24.76-.37,1.19-.57l6.03-2.81c1.82-.85,3.58-1.66,5.28-2.69l4.07-2.49,5.16-3.38c2.16-1.42,5.07-3.84,6.79-5.81.22-.25.71-.3.53-.72l.17-.16c.13,0,.28.03.41-.04s.09-.26.1-.37c2.75-2.92,5.25-5.09,7.72-8.53.22,1.82.36,3.41.75,4.99Z" fill="#f4d0bf"/><path d="M174.36,111.21c.2.89.46,1.79.58,2.78l1.11,8.81,1.52,13.93c.61,5.63,2.65,10.96,2.95,15.87-.14.02-.29-.09-.36-.28-2.48-6.36-3.92-8.37-5.78-15.58l-2.15-8.32c-.98-3.79-2.64-11.29-2.9-15.05-.03-.49-.4-.75-.81-.72l-.06-2.28c.73.13,1.47.31,2.26.4,1.22.13,2.5.23,3.64.47Z" fill="#3c2215"/><path d="M119.4,129.92c2.42-2.24,5.22-4.15,7.83-6.34,1.39-1.17,2.75-2.18,4.08-3.43,1.96-1.83,3.81-3.69,5.64-5.65l2.76-2.96c2.17-2.32,4.19-4.62,5.64-7.58,1.71.54,3.23.96,4.74,1.62-1.85,3.04-4.08,5.52-6.62,7.79l-3.47,3.11c-2.04,1.83-4.19,3.3-6.44,4.91-4.49,3.1-8.94,5.98-14.16,8.52Z" fill="#3c2215"/><path d="M64.29,161.99c.46,1.1.73,2.23,1.05,3.39-.35.67-.08,1.55.1,2.37.68,3.14,2.32,7.94,1.56,11.02-.12.48-.65.73-.25,1.37.29.47.12,1-.18,1.29-1.45,1.38-3.92-2.05-4.54-4.07-1.02-3.3-1.07-7.53-1.45-8.5-.74-1.9-2.41-4.54-.27-5.52.58-.27.33-1.33,3.98-1.36Z" fill="#f4d0bf"/><path d="M190.84,107.81c.03-.06.05-.24.19-.32,2.75-1.51,5.1-3.45,7.47-5.49.81-.7,1.44-1.54,2.29-2.16.42-.31.65-.6.98-.97,4.1-4.59,3.85-11.38,2.19-16.93-.74-2.46-1.4-4.85-2.65-7.1-1.5-2.7-3.55-4.9-5.67-7.09-.79-.81-1.56-1.5-2.29-2.35l-1.24-1.44c8.75,7.08,17.69,17.96,14.8,29.93-.98,4.06-3.54,7.57-6.95,9.92-2.82,1.94-5.91,3.27-9.12,4Z" fill="#1a98a4"/><path d="M87.84,155.23c-3.43,1.28-7.94.34-10.72-1.92.04-.86-.42-1.71-.2-2.7-1.34-1.33-.93-2.31-.56-3.72,2.45,0,4.87.46,7.35.94,1.36.26,2.71.34,4.02.81-.95,1.72-.41,5.06.1,6.59Z" fill="#cbcbcb"/><path d="M101.23,129.14c-.36.12-.71.31-1.07.58l-4.79,3.68c-1.51-.29-2.85-.29-4.35-.46l4.31-3.63,8.12-6.98c2.48-2.13,4.77-4.27,6.94-6.72l4.37-4.45c-2.3,4.4-5.16,8.08-8.23,11.74-1.8,2.15-3.44,4.27-5.3,6.24Z" fill="#f1cebe"/><path d="M202.18,119.91c.04-1.67.13-3.37-.02-5.12l-.15-1.8c-.15-1.82-.53-3.55-.64-5.36l-.1-1.76c.33-.23.54-.8,1.13-.86.09.6-.06,1.1.12,1.69l.73-.25c.21.58.54,1.06.7,1.66.7,2.56,1.54,5.02,2.09,7.63.42,2.02.36,4.03.52,6.07.12,1.56.33,3.06.02,4.55-.72-2.27-1.34-4.39-2.37-6.46-.76.35-1.51.55-2.04.02Z" fill="#fcfcfc"/><path d="M109.03,141.01c-.41.27-1,.41-1.36.81l-.28,1.13c-1.89-.04-4.08.91-5.69,1.39l-1.67.5-4.52,1.16-4.64-1.31c1.65-.89,4.03-1.25,4.91-1.64.35-.15.8-.46,1.15-.42.6.07,1.9-.5,2.58-.78,1.16-.49,4.15-1.4,4.68-2.19,1.65.23,3.24.91,4.84,1.36Z" fill="#f1cebe"/><path d="M91.44,136.07c-.29.52-.86.74-1.39,1.1-1.13.77-2.24,1.52-3.34,2.34l-1.13.85-2.21,1.68c-1.08.82-2.14,1.57-3.28,2.2-.68-.68-1.31-1.3-1.77-2.04,3.03-2.5,6.12-4.55,9.32-6.81,1.29.14,2.62.19,3.8.68Z" fill="#f1cebe"/><path d="M80.09,144.24c1.13-.63,2.19-1.38,3.28-2.2l2.21-1.68,1.13-.85c1.09-.82,2.2-1.57,3.34-2.34.53-.36,1.1-.57,1.39-1.1.7.03,1.41.2,2.13.58-3.22,3.06-6.56,5.82-10.1,8.47-.93-.26-3.46-.12-3.37-.88Z" fill="#f7e5da"/><path d="M108.31,137.87c-.12.02-.34.05-.34-.17,8.7-3.19,26.67-13.63,32.84-19.74.17.42-.31.46-.53.72-1.72,1.97-4.62,4.4-6.79,5.81l-5.16,3.38-4.07,2.49c-1.69,1.04-3.46,1.84-5.28,2.69l-6.03,2.81c-.44.2-.79.33-1.19.57-1.11.67-2.38.87-3.44,1.43Z" fill="#f7e5da"/><path d="M100.53,153.25c.85.74,3,1.3,3.71,2.18.03.35.15.99-.11,1.33-.18.23-.77.35-1,.26l-1.08-.45c-.92-.38-1.9-.48-2.8-.81,0-.18.01-.51-.25-.52-.19,0-.4.15-.59.18-.15-.51.3-.75.58-1.12.35-.45.6-.91,1.12-1.06.13-.04.28.01.41.01Z" fill="#cbcbcb"/><path d="M94.2,136.06c-1.83-.73-3.51-1.12-5.49-1.38.48-.41.98-.86,1.5-1.08,1.94-.01,3.81.17,5.76.7-.51.73-1.14,1.14-1.77,1.76Z" fill="#76493b"/><path d="M97.8,155.49c.1.09.23.21.39.18.32.31-.02.65-.17.94-.41.8-.91.9-1.72.73-2.22-.48-4.77.93-5.28-.9.41-.2.84-.23,1.27-.24.24.16.29.55.53.68,1.09.61,3.07-.7,3.08-2.05.67.34,1.26.69,1.91.65Z" fill="#766548"/><path d="M111.85,140.88c-.47.3-1.04-.02-1.6-.14-.73-.16-5.25-1.18-5.3-1.68.54-.27,1.28-.72,1.94-.76.92.23,4.5,1.97,4.96,2.58Z" fill="#76493b"/><path d="M100.11,153.24c-.53.15-.78.61-1.12,1.06-.29.37-.74.61-.58,1.12l-.22.25c-.16.02-.29-.1-.39-.18.29-.43-1.27-.96-1.32-2.04-.03-.64.71-.91,1.11-1.03.64-.19,1.12.2,1.52.63.22-.05.43-.3.63-.15.14.11.3.18.37.34Z" fill="#fcfcfc"/><path d="M95.37,133.41l4.79-3.68c.35-.27.71-.47,1.07-.58-1.55,1.63-2.91,3.29-4.64,4.64-.39.08-.94-.24-1.22-.38Z" fill="#f7e5da"/><path d="M155.89,46.03c-.71.11-1.43.04-2.15-.32-1.51-.09-2.94-.74-4.4-.74h-2.16s-4.75-.84-5.87-.66c-.17.03-.37-.1-.34-.21,1.28.05,2.39,0,3.6.12,3.85.39,7.65.86,11.31,1.81Z" fill="#cbcbcb"/><path d="M103.13,157.01c-1.15,1.61-2.9.01-4.29.15.04-.49.2-.96.41-1.4.9.33,1.88.42,2.8.81l1.08.45Z" fill="#f7e5da"/><path d="M111.85,140.88c.24.26.71-.04.97.46-.59-.19-1.08-.12-1.52.05-.73-.06-1.56-.19-2.27-.39-1.61-.45-3.19-1.14-4.84-1.36v-.19c.41,0,.47-.23.76-.39.05.5,4.57,1.52,5.3,1.68.56.13,1.13.44,1.6.14Z" fill="#3c2215"/><path d="M97.13,157.59c-1.77,1.3-3.42,1.96-5.19.49,1.87-.15,3.49-.55,5.19-.49Z" fill="#766548"/><path d="M76.35,144.94c-.27-.15-.35-.57-.5-.84.58-.35.99-1.05,1.78-1.3.47.56.95,1.14,1.36,1.76-1.06.18-1.9-.33-2.64.39Z" fill="#f1cebe"/><path d="M104.2,139.45v.19c-.54.79-3.52,1.7-4.69,2.19-.67.28-1.98.85-2.58.78.89-.48,6.65-3.17,7.26-3.17Z" fill="#f7e5da"/><path d="M91.96,154.38c-.45.28-1.15.04-1.74.13-.26-.51-.32-1.03-.25-1.56.87-.05,1.56-.12,2.38,0-.06.45-.07,1.11-.38,1.43Z" fill="#766548"/><path d="M104.03,154.43c.18.08.34.23.55.26-.01.29.19.47.55.64-.24.29-.58.13-.88.1-.71-.88-2.87-1.43-3.71-2.18l.03-.35,3.48,1.53Z" fill="#3c2215"/><path d="M120.91,44.29c-.44-.12-.84.22-1.31.28-2.76.32-4.18,1.13-6.5,1.11,2.29-.61,4.48-1.17,6.82-1.48.38-.05.75-.22.99.1Z" fill="#cbcbcb"/><path d="M92.36,152.02l-2.37-.16c-.21-.01-.18-.66,0-.65l2.15.1c.23.01.36.18.38.3s.02.43-.17.42Z" fill="#766548"/><path d="M177.59,151.08c-.53,0-.68-.45-.93-.79-.26-.99-.78-1.81-.84-2.88l1.78,3.67Z" fill="#f7e5da"/><path d="M91.74,154.82c.48-.04.49.44.46.7-.04.36-1.47.5-1.62.29-.13-.18-.38-.71-.14-.85.35-.19.79-.1,1.3-.14Z" fill="#766548"/><path d="M92.59,152.44c-.92.34-1.77.03-2.74.16.04-.24.18-.28.34-.42.8.25,1.52-.26,2.4.26Z" fill="#3c2215"/><path d="M83.15,146.22c-.64.23-1.31.06-1.84-.41.6-.02,1.2-.15,1.84.41Z" fill="#cbcbcb"/><path d="M92.71,150.39c-.92.05-1.8.24-2.84-.1.98-.37,1.91-.27,2.84.1Z" fill="#76493b"/><path d="M94.28,148.79c-.25.36-2.54-.63-2.48-.55-.49-.75,2.23.39,2.48.55Z" fill="#cbcbcb"/><path d="M97.98,158.73c.15-.5.53-.91.84-1.32.23.27.14.6-.06.83s-.47.44-.77.49Z" fill="#f7e5da"/><path d="M65.53,124.18h-.22c.3-.63.26-1.47.91-2,.05.82-.5,1.36-.69,2Z" fill="#766548"/><path d="M104.03,154.43l-3.48-1.53c-.31-.36-.97-.45-1.27-1.03l4.75,2.56Z" fill="#754e42"/><path d="M72.98,85.99c.07-.05-1.34,1.8-1.39,1.78.34-.68.78-1.28,1.04-1.93-.05.04.05.4.11.35l.24-.19Z" fill="#3c2215"/><path d="M91.13,147.88c-.49.18-.85-.25-1.3-.38.47-.09.92-.12,1.3.38Z" fill="#766548"/><path d="M175.72,147.26c-.33-.22-.55-.58-.45-1.08.29.23.56.46.45,1.08Z" fill="#766548"/><path d="M98,151.28c-.26.15-.75.13-.84-.23.17-.18.48,0,.84.23Z" fill="#3e2b16"/><path d="M96.96,150.96c-.39.13-.56-.08-.91-.24.3-.18.73-.15.91.24Z" fill="#3e2b16"/><path d="M174.13,143.17c-.38-.15-.41-.58-.22-.89.11.3.37.41.22.89Z" fill="#766548"/><path d="M113.44,141.93v-.72c.14.07.34.16.37.29.06.22-.2.42-.37.43Z" fill="#3c2215"/><path d="M141.5,117.39c-.01.11.02.31-.1.37s-.29.04-.41.04c.08-.23.27-.42.52-.41Z" fill="#f7e5da"/><path d="M174.41,143.97c.06-.13.18.07.22.11.12.1.09.33-.03.35-.24.04-.36-.1-.2-.46Z" fill="#766548"/><path d="M89.66,147.36c-.19.14-.4.11-.72.03.1-.21.3-.19.72-.03Z" fill="#766548"/><path d="M112.78,141.89c-.13,0-.42.03-.4-.16.08-.03.17-.2.26-.15.14.08.22.2.14.31Z" fill="#3c2215"/><path d="M73.9,142.86c.09-.11.29-.03.31.05.02.06-.14.14-.18.2-.09.13-.27-.06-.13-.25Z" fill="#754e42"/><circle cx="174.26" cy="143.53" r=".11" fill="#766548"/><circle cx="174.97" cy="145.31" r=".11" fill="#766548"/><circle cx="175.15" cy="145.84" r=".11" fill="#766548"/><path d="M188.07,181.54c-.06-.15-.01-.29.12-.37.04.14-.1.25-.12.37Z" fill="#fcfcfc"/><circle cx="177.81" cy="153.56" r=".09" fill="#754e42"/><path d="M174.88,111.19h-.19c.08-.07.12,0,.19,0Z" fill="#3c2215"/><path d="M68.19,146.02c.06-.07.13-.13.21-.18-.04.08-.1.24-.21.18Z" fill="#754e42"/><circle cx="66.32" cy="121.96" r=".09" fill="#766548"/><path d="M157.69,159.83c-.66.75-1.29,1.52-2.16,2.19-1.26.98-2.45,2.02-3.67,3.05-1.82,1.56-9.73,3.09-12.49,1.4-1.61-.98-3.18-1.83-4.74-2.73l-.25-.14c-.05-.06-.17-.13-.2-.19-.16-.6-.73-.96-1.12-1.47-1.05-1.36-1.33-3.02-1.61-4.67-.14-.87-.35-1.54.12-2.41.1-.2.07-.55.29-.64s.41.13.65.13c2.56,0,3.9.29,6.23-.63.35-.14.44-.67.82-.6.2,2.56,2.86,3.95,5.14,4.94,1.34.58,2.71.6,4.1.18,2.43-.75,4.13-2.83,4.24-5.3,3.41.06,4.29-.21,6.72-2.45.23,1.64-.43,4.15-1.01,5.85-.4,1.19-.99,2.3-1.05,3.49Z" fill="#fcfcfc"/><path d="M159.98,147.42c-1.46-.54-3.03-.59-4.66-.43l-2.96.28c-.86.08-1.91-.03-2.81.3-1.11.72-1.09,2.77-.05,3.57.82.63,1.79.48,2.66.39.05.15.36.3.35.46-.04.65-1.85.44-1.93.42-.84-.15-1.69-.32-2.16-1.2-.22.16-.21.36-.1.54.09.16.33.08.57.35-.21.3-.54-.06-.64.34.9-.13,1.58.16,2.32.16h.16c-.77.45-1.72,0-2.61.23-.1.03-.03.33.06.31-.15.05,2.36-.22,2.63-.2s.44.2.62.34c-1.07.48-3.62-.11-4.42,1.09,1.65.08,3.1.12,4.59.02.83-.54.41-2.61,1.44-1.43-.11,2.47-1.81,4.56-4.24,5.3-1.39.43-2.76.41-4.1-.18-2.28-.99-4.93-2.39-5.14-4.94-.03-.36-.06-.88,0-1.23.17-.94.27-1.9.7-2.82-.92-.26-2.66,1.14-3.07.6-.37-.23.56-.37.8-.6-.78-.23-1.47.44-2.14.58-2.02.42-3.97,1.16-5.83,2.26-.27.16-.24.53-.61.56-.47-1.35.48-1.33.87-2.28,6.07-2.78,10.43-4.25,17.13-5.13,3.26-.43,6.45-.42,9.72-.22,1.17.07,1.93-.29,2.67-1.1.14-.15.26-.18.39-.39.31-.53.83-.89,1.18-1.38-.57,2.21-.26,1-1.65,2.88,2.52,1.57,2.09-.34,4.9,0-.75.48-1.7.66-2.44,1.28-.18.22.22.82-.16,1.14-.13-.26-.13-.6-.42-.68-.34-.1-.73-.05-.98.28.16.35.4.41.43.78-.38-.2-.76-.11-1.06-.22ZM149.66,145.42c-.99-.3-1.65.09-2.48.15.87.29,1.65-.1,2.48-.15ZM155.52,145.39c-1.26-.08-2.21-.26-3.34.09,1.22.38,2.32.21,3.34-.09ZM144.88,146.37c-1.04,0-2.15.06-3.2.53-1.51.16-3.05.52-4.48,1.21,1.59-.12,2.92-.77,4.48-1.03,1.02-.17,2.01-.45,3.2-.53.43-.03.87-.32,1.41-.14.64-.35,1.28-.08,1.98-.31-1.11-.16-2.25-.14-3.39.28ZM136.95,148.13c-.46-.02-.51.19-.1.22.2-.02.28-.12.1-.22ZM144.45,148.33c-.68-.42-1.2,0-1.72.1.62.07,1.15.25,1.72-.1ZM140.47,148.38c-.72-.12-1.26.15-1.83.42.72.12,1.26-.15,1.83-.42ZM138.31,149.03c.19.01.23-.18,0-.18-.11-.02-.24.06,0,.18ZM143.94,151.23c-1.11-.39-2.21-.07-3.26.35,1.09.06,2.14.18,3.26-.35ZM140.79,152.94l2.97-.22c.16-.01.09-.7-.11-.67-.77.11-2.66.38-2.98.61-.05.03.04.28.12.28ZM142.93,154.68c.74-.25,1.41.02,2.11-.37l-1-.96-3.21.2c-.05.45.29.95.59,1.17.44.33,1,.13,1.52-.05ZM149.51,156.79c.11-.04.34-.11.3-.22-.09-.25-.36-.24-.49-.31l.9-.12c.49-.07.91-.71.83-1.25-2.8.02-5.95-.24-8.64.63,1.29.89,2.65,1.66,4.24,1.91,1.04.16,1.98-.3,2.85-.64Z" fill="#0c0b0a"/><path d="M106.91,187.72c2.01.41,3.83,1.36,5.57,2.57,1.23.85,2.63,1.18,4.09,1.58.97.26,2.14.83,3.14.48,1.86-.65,3.56-1.5,5.33-2.31,2.04-.94,3.65-2.41,5.3-3.88l1.98-1.76c.55-.49.53-1.54.34-2.17-.07-.24-.46-.18-.61-.13-.52.16-.02,1.57-.43,1.94-.64.58-1.27,1.08-1.87,1.71-1.59,1.66-3.45,2.94-5.58,3.85-1.51.64-2.94,1.36-4.54,1.83-.77.23-1.68-.28-2.41-.51-1.28-.41-2.66-.6-3.78-1.36-2.04-1.4-4.14-2.4-6.56-2.99-3.05-.74-2.72-3.05-3.28-3.25-1.05-.37-.2,3.36,2.59,4.22-1.01.55-2.43.54-3.52-.02-1.37-.71-1.8-2.22-1.86-3.68-.04-.96.46-1.72,1.17-2.13.95-.54,1.57.24,2.37.5,1.44.47,2.56,1.06,3.56,2.24.65.61,1.89.7,2.72,1.16,2.56,1.41,5.08,2.63,7.81,3.82l4.59-1.9c1.92-.8,3.53-2.08,5.05-3.47-.24-1.32.34-2.32,1.14-3.06,1.53-1.42,4.68-.46,5.23,1.01.69,1.85-.63,3.76-2.54,4.09-.84.15-1.08.52-1.63,1.06-3.29,3.21-6.88,4.61-11.17,6.06-2.34-.03-4.22-1-6.21-2.08l-3.7-2c-.47-.25-2.48-1.06-2.27-1.42Z" fill="#f1cebe"/><path d="M81.81,169.87l-.54.9c-.27.45-.39.9-.32,1.34.04.22.04.43.35.54.08-.31-.01-.52.02-.73.09-.48.55-.75.72-1.2h.17c.19.03.42.04.65.18,2.31,1.43,3.57,1.14,3.99,1.52.19.17.29.54.62.57l.21-.52,2.36.31c.88.12,1.73.22,2.46.76.31.23.52.77.21,1.1-.25.27-.55.7-.93.84-4.12,1.53-7.82.97-11.37-1.57-.52-.37-1.88-1.7-2.3-2.31-.75-1.1-1.53-2.09-2.37-3.13-1.04-1.3-1.82-2.74-3.02-3.94-.6-.6-1.01-1.5-.35-2.27.94-1.09,3.15.77,3.64,1.31l4.44,4.95c.43.48.72,1.2,1.34,1.34ZM87.72,173.27s-.04-.09-.09-.09-.09.04-.09.09.04.09.09.09.09-.04.09-.09Z" fill="#f4d0bf"/><path d="M144.84,169.84c.02.29,0,2.27.43,2.09.29-.12.28-1.47.32-1.94,1.55-.05,3.45.27,4.81-.37.37.51.88,1.05,1.61.83-.49-.06-.33-.62-.48-.81.05-.09.09-.31.27-.38,1.42-.52,2.82-1.06,3.94-1.97.26.28,1.06.33,1.36.21.06-.5-.27-.7-.33-1.02.97-.57,1.89-1.53,2.34-2.56.16-.03.2-.21.28-.31,1.86-2.21,2.1-5.36,4.13-4.54.58.23,1.07,1.07.8,1.81-2.24,6.3-5.87,9.74-12.24,11.69-1.86.57-3.71.52-5.64.31-1.09-.12-2.16-.2-3.04-.93-.35-.29-.38-.84-.25-1.29.24-.86,1.29-.65,1.68-.82Z" fill="#f4d0bf"/><path d="M114.12,197.55c-.16-.59-1.61-1.44-.85-2.59.22-.33.67-.72,1.23-.62l5.1.95,2.16.34c1.05.16,1.65-.11,2.59-.52l2.98-1.29c.37-.16.86.03,1.04.23.94,1.01-.99,2.68-1.09,3.02-.27.83-.31,1.58-1.23,2.04-2.66,1.34-5.65,2.03-8.67,1.94-1.57-.04-3.17-1.45-3.48-2.16-.21-.48.09-.79.22-1.34Z" fill="#f4d0bf"/><path d="M135.16,140.05c-1.95.29-7.24,1.86-7.9,0l3.8-1.43c7.33-2.77,19.2-4.34,27.17-5.14.45-.04.68,1.21.38,1.45-2.03,1.67-3.77,2.2-6.53,2.61l-16.92,2.51ZM158.19,134.39s-.04-.09-.09-.09-.09.04-.09.09.04.09.09.09.09-.04.09-.09ZM136.14,138.9l14.71-2.14c1.75-.25,5.95-.71,7.05-2.36l-12.86,1.99c-4.6.71-8.98,1.82-13.44,3.04-.27.07-.53.18-.74.5l5.28-1.03Z" fill="#0c0b0a"/><path d="M159.39,163.61c-.08.1-.12.28-.28.31-.94-.17-1.73-.59-2.51-1.39-.8.56-1.31,1.14-1.95,1.82l2.12,2.12c.05.33.39.52.33,1.02-.3.12-1.1.07-1.36-.21-.63-.68-1.29-1.34-1.92-2.13-1.04.96-1.99,1.79-3.31,2.35.23.84.55,1.54,1.01,2.13.15.19,0,.75.48.81-.74.22-1.25-.32-1.61-.83s-.42-1.23-.88-1.78l-3.84.64c-.28.52-.06,1.04-.1,1.51s-.03,1.82-.32,1.94c-.43.18-.41-1.8-.43-2.09-.02-.24.03-.49,0-.73-.02-.13.07-.3,0-.43-.16-.34-3.69.59-7.93-1.92-.86-.51-1.69-1.09-2.74-1.59.41-.54.79-.12,1.14.07l1.82.97c-.47-.75-1.25-.88-1.81-1.26-.46-.31-.93-.61-1.42-.86-.18-.09-.31-.25-.33-.4-.03-.17.04-.39.23-.44.11-.03.28.12.4.17.03.07.15.14.2.19.06.07.17.1.25.14,1.56.9,3.14,1.75,4.74,2.73,2.76,1.68,10.67.15,12.49-1.4,1.21-1.04,2.4-2.08,3.67-3.05.87-.68,1.5-1.44,2.16-2.19.59-.68,1.31-1.38,1.37-2.45,2.25-.38-1.38,3.98-1.75,4.38,1.06.36,1.64,1.04,2.09,1.85ZM153.76,164.21c.71-.16,1.06-.66,1.39-1.15l-1.39,1.15ZM153.25,164.83c0-.06-.05-.11-.11-.11s-.11.05-.11.11.05.11.11.11.11-.05.11-.11ZM152.83,165.53c.13-.24-.01-.4-.29-.35-.08.47-.4.64-.71.85.5.08.5-.46,1-.5ZM151.27,166.52s-.04-.09-.09-.09-.09.04-.09.09.04.09.09.09.09-.04.09-.09ZM150.79,166.85c.25-.26-.08-.35-.36-.09-.39.16-.07.25.36.09ZM149.33,167.19c-.71-.05-1.21.24-1.81.42.65.1,1.29.08,1.81-.42ZM147.24,167.66c-.46-.02-.51.19-.1.22.2-.02.28-.12.1-.22Z" fill="#141312"/><path d="M97.34,166.99c.12.16-.06.39.12.52.64.51-3.13,1.8-3.53,1.94-.25.09-.28.35-.33.52-.45,1.84-.55.54-.83,2.51-.23-1.62-.53-1.12-.65-2.6-1.84.51-1.87-.23-3.11.19-.57.51-1.07,1.78-1.33,2.41l-.21.52c-.33-.03-.43-.4-.62-.57-.05-.95.5-1.76,1.1-2.54.04.07-3.33-.42-2.66-.2l-1.65-.53c-.57.37-.96.93-1.39,1.38-.06.06-.17.12-.21.2-.17.44-.62.72-.72,1.2l-.37.19c-.07-.44.05-.89.32-1.34l.54-.9c.24-.4.76-.62,1.05-1.2-3.27-2.29-3.7-2.65-5.78-5.93-.16-.25-.11-.64.05-.78.17-.15.48.02.7-.06.27-.1.37-.46.65-.47.35,0,.58-.26,1.08-.32,1.88,2.29.66,2.59,2.84,4.59,2.42,2.22,5.49,3.6,8.82,3.53.68-.01,1.2-.21,1.69-.63.27-.13.7.2.96.07l3.48-1.71ZM77.73,162.15c.2.97,1.03,1.32,1.54,2.27.84.11-1.16-2.34-1.54-2.27ZM81.6,166.39c-.47-.65-.84-1.14-1.59-1.43.25.72.87,1.35,1.59,1.43Z" fill="#141312"/><path d="M159.98,147.42c-.02,2.15-.55.73-.22,3.07-2.43,2.24-3.3,2.51-6.72,2.45-1.03-1.18-.61.89-1.44,1.43.02-.39.16-.85-.17-1.11-.19-.15-.36-.33-.62-.34.07-.03.05-.11.08-.15.08-.11-.06-.24-.16-.18h-.16v-.18c.09.02,1.89.23,1.93-.42,0-.15-.29-.31-.35-.46-.09-1.44-.1-2.85.21-4.26l2.96-.28c1.62-.16,3.2-.11,4.66.43Z" fill="#cbcbcb"/><path d="M116.5,178.1c.27-.21-.14-.44-.2-.71-.34-1.46-.27-2.94-.15-4.4.02-.27-.3-.46-.38-.67.22-1.19,1.22-1.19,2.12-1.3.83-.1,1.46-.61,2.35-.11,2.32,1.31,1.35,3.94,1.45,5.05.06.58.67,1.14-.12,1.67-.56.38-1.41.6-2.04.89-1.18.55-2.03-.05-3.03-.42Z" fill="#f4d0bf"/><path d="M106.91,187.72c-.32-.07-.5-.24-.72-.18-2.79-.87-3.64-4.59-2.59-4.22.56.2.23,2.51,3.28,3.25,2.42.59,4.52,1.59,6.56,2.99,1.12.76,2.49.95,3.78,1.36.73.23,1.64.74,2.41.51,1.6-.47,3.03-1.19,4.54-1.83,2.13-.91,3.99-2.19,5.58-3.85.6-.62,1.23-1.12,1.87-1.71.4-.37-.09-1.79.43-1.94.15-.05.54-.11.61.13.19.63.21,1.68-.34,2.17l-1.98,1.76c-1.65,1.47-3.26,2.94-5.3,3.88-1.77.82-3.47,1.66-5.33,2.31-1,.35-2.17-.22-3.14-.48-1.45-.39-2.86-.72-4.09-1.58-1.74-1.21-3.56-2.16-5.57-2.57Z" fill="#141312"/><path d="M139.56,151.89c-1.06.95-2.4,1.23-3.88,1.47l-1.97.32c-.98.16-1.46-.82-1.94-1.43.02-.06.04-.11.05-.17,0-.05,0-.09-.02-.14-.08-.02-.16-.08-.25-.09.03-.1.12-.14.2-.18l.05.26c.6.17,4.49-1.81,4.56-1.79.07.02.18-.02.24-.06.11-.07.12-.22.12-.34l.47-.07c.41.54,2.15-.86,3.07-.6-.43.92-.52,1.89-.7,2.82Z" fill="#cbcbcb"/><path d="M136.9,146.24l-6.57,1.83c-.1.03-.09-.15-.09-.2,0-.07.11-.2.26-.24l8.45-2.52c4.37-1.3,8.78-1.93,13.35-1.85.14,0,.18.28.11.31s-.2.21-.33.21c-5.54.04-9.75.94-15.18,2.46Z" fill="#3c2215"/><path d="M115.76,172.31c.08.21.41.4.38.67-.12,1.47-.19,2.95.15,4.4.06.27.48.5.2.71-.68-.25-1.21.13-1.38-.94-.13-.8-.34-4.36.04-4.7.15-.13.4-.15.61-.16Z" fill="#141312"/><path d="M100.13,166.4c.03.51-.52.74-.87,1.08-1.52,1.47-3.71,2.25-5.65,2.49.04-.17.07-.44.33-.52.4-.13,4.16-1.42,3.53-1.94.04-.05.13-.02.17-.02l.2.03c.88-.07,1.47-.9,2.3-1.12Z" fill="#fcfcfc"/><path d="M144.83,169.1c-2.77.56-6.13-.05-7.93-2.35,4.25,2.51,7.77,1.58,7.93,1.92.06.13-.02.3,0,.43Z" fill="#fcfcfc"/><path d="M100.84,165.86c-.17-.03-.23.16-.34.22-.15.07-.3.17-.37.32-.83.22-1.42,1.05-2.3,1.12-.05-.04-.16-.2-.2-.03-.04,0-.13-.03-.17.02-.17-.13,0-.36-.12-.52.14-.07.3-.26.49-.24-.03.13.04.29,0,0,2.34-1.96,1.29.17,4.12-2.46.15.96-.5.7-1.11,1.57Z" fill="#3e2b16"/><path d="M136.33,149.79l.03.36c-.07-.02-3.96,1.96-4.56,1.79,0,.05.03.09.02.14-.14-.03-.48.06-.44-.17.05-.02.12-.06.17-.06.08.01.16.07.25.09l-.05-.26,4.12-1.78c.14-.06.3-.09.45-.1Z" fill="#3c2215"/><path d="M133.88,164.08c-.05.14.09.32.06.69-.22.14-.6-.2-.74-.42s-.32-.92.01-.94c.21.13.11.43.16.56.08.24.37.04.51.11Z" fill="#3e2b16"/><path d="M131.38,151.91c-.04.23.3.14.44.17-.01.06-.03.12-.05.17-.51,0-1.03.2-1.19.79-.18-.14-.26-.44-.09-.63.25-.28.6-.37.89-.5Z" fill="#3e2b16"/><path d="M137.19,149.67l-.47.07-.38.04c-.15.02-.31.04-.45.1l-.03-.23c.67-.14,1.36-.82,2.14-.58-.24.22-1.17.36-.8.6Z" fill="#79bad4"/><path d="M159.79,143.74c.05-.19.19-.34.39-.39-.12.21-.25.24-.39.39Z" fill="#754e42"/><circle cx="134.31" cy="165.18" r=".43" fill="#3e2b16"/><path d="M100.84,165.86c-.09.12-.16.26-.34.22.11-.06.17-.24.34-.22Z" fill="#fcfcfc"/><circle cx="71.47" cy="88.05" r=".09" fill="#3c2215"/><path d="M134.63,163.75c-.08-.05-.18-.07-.25-.14l.25.14Z" fill="#f7e5da"/><path d="M152.36,147.27c-.3,1.41-.3,2.82-.21,4.26-.86.09-1.84.24-2.66-.39-1.03-.8-1.06-2.84.05-3.57.9-.34,1.95-.22,2.81-.3Z" fill="#fcfcfc"/><path d="M149.31,156.26c-1.7.23-3.43.03-5.2-.29-.79,1.15,5.75.42,5.39.82-.87.34-1.81.8-2.85.64-1.59-.25-2.96-1.02-4.24-1.91,2.69-.88,5.84-.61,8.64-.63.07.54-.35,1.19-.83,1.25l-.9.12Z" fill="#766548"/><path d="M142.93,154.68c-.52.18-1.08.38-1.52.05-.3-.22-.64-.72-.59-1.17l3.21-.2,1,.96c-.7.39-1.37.12-2.11.37Z" fill="#766548"/><path d="M151.59,154.37c-1.48.1-2.94.06-4.59-.02.8-1.2,3.35-.61,4.42-1.09.33.26.19.72.17,1.11Z" fill="#766548"/><path d="M149.31,156.26c.13.08.41.06.49.31.04.11-.19.18-.3.22.36-.41-6.18.33-5.39-.82,1.77.32,3.5.52,5.2.29Z" fill="#141312"/><path d="M140.79,152.94c-.08,0-.17-.24-.12-.28.33-.23,2.21-.5,2.98-.61.2-.03.27.66.11.67l-2.97.22Z" fill="#766548"/><path d="M143.94,151.23c-1.13.53-2.17.41-3.26.35,1.05-.43,2.15-.74,3.26-.35Z" fill="#754e42"/><path d="M141.68,146.9v.18c-1.56.27-2.89.91-4.48,1.03,1.43-.69,2.97-1.05,4.48-1.21Z" fill="#79bad4"/><path d="M155.52,145.39c-1.02.31-2.12.47-3.34.09,1.13-.35,2.08-.17,3.34-.09Z" fill="#141312"/><path d="M150.56,152.4v.18c-.74,0-1.43-.29-2.32-.16.1-.4.42-.04.64-.34-.25-.27-.48-.19-.57-.35-.11-.18-.12-.39.1-.54.47.88,1.32,1.06,2.16,1.2Z" fill="#766548"/><path d="M144.88,146.37v.18c-1.18.08-2.18.36-3.2.53v-.18c1.04-.48,2.16-.53,3.2-.53Z" fill="#766548"/><path d="M144.88,146.55v-.18c1.14-.42,2.28-.44,3.39-.28-.7.23-1.34-.04-1.98.31-.54-.18-.98.11-1.41.14Z" fill="#3e2b16"/><path d="M150.8,152.91c-.27-.01-2.78.25-2.63.2-.09.03-.16-.28-.06-.31.9-.23,1.84.23,2.61-.23.1-.06.24.07.16.18-.03.04-.01.12-.08.15Z" fill="#3e2b16"/><path d="M149.66,145.42c-.83.04-1.61.44-2.48.15.83-.05,1.5-.45,2.48-.15Z" fill="#141312"/><path d="M140.47,148.38c-.56.28-1.11.54-1.83.42.57-.27,1.11-.54,1.83-.42Z" fill="#3e2b16"/><path d="M144.45,148.33c-.57.34-1.1.17-1.72.1.53-.09,1.05-.52,1.72-.1Z" fill="#3e2b16"/><path d="M136.95,148.13c.19.1.11.19-.1.22-.41-.03-.36-.24.1-.22Z" fill="#79bad4"/><path d="M138.31,149.03v-.18c.23,0,.19.19,0,.18Z" fill="#3e2b16"/><path d="M138.31,149.03c-.24-.12-.11-.2,0-.18v.18Z" fill="#3c2215"/><path d="M86.85,172.42c-.43-.38-1.68-.08-3.99-1.52-.22-.14-.46-.15-.65-.17l.03-.21c.43-.45.81-1.01,1.39-1.38l1.65.53c-.66-.21,2.7.28,2.66.2-.59.78-1.15,1.59-1.1,2.54Z" fill="#f7e5da"/><path d="M80.95,172.11l.37-.19c-.04.21.05.42-.02.73-.31-.11-.31-.33-.35-.54Z" fill="#3e2b16"/><path d="M82.21,170.74h-.17c.03-.09.15-.15.21-.21l-.03.21Z" fill="#3e2b16"/><circle cx="87.63" cy="173.27" r=".09" fill="#141312"/><path d="M155.73,167.29c-1.12.92-2.52,1.46-3.94,1.97-.18.07-.22.29-.27.38-.46-.59-.79-1.29-1.01-2.13,1.32-.55,2.26-1.39,3.31-2.35.62.79,1.28,1.45,1.92,2.13Z" fill="#f7e5da"/><path d="M159.11,163.92c-.45,1.03-1.37,1.99-2.34,2.56l-2.12-2.12c.64-.68,1.15-1.26,1.95-1.82.78.8,1.57,1.22,2.51,1.39Z" fill="#f7e5da"/><path d="M150.39,169.61c-1.36.64-3.26.32-4.81.37.04-.47-.18-.99.1-1.51l3.84-.64c.46.55.52,1.28.88,1.78Z" fill="#f7e5da"/><circle cx="158.11" cy="134.39" r=".09" fill="#754e42"/><path d="M136.14,138.9l-5.28,1.03c.21-.32.47-.43.74-.5,4.46-1.22,8.83-2.32,13.44-3.04l12.86-1.99c-1.1,1.66-5.3,2.11-7.05,2.36l-14.71,2.14Z" fill="#754e42"/><path d="M135.3,165.23v-.28c.56.38,1.35.51,1.82,1.26l-1.82-.97Z" fill="#766548"/><path d="M149.33,167.19c-.52.5-1.16.51-1.81.42.6-.18,1.1-.47,1.81-.42Z" fill="#3e2b16"/><path d="M152.83,165.53c-.5.04-.49.58-1,.5.31-.21.62-.37.71-.85.28-.06.42.1.29.35Z" fill="#3e2b16"/><path d="M147.24,167.66c.19.1.11.19-.1.22-.41-.03-.36-.24.1-.22Z" fill="#3e2b16"/><path d="M153.76,164.21l1.39-1.15c-.34.49-.68.98-1.39,1.15Z" fill="#3e2b16"/><path d="M150.79,166.85c-.43.16-.75.07-.36-.09.28-.26.6-.17.36.09Z" fill="#3e2b16"/><circle cx="153.14" cy="164.83" r=".11" fill="#3e2b16"/><circle cx="151.18" cy="166.52" r=".09" fill="#3e2b16"/><path d="M77.73,162.15c.38-.07,2.38,2.39,1.54,2.27-.51-.96-1.34-1.31-1.54-2.27Z" fill="#cbcbcb"/><path d="M81.6,166.39c-.72-.09-1.34-.72-1.59-1.43.75.3,1.12.79,1.59,1.43Z" fill="#f7e5da"/><path d="M136.71,149.74c0,.12,0,.26-.12.34-.06.04-.17.07-.24.06l-.03-.36.38-.04Z" fill="#0c0b0a"/><path d="M97.83,167.52l-.2-.03c.04-.16.15-.01.2.03Z" fill="#141312"/><path d="M97.83,166.75c.02.14.01.18,0,.16s-.02-.09,0-.16Z" fill="#141312"/></svg>