<?xml version="1.0" encoding="UTF-8"?><svg id="_レイヤー_1" xmlns="http://www.w3.org/2000/svg" viewBox="0 0 716.39 120.08"><path d="M140.07,93.45h9.44v-58.19h-9.44v-1.19h15.83c.79,0,1.59-.01,2.38-.04.79-.03,1.59-.07,2.38-.13.79,0,1.59-.01,2.38-.04.79-.03,1.59-.04,2.38-.04,1.7,0,3.22.03,4.55.09,1.33.06,2.58.16,3.74.3,1.16.14,2.27.34,3.32.6,1.05.26,2.17.58,3.36.98,3.46,1.14,6.45,2.65,8.98,4.55,2.52,1.9,4.59,4.1,6.21,6.59,1.62,2.5,2.81,5.22,3.57,8.17.77,2.95,1.15,6.04,1.15,9.27,0,3.74-.45,7.1-1.36,10.08-.91,2.98-2.16,5.62-3.74,7.91-1.59,2.3-3.45,4.28-5.57,5.96-2.13,1.67-4.41,3.02-6.85,4.04-1.36.62-2.65,1.11-3.87,1.45-1.22.34-2.47.6-3.74.77s-2.68.28-4.21.34-3.29.08-5.27.08c-.85,0-1.76-.01-2.72-.04-.97-.03-1.93-.07-2.89-.13-.97-.06-1.91-.1-2.85-.13-.94-.03-1.83-.04-2.68-.04h-14.46v-1.19ZM158.02,93.45c.96.11,2.08.2,3.36.26,1.28.06,2.68.08,4.21.08,1.93,0,3.84-.1,5.74-.3,1.9-.2,3.71-.62,5.45-1.28,1.73-.65,3.35-1.59,4.85-2.81,1.5-1.22,2.85-2.82,4.04-4.81,1.81-3.06,3.08-6.2,3.79-9.4.71-3.2,1.06-6.71,1.06-10.51,0-4.48-.43-8.55-1.28-12.21-.85-3.66-2.25-6.78-4.21-9.36-1.96-2.58-4.55-4.58-7.78-6-3.23-1.42-7.23-2.13-12-2.13-1.42,0-2.71.03-3.87.08-1.16.06-2.28.11-3.36.17v58.19Z" fill="#3e3a39"/><path d="M219.28,73.54c0,.57-.01,1.15-.04,1.74-.03.6-.04,1.35-.04,2.25,0,1.87.11,3.83.34,5.87.23,2.04.72,3.89,1.49,5.53.77,1.65,1.9,3.01,3.4,4.08,1.5,1.08,3.5,1.62,6,1.62s4.55-.37,6.17-1.11c1.62-.74,2.89-1.63,3.83-2.68.94-1.05,1.63-2.11,2.08-3.19.45-1.08.79-1.96,1.02-2.64l1.28.26c-.17.62-.5,1.52-.98,2.68-.48,1.16-1.25,2.33-2.3,3.49-1.05,1.16-2.47,2.18-4.25,3.06-1.79.88-4.1,1.32-6.93,1.32s-5.46-.46-7.87-1.36c-2.41-.91-4.5-2.21-6.25-3.91-1.76-1.7-3.12-3.73-4.08-6.08-.96-2.35-1.45-4.98-1.45-7.87,0-2.5.5-4.92,1.49-7.27.99-2.35,2.35-4.44,4.08-6.25,1.73-1.81,3.76-3.28,6.08-4.38,2.33-1.11,4.82-1.66,7.49-1.66,1.59,0,3.29.28,5.1.85,1.81.57,3.5,1.49,5.06,2.77,1.56,1.28,2.86,2.96,3.91,5.06,1.05,2.1,1.57,4.71,1.57,7.83h-26.2ZM236.8,72.35c.11-.79.17-1.53.17-2.21v-2.13c0-1.93-.18-3.52-.55-4.76-.37-1.25-.88-2.24-1.53-2.98-.65-.74-1.45-1.26-2.38-1.57-.94-.31-1.94-.47-3.02-.47-1.93,0-3.52.38-4.76,1.15-1.25.77-2.24,1.8-2.98,3.11-.74,1.31-1.29,2.81-1.66,4.51-.37,1.7-.61,3.49-.72,5.36h17.44Z" fill="#3e3a39"/><path d="M254.16,82.73h.94c.4,1.36.91,2.74,1.53,4.13.62,1.39,1.46,2.67,2.51,3.83,1.05,1.16,2.34,2.11,3.87,2.85,1.53.74,3.37,1.11,5.53,1.11,1.81,0,3.43-.55,4.85-1.66,1.42-1.11,2.13-2.91,2.13-5.4,0-2.16-.55-3.67-1.66-4.55-1.11-.88-2.4-1.57-3.87-2.08l-6.64-2.3c-.85-.28-1.77-.64-2.77-1.06-.99-.43-1.91-1.02-2.77-1.79-.85-.77-1.55-1.74-2.08-2.93-.54-1.19-.81-2.72-.81-4.59,0-1.59.31-3.06.94-4.42.62-1.36,1.47-2.55,2.55-3.57,1.08-1.02,2.37-1.82,3.87-2.38,1.5-.57,3.13-.85,4.89-.85,1.25,0,2.25.1,3.02.3.77.2,1.43.4,2,.6.57.2,1.08.4,1.53.6.45.2.99.3,1.62.3s1.08-.23,1.36-.68h.94v9.7h-.94c-.4-1.25-.85-2.45-1.36-3.62-.51-1.16-1.12-2.2-1.83-3.11-.71-.91-1.59-1.62-2.64-2.13-1.05-.51-2.28-.77-3.7-.77-2.72,0-4.84.61-6.34,1.83-1.5,1.22-2.25,2.85-2.25,4.89,0,1.82.64,3.19,1.91,4.13,1.28.94,3.16,1.8,5.66,2.59l6.21,2.04c2.67.91,4.85,2.16,6.55,3.74,1.7,1.59,2.55,3.69,2.55,6.3,0,1.53-.3,3.04-.89,4.51-.6,1.48-1.48,2.76-2.64,3.87-1.16,1.11-2.58,2-4.25,2.68-1.67.68-3.59,1.02-5.74,1.02-1.25,0-2.4-.13-3.45-.38-1.05-.26-2.01-.53-2.89-.81-.88-.28-1.69-.55-2.42-.81-.74-.25-1.42-.38-2.04-.38s-1.08.13-1.36.38c-.28.26-.51.53-.68.81h-.94v-11.91Z" fill="#3e3a39"/><path d="M288.02,93.45h6.55v-34.12h-6.55v-1.19h13.87v35.31h6.55v1.19h-20.42v-1.19ZM293.55,38.32c0-1.25.44-2.31,1.32-3.19.88-.88,1.94-1.32,3.19-1.32s2.31.44,3.19,1.32c.88.88,1.32,1.94,1.32,3.19s-.44,2.31-1.32,3.19-1.94,1.32-3.19,1.32-2.31-.44-3.19-1.32c-.88-.88-1.32-1.94-1.32-3.19Z" fill="#3e3a39"/><path d="M314.57,89.11c0-1.53.28-2.85.85-3.96.57-1.11,1.26-2.07,2.08-2.89.82-.82,1.7-1.49,2.64-2,.94-.51,1.77-.94,2.51-1.28-3.29-2.27-4.93-5.33-4.93-9.19,0-1.98.48-3.77,1.45-5.36.96-1.59,2.18-2.94,3.66-4.04,1.47-1.11,3.11-1.94,4.89-2.51,1.79-.57,3.5-.85,5.15-.85,2.55,0,4.75.51,6.59,1.53,1.84,1.02,3.19,1.96,4.04,2.81.62-1.08,1.54-2.07,2.77-2.98,1.22-.91,2.74-1.36,4.55-1.36,1.13,0,2.18.24,3.15.72.96.48,1.45,1.52,1.45,3.1,0,1.02-.33,1.79-.98,2.3-.65.51-1.32.77-2,.77-.79,0-1.36-.23-1.7-.68-.34-.45-.64-.94-.89-1.45s-.52-.99-.81-1.45c-.28-.45-.71-.68-1.28-.68s-1.15.24-1.74.72c-.6.48-1.12,1.04-1.57,1.66.51.57,1.16,1.53,1.96,2.89.79,1.36,1.19,3.06,1.19,5.11,0,1.7-.43,3.26-1.28,4.68-.85,1.42-1.97,2.67-3.36,3.74-1.39,1.08-3.01,1.91-4.85,2.51-1.84.6-3.73.89-5.66.89s-3.72-.27-5.19-.81c-1.48-.54-2.61-1.01-3.4-1.4-.62.29-1.29.6-2,.94-.71.34-1.36.77-1.96,1.28-.6.51-1.09,1.12-1.49,1.83-.4.71-.6,1.52-.6,2.42,0,.85.17,1.56.51,2.13.34.57.78.99,1.32,1.28.54.28,1.15.48,1.83.6.68.11,1.39.17,2.13.17h13.44c3.97,0,7.13.95,9.49,2.85,2.35,1.9,3.53,4.89,3.53,8.98,0,2.5-.54,4.76-1.62,6.81-1.08,2.04-2.51,3.81-4.3,5.32-1.79,1.5-3.84,2.67-6.17,3.49-2.33.82-4.71,1.23-7.15,1.23-2.21,0-4.24-.25-6.08-.77-1.84-.51-3.45-1.21-4.81-2.08-1.36-.88-2.42-1.94-3.19-3.19-.77-1.25-1.15-2.64-1.15-4.17s.3-2.82.89-4.04c.6-1.22,1.36-2.3,2.3-3.23.94-.94,2-1.74,3.19-2.42s2.38-1.25,3.57-1.7v-.17c-3.74,0-6.51-.61-8.3-1.83-1.79-1.22-2.68-3.3-2.68-6.25ZM327.33,97.2c-.74.45-1.49.92-2.25,1.4-.77.48-1.45,1.09-2.04,1.83-.6.74-1.08,1.6-1.45,2.6-.37.99-.55,2.22-.55,3.7,0,2.04.35,3.73,1.06,5.06.71,1.33,1.62,2.41,2.72,3.23,1.11.82,2.34,1.4,3.7,1.74,1.36.34,2.69.51,4,.51,2.04,0,3.9-.31,5.57-.94,1.67-.62,3.12-1.46,4.34-2.51,1.22-1.05,2.15-2.25,2.81-3.62.65-1.36.98-2.78.98-4.25,0-3.18-.87-5.43-2.6-6.76-1.73-1.33-4.1-2-7.1-2h-9.19ZM341.11,69.54c0-1.3-.08-2.62-.26-3.96-.17-1.33-.52-2.55-1.06-3.66-.54-1.11-1.36-2-2.47-2.68s-2.59-1.02-4.47-1.02c-2.89,0-5.08.88-6.55,2.64-1.48,1.76-2.21,4.65-2.21,8.68,0,1.7.13,3.23.38,4.59s.72,2.54,1.4,3.53c.68.99,1.59,1.74,2.72,2.25,1.13.51,2.58.77,4.34.77,2.95,0,5.05-.92,6.3-2.77,1.25-1.84,1.87-4.64,1.87-8.38Z" fill="#3e3a39"/><path d="M357.11,93.45h6.55v-34.12h-6.55v-1.19h13.7v9.1h.17c.34-.74.84-1.67,1.49-2.81.65-1.13,1.54-2.24,2.68-3.32,1.13-1.08,2.55-2,4.25-2.77s3.77-1.15,6.21-1.15c3.74,0,6.79.91,9.15,2.72,2.35,1.82,3.53,4.71,3.53,8.68v24.84h6.55v1.19h-20.42v-1.19h6.55v-27.48c0-2.21-.53-4.03-1.57-5.45-1.05-1.42-2.68-2.13-4.89-2.13-1.81,0-3.54.4-5.19,1.19-1.64.79-3.09,1.9-4.34,3.32-1.25,1.42-2.23,3.09-2.94,5.02-.71,1.93-1.06,4.03-1.06,6.3v19.23h6.55v1.19h-20.42v-1.19Z" fill="#3e3a39"/><path d="M433.17,93.45h9.44v-58.19h-9.44v-1.19h27.4v1.19h-9.44v58.19h15.14c4.99,0,8.9-1.56,11.74-4.68,2.84-3.12,4.91-7.37,6.21-12.76h.94v18.63h-51.98v-1.19Z" fill="#3e3a39"/><path d="M491.28,93.45h6.55v-34.12h-6.55v-1.19h13.87v35.31h6.55v1.19h-20.42v-1.19ZM496.81,38.32c0-1.25.44-2.31,1.32-3.19s1.94-1.32,3.19-1.32,2.31.44,3.19,1.32c.88.88,1.32,1.94,1.32,3.19s-.44,2.31-1.32,3.19c-.88.88-1.94,1.32-3.19,1.32s-2.31-.44-3.19-1.32c-.88-.88-1.32-1.94-1.32-3.19Z" fill="#3e3a39"/><path d="M516.46,93.45h6.55v-58.96h-6.55v-1.19h13.87v31.65h.17c.79-2.21,2.15-4.08,4.08-5.62,1.93-1.53,4.45-2.3,7.57-2.3,2.44,0,4.74.53,6.89,1.57,2.16,1.05,4.05,2.44,5.7,4.17,1.64,1.73,2.95,3.76,3.91,6.08.96,2.33,1.45,4.76,1.45,7.32s-.5,5.09-1.49,7.45c-.99,2.35-2.34,4.44-4.04,6.25-1.7,1.82-3.67,3.26-5.91,4.34-2.24,1.08-4.61,1.62-7.1,1.62-1.93,0-3.56-.33-4.89-.98-1.33-.65-2.44-1.43-3.32-2.34-.88-.91-1.55-1.84-2-2.81-.46-.96-.79-1.79-1.02-2.47h-.17v7.4h-13.7v-1.19ZM551.6,75.16c0-2.61-.14-4.95-.43-7.02-.28-2.07-.78-3.84-1.49-5.32-.71-1.47-1.7-2.61-2.98-3.4-1.28-.79-2.91-1.19-4.89-1.19-2.1,0-3.83.37-5.19,1.11-1.36.74-2.47,1.67-3.32,2.81-.62.79-1.12,1.65-1.49,2.55-.37.91-.67,1.99-.89,3.23-.23,1.25-.38,2.68-.47,4.3-.08,1.62-.13,3.53-.13,5.74,0,1.87.14,3.8.43,5.79.28,1.99.82,3.79,1.62,5.4.79,1.62,1.92,2.93,3.36,3.96,1.45,1.02,3.36,1.53,5.74,1.53s4.17-.45,5.53-1.36c1.36-.91,2.38-2.21,3.06-3.91.68-1.7,1.11-3.76,1.28-6.17.17-2.41.25-5.09.25-8.04Z" fill="#3e3a39"/><path d="M566.82,93.45h6.55v-34.12h-6.55v-1.19h13.7v8.59h.17c.23-.85.6-1.81,1.11-2.89.51-1.08,1.22-2.11,2.13-3.11.91-.99,2-1.83,3.28-2.51s2.82-1.02,4.64-1.02c1.3,0,2.44.21,3.4.64.96.42,1.76.96,2.38,1.62.62.65,1.08,1.4,1.36,2.25.28.85.43,1.7.43,2.55,0,1.87-.43,3.12-1.28,3.74-.85.62-1.84.94-2.98.94-2.5,0-3.74-.79-3.74-2.38,0-.51.06-.92.17-1.23.11-.31.24-.62.38-.94.14-.31.27-.67.38-1.06.11-.4.17-.96.17-1.7,0-1.82-.99-2.72-2.98-2.72-.91,0-1.87.34-2.89,1.02-1.02.68-1.97,1.67-2.85,2.98-.88,1.31-1.62,2.88-2.21,4.72-.6,1.84-.89,3.96-.89,6.34v19.48h7.4v1.19h-21.27v-1.19Z" fill="#3e3a39"/><path d="M639.82,93.71c-.74.57-1.62,1.06-2.64,1.49-1.02.43-2.27.64-3.74.64-2.72,0-4.69-.58-5.91-1.74-1.22-1.16-2.06-2.79-2.51-4.89h-.17c-.23.51-.54,1.15-.94,1.91-.4.77-1.01,1.5-1.83,2.21-.82.71-1.91,1.3-3.28,1.79s-3.09.72-5.19.72c-2.38,0-4.28-.27-5.7-.81-1.42-.54-2.52-1.2-3.32-2-.79-.79-1.32-1.69-1.57-2.68-.25-.99-.38-1.91-.38-2.76,0-1.99.4-3.57,1.19-4.76.79-1.19,1.83-2.14,3.11-2.85,1.28-.71,2.69-1.29,4.25-1.74,1.56-.45,3.13-.94,4.72-1.45,1.87-.62,3.42-1.16,4.64-1.62,1.22-.45,2.17-1.01,2.85-1.66.68-.65,1.15-1.47,1.4-2.47.26-.99.38-2.34.38-4.04,0-1.36-.08-2.58-.25-3.66-.17-1.08-.48-2-.94-2.76-.46-.77-1.11-1.35-1.96-1.74-.85-.4-1.99-.6-3.4-.6-1.87,0-3.42.33-4.64.98-1.22.65-1.83,1.72-1.83,3.19,0,.96.08,1.91.25,2.85.17.94.25,1.63.25,2.08,0,.79-.28,1.46-.85,2-.57.54-1.39.81-2.47.81-1.87,0-3.04-.34-3.49-1.02-.46-.68-.68-1.56-.68-2.64,0-1.25.28-2.44.85-3.57.57-1.13,1.4-2.14,2.51-3.02,1.11-.88,2.5-1.57,4.17-2.08,1.67-.51,3.59-.77,5.74-.77,2.61,0,4.79.33,6.55.98,1.76.65,3.18,1.53,4.25,2.64,1.08,1.11,1.84,2.35,2.3,3.74.45,1.39.68,2.85.68,4.38v21.18c0,1.65.25,2.75.77,3.32.51.57,1.25.85,2.21.85.62,0,1.28-.11,1.96-.34.68-.23,1.33-.57,1.96-1.02l.68.94ZM624.93,73.8h-.17c-.11.74-1.05,1.48-2.81,2.21l-6.38,2.55c-1.82.74-3.21,1.77-4.17,3.11-.97,1.33-1.45,2.99-1.45,4.98,0,.85.08,1.73.25,2.64.17.91.48,1.72.94,2.42.45.71,1.09,1.29,1.91,1.74.82.46,1.89.68,3.19.68,1.87,0,3.39-.4,4.55-1.19,1.16-.79,2.04-1.79,2.64-2.98.6-1.19.99-2.48,1.19-3.87.2-1.39.3-2.65.3-3.79v-8.51Z" fill="#3e3a39"/><path d="M642.38,93.45h6.55v-34.12h-6.55v-1.19h13.7v8.59h.17c.23-.85.6-1.81,1.11-2.89.51-1.08,1.22-2.11,2.13-3.11.91-.99,2-1.83,3.28-2.51s2.82-1.02,4.64-1.02c1.3,0,2.44.21,3.4.64.96.42,1.76.96,2.38,1.62.62.65,1.08,1.4,1.36,2.25.28.85.43,1.7.43,2.55,0,1.87-.43,3.12-1.28,3.74-.85.62-1.84.94-2.98.94-2.5,0-3.74-.79-3.74-2.38,0-.51.06-.92.17-1.23.11-.31.24-.62.38-.94.14-.31.27-.67.38-1.06.11-.4.17-.96.17-1.7,0-1.82-.99-2.72-2.98-2.72-.91,0-1.87.34-2.89,1.02-1.02.68-1.97,1.67-2.85,2.98-.88,1.31-1.62,2.88-2.21,4.72-.6,1.84-.89,3.96-.89,6.34v19.48h7.4v1.19h-21.27v-1.19Z" fill="#3e3a39"/><path d="M674.28,58.14h20.84v1.19h-7.15l10.98,26.72,11.49-26.72h-7.06v-1.19h13.02v1.19h-4.59l-14.04,32.84c-1.08,2.44-2.1,4.89-3.06,7.36-.97,2.47-1.93,4.95-2.89,7.44-.79,2.04-1.59,3.83-2.38,5.36-.79,1.53-1.63,2.78-2.51,3.74-.88.96-1.83,1.69-2.85,2.17-1.02.48-2.21.72-3.57.72-1.65,0-2.96-.25-3.96-.77-.99-.51-1.77-1.11-2.34-1.79s-.94-1.39-1.11-2.13c-.17-.74-.26-1.36-.26-1.87,0-1.42.4-2.48,1.19-3.19s1.76-1.06,2.89-1.06c.4,0,.82.04,1.28.13.45.08.88.24,1.28.47.4.23.74.54,1.02.94.28.4.43.88.43,1.45,0,.79-.24,1.54-.72,2.25-.48.71-.72,1.49-.72,2.34,0,.74.2,1.22.6,1.45.4.23.94.34,1.62.34.91,0,1.74-.21,2.51-.64.77-.42,1.52-1.12,2.25-2.08.74-.96,1.47-2.23,2.21-3.79.74-1.56,1.56-3.47,2.47-5.74l3.74-9.53-14.72-36.42h-5.87v-1.19Z" fill="#3e3a39"/><g opacity=".66"><path d="M9.33,83.37c-1.07.04-1.33.85-1.34,1.83-.22,1.08-.1,2.52-.22,3.25.13,1.99-.9,5.98,2.02,6.15,1.08.05,2.74.29,3.07-1.08.27-2.58.06-5.22-.03-7.82-.05-.77-.06-1.73-.86-2.16-.42-.16-1.13-.37-1.76-.37-.33,0-.64.05-.87.2ZM21.5,90.76c0-1.44-.07-2.87-.09-4.3-.07-.98.11-2.41-1.09-2.73-.72-.17-1.48-.08-2.2-.16-.83-.16-1.94.12-2.03,1.11.29,2.84.03,5.73.2,8.6.05,1.26,1.5,1.38,2.48,1.46h-.01c3.23.36,2.61-1.59,2.76-3.97ZM40.1,99.76c-8.51-.63-17.11-.51-25.61-1.13-3.26-.41-6.43-.22-9.63-.47-.39.24-1,.2-1.53.16-.21-.01-.41-.03-.58-.02-.97-.02-2.1-.66-1.96-1.76-.36-.9-.24-2.19-.33-3.16-.28-3.02-.41-6.05-.34-9.08.02-.23.03-.48.02-.74-.04-.46-.09-.92-.13-1.37-.07-.31.02-.64.22-.86.12-.42.33-.79.73-1.04.09-.04.18-.06.27-.08.34-.22.76-.33,1.19-.33,3.47-.39,6.96-.44,10.44-.47,9.19-.12,18.38-.66,27.57-.53,3.97-.05,7.94.05,11.91.15,3.31.09,6.62.17,9.93.17,3.12-.01,6.34-.23,9.44-.1,1.83.06,4.36.57,3.9,2.96-.17,3.69-.28,7.39-.55,11.06-.31,2.32.4,5.47-2.95,5.3-2.56.17-5.13.16-7.71.16-2.62,0-5.25,0-7.85.17-4.71.3-9.4,1.11-14.11,1.11-.79,0-1.58-.02-2.37-.08Z" fill="#1a98a4"/></g><path d="M40.6,66.27c-2.55.15-5.24,0-7.72.28-1.47.54-1.13,2.53-1.18,3.79-.06,1.79,2.02,1.7,3.3,1.79,2.06.09,4.11.09,6.17.32,3.1.11,6.23.19,9.33,0,1.73-.07,1.79-1.77,1.82-3.11.04-1.21.34-3.11-1.27-3.36-.74-.07-1.48-.09-2.23-.09-2.74,0-5.5.35-8.23.37ZM51.93,77.81c-7.98-.3-15.93-1.01-23.9-1.16-2.34,0-4.7.04-7.04.18-1.39.03-3.8.11-3.73-1.84-.18-.14-.3-.34-.33-.57-.12-2.01-.2-4.02-.23-6.03.07-1.45-.33-3.07.14-4.41.35-.65,1.1-.65,1.77-.65h.28c4.42,0,9.01-.36,13.37-.58,0,0,.02,0,.02,0h.02c7.3-.75,14.64-1.19,21.99-1.08,5.12.16,10.24.38,15.36.13.71.03,1.6.08,1.99.78.27.73.32,1.66.44,2.43-.04,2.3-.12,4.6-.15,6.91-.23,1.37.47,3.6-.97,4.37-4.88,1.05-9.87,1.66-14.87,1.66-1.38,0-2.76-.05-4.14-.14Z" fill="#fff67f"/><g opacity=".59"><path d="M7.44,57.45c-1.54-.17-3.82.35-4.7-1.25-.5-2.72-.17-5.57-.33-8.33-.24-2.79-.44-5.59-.33-8.39,0-1.23.53-2.01,1.83-2.02,12.57-2.22,25.43-1.8,38.15-1.51,7.92.08,15.89,1.25,23.79,1.08,1-.04,1.99-.24,2.94-.55,2.64-.4,1.64,3.45,1.85,5.02-.1,4.78.29,9.67-.72,14.37-.32,1.52-1.77,1.45-3.06,1.38-.3-.02-.6-.03-.87-.03-11.47-.48-22.94,0-34.4.38-6.31-.09-12.61-.23-18.92.03-1.75-.04-3.48-.14-5.23-.18Z" fill="#1a98a4"/></g><path d="M81.01,28.46c-.64.24-1.39.42-1.68,1.13-.36.83-.2,1.78-.12,2.64.87,7.08,3.35,13.83,5.26,20.67.96,3.3,1.93,6.6,2.95,9.88.44,1.39.83,3.5,2.65,3.7.63.1,1.24-.1,1.87-.11,1.06-.09,2.34.08,3.21-.64.39-.38.42-.92.37-1.43-.21-1.79-.71-3.53-1.15-5.27-2.2-8.75-5.51-17.16-7.77-25.89-.69-1.72-.36-4.61-2.4-5.33-.18-.04-.37-.05-.55-.05-.9,0-1.79.4-2.63.7ZM89.79,99.28c-1.13-2.81-1.26-5.93-2.12-8.82-.27-1.14-.54-2.28-.79-3.42-.39-1.5-.76-2.99-1.16-4.49-.02-.08-.05-.15-.08-.23-.02-.06-.03-.12-.03-.18-.51-1.95-1.06-3.89-1.68-5.81-2.75-9.07-5.61-18.11-8.41-27.17-4.02-13.53-6.32-27.51-10.25-41.06-.15-.63-.77-1.36-.58-1.95-.14-.48.11-1.08.7-1.14,1.78-.15,3.5-.97,5.24-1.45C75.16,2.01,79.74.56,84.5,0c1.83-.08,2.11,2.91,2.65,4.21,1.67,5.56,2.68,11.3,4.59,16.79,2.48,7.41,4.07,15.05,5.95,22.62,1.89,7.53,4.46,14.86,6.34,22.39,1.47,6.6,3.64,13.07,4.77,19.74.48,2.46,1.14,4.88,1.78,7.3.13.49-.17.89-.56,1.04h0c-.15.21-.4.38-.75.43-3.65,1.24-7.19,2.76-10.96,3.65-1.79.52-3.71.63-5.47,1.2-.56.18-1.28.5-1.92.5-.44,0-.84-.15-1.14-.59Z" fill="#fff67f"/><path d="M90.06,66.5c-1.82-.21-2.21-2.32-2.65-3.7-1.01-3.28-1.98-6.59-2.95-9.88-1.91-6.84-4.39-13.59-5.26-20.67-.08-.86-.23-1.81.12-2.64.29-.71,1.04-.89,1.68-1.13,1.01-.36,2.1-.87,3.19-.65,2.04.72,1.7,3.62,2.4,5.33,2.26,8.73,5.57,17.14,7.77,25.89.44,1.74.94,3.48,1.15,5.27.05.51.01,1.06-.37,1.43-.86.72-2.14.55-3.21.64-.5.01-.99.14-1.5.14-.12,0-.25,0-.37-.03Z" fill="#fff"/><path d="M41.18,72.46c-2.06-.23-4.11-.23-6.17-.32-1.28-.09-3.37,0-3.3-1.79.04-1.26-.29-3.25,1.18-3.79,2.48-.28,5.16-.13,7.72-.28,3.48-.02,6.99-.59,10.46-.28,1.61.25,1.32,2.15,1.27,3.36-.03,1.34-.09,3.04-1.82,3.11-1.35.09-2.71.12-4.07.12-1.76,0-3.51-.05-5.26-.12Z" fill="#fff"/><path d="M9.79,94.6c-2.92-.17-1.89-4.16-2.02-6.15.12-.72,0-2.17.22-3.25,0-.97.26-1.78,1.34-1.83.69-.42,1.99-.08,2.64.17.79.43.81,1.39.86,2.16.1,2.59.3,5.24.03,7.82-.23.96-1.1,1.13-1.97,1.13-.38,0-.77-.03-1.09-.05Z" fill="#fff"/><path d="M18.74,94.73h.01c-.98-.07-2.43-.19-2.48-1.45-.16-2.86.09-5.75-.2-8.6.09-.99,1.2-1.27,2.03-1.11.73.08,1.49-.02,2.2.16,1.2.32,1.02,1.76,1.09,2.73.03,1.43.09,2.86.09,4.3-.14,2.19.38,4.01-2.05,4.01-.21,0-.45-.02-.71-.04Z" fill="#fff"/><path d="M12.43,52.11c.06-3.53-.03-7.1.22-10.62.23-.99,1.75-.82,1.73.19-.16,1.73-.1,3.51-.15,5.27-.02,1.72-.04,3.44-.04,5.16,0,.47-.4.87-.87.87s-.87-.4-.87-.87Z" fill="#fff"/><path d="M19.83,52.25c.03-3.25.22-6.49.19-9.74-.25-.7.5-1.36,1.17-1.08.82.38.54,1.48.59,2.21-.07,2.57-.13,5.15-.18,7.72,0,.69.04,1.74-.9,1.75-.47,0-.89-.4-.87-.87Z" fill="#fff"/><path d="M53.75,51.27c.09-3.1.35-6.35.43-9.43,0-.4.17-.8.55-.96.6-.28,1.33.29,1.2.94-.11,1.6-.12,3.2-.21,4.8-.07,1.54-.24,3.1-.23,4.64.01.48-.41.87-.87.87s-.86-.4-.87-.87Z" fill="#fff"/><path d="M61.02,52.47c0-3.36,0-6.71.01-10.07.05-.78-.25-2.12.89-2.17.48,0,.87.4.87.87-.02,1.45-.03,2.91-.03,4.35,0,2.33,0,4.67,0,7.01,0,.48-.4.87-.87.87s-.87-.4-.87-.87Z" fill="#fff"/></svg>